SplineFontDB: 3.0
FontName: PadaukBookBold
FullName: Padauk Book Bold
Weight: Bold
Copyright: Copyright (c) 2002-2010 SIL International.
Version: 6.000
ItalicAngle: 0
UnderlinePosition: -450
UnderlineWidth: 50
Ascent: 819
Descent: 205
InvalidEm: 0
LayerCount: 2
Layer: 0 0 "Back" 1
Layer: 1 0 "Fore" 0
XUID: [1021 827 1911708634 14922530]
OS2Version: 0
OS2_WeightWidthSlopeOnly: 0
OS2_UseTypoMetrics: 0
CreationTime: 1403160000
ModificationTime: 1444193167
PfmFamily: 17
TTFWeight: 700
TTFWidth: 5
LineGap: 0
VLineGap: 92
Panose: 2 0 7 0 2 0 0 2 0 4
OS2TypoAscent: 1010
OS2TypoAOffset: 0
OS2TypoDescent: -500
OS2TypoDOffset: 0
OS2TypoLinegap: 0
OS2WinAscent: 1010
OS2WinAOffset: 0
OS2WinDescent: 500
OS2WinDOffset: 0
HheadAscent: 1010
HheadAOffset: 0
HheadDescent: -500
HheadDOffset: 0
OS2SubXSize: 214
OS2SubYSize: 214
OS2SubXOff: 0
OS2SubYOff: 300
OS2SupXSize: 214
OS2SupYSize: 214
OS2SupXOff: 0
OS2SupYOff: 300
OS2StrikeYSize: 52
OS2StrikeYPos: 262
OS2CapHeight: 0
OS2XHeight: 0
OS2Vendor: 'PYRS'
OS2CodePages: 00000000.00000000
Lookup: 4 0 0 "ngakinzi" { "cligContextualLigaturesinMyanma subtable"  } ['clig' ('mymr' <'KHT ' 'KSW ' 'KYU ' 'dflt' > ) ]
Lookup: 2 0 0 "insert25cc" { "sub_mult_cligmymr_0 subtable"  } ['clig' ('mymr' <'KHT ' 'KSW ' 'KYU ' 'dflt' > ) ]
Lookup: 4 0 0 "remove25ccAsat-Ligature" { "LigatureSubstitutionlookup103 subtable"  } []
Lookup: 6 0 0 "remove25ccAsat" { "sub_chain_cligmymr_0 contextual 0"  "sub_chain_cligmymr_0 contextual 1"  "sub_chain_cligmymr_0 contextual 2"  "sub_chain_cligmymr_0 contextual 3"  "sub_chain_cligmymr_0 contextual 4"  "sub_chain_cligmymr_0 contextual 5"  "sub_chain_cligmymr_0 contextual 6"  "sub_chain_cligmymr_0 contextual 7"  "sub_chain_cligmymr_0 contextual 8"  "sub_chain_cligmymr_0 contextual 9"  } ['clig' ('mymr' <'KHT ' 'KSW ' 'KYU ' 'dflt' > ) ]
Lookup: 4 0 0 "remove25cc1039-Ligature" { "LigatureSubstitutionlookup104 subtable"  } []

StartChar: .notdef
Encoding: 0 -1 0
Width: 1
VWidth: 0
GlyphClass: 2
Flags: HW
LayerCount: 2
Back
Fore
SplineSet
535 466 m 0
 535 -8 l 0
 55 -8 l 0
 55 466 l 0
 535 466 l 0
108 414 m 0
 108 46 l 0
 484 46 l 0
 484 414 l 0
 108 414 l 0
EndSplineSet
EndChar

StartChar: exclam
Encoding: 4 33 4
Width: 295
VWidth: 0
GlyphClass: 2
Flags: HW
LayerCount: 2
Back
Fore
SplineSet
240 67 m 0
 240 17 198 -23 148 -23 c 0
 98 -23 56 17 56 67 c 0
 56 117 98 157 148 157 c 0
 198 157 240 117 240 67 c 0
148 813 m 0
 184 813 206 782 208 751 c 0
 210 723 212 690 212 652 c 0
 212 502 196 345 183 267 c 0
 177 230 172 210 148 210 c 0
 124 210 119 230 113 267 c 0
 100 345 84 502 84 652 c 0
 84 690 86 723 88 751 c 0
 90 782 112 813 148 813 c 0
EndSplineSet
Comment: "GDL_order: 0+AAoA-mark: 80+AAoA"
EndChar

StartChar: quotedbl
Encoding: 5 34 5
Width: 463
VWidth: 0
GlyphClass: 2
Flags: HW
LayerCount: 2
Back
Fore
SplineSet
400 643 m 0
 378 384 l 0
 291 384 l 0
 267 643 l 0
 400 643 l 0
195 643 m 0
 172 384 l 0
 85 384 l 0
 63 643 l 0
 195 643 l 0
EndSplineSet
Comment: "mark: 1+AAoA"
EndChar

StartChar: numbersign
Encoding: 6 35 6
Width: 574
VWidth: 0
GlyphClass: 2
Flags: HW
LayerCount: 2
Back
Fore
SplineSet
519 76 m 0
 415 76 l 0
 402 -23 l 0
 288 -23 l 0
 301 76 l 0
 235 76 l 0
 222 -23 l 0
 108 -23 l 0
 121 76 l 0
 55 76 l 0
 55 190 l 0
 136 190 l 0
 144 256 l 0
 55 256 l 0
 55 370 l 0
 159 370 l 0
 175 483 l 0
 289 483 l 0
 273 370 l 0
 339 370 l 0
 355 483 l 0
 469 483 l 0
 453 370 l 0
 519 370 l 0
 519 256 l 0
 438 256 l 0
 430 190 l 0
 519 190 l 0
 519 76 l 0
324 256 m 0
 258 256 l 0
 250 190 l 0
 316 190 l 0
 324 256 l 0
EndSplineSet
Comment: "GDL_order: 0+AAoA-mark: 80+AAoA"
EndChar

StartChar: dollar
Encoding: 7 36 7
Width: 511
VWidth: 0
GlyphClass: 2
Flags: HW
LayerCount: 2
Back
Fore
SplineSet
486 187 m 0
 486 71 380 0 279 -12 c 0
 279 -92 l 0
 232 -92 l 0
 232 -12 l 0
 107 2 25 76 25 202 c 0
 145 202 l 0
 145 135 174 99 232 91 c 0
 232 276 l 0
 125 311 42 337 42 456 c 0
 42 571 143 654 232 654 c 0
 232 708 l 0
 279 708 l 0
 279 655 l 0
 384 655 469 579 469 463 c 0
 348 463 l 0
 348 517 325 548 279 556 c 0
 279 376 l 0
 390 343 486 311 486 187 c 0
232 393 m 0
 232 553 l 0
 183 540 159 513 159 471 c 0
 159 439 183 413 232 393 c 0
369 175 m 0
 369 211 339 240 279 262 c 0
 279 91 l 0
 324 99 369 126 369 175 c 0
EndSplineSet
Comment: "mark: 1+AAoA"
EndChar

StartChar: percent
Encoding: 8 37 8
Width: 801
VWidth: 0
GlyphClass: 2
Flags: HW
LayerCount: 2
Back
Fore
SplineSet
621 429 m 0
 268 -69 l 0
 181 4 l 0
 528 498 l 0
 621 429 l 0
336 352 m 0
 336 282 273 216 202 216 c 0
 126 216 63 282 63 352 c 0
 63 427 126 492 202 492 c 0
 273 492 336 427 336 352 c 0
738 79 m 0
 738 7 675 -59 603 -59 c 0
 528 -59 465 7 465 79 c 0
 465 153 528 217 603 217 c 0
 675 217 738 153 738 79 c 0
244 352 m 0
 244 376 223 400 202 400 c 0
 175 400 154 376 154 352 c 0
 154 328 175 306 202 306 c 0
 223 306 244 328 244 352 c 0
646 79 m 0
 646 102 624 126 603 126 c 0
 576 126 556 102 556 79 c 0
 556 54 576 31 603 31 c 0
 624 31 646 54 646 79 c 0
EndSplineSet
Comment: "GDL_order: 0+AAoA-mark: 80+AAoA"
EndChar

StartChar: ampersand
Encoding: 9 38 9
Width: 703
VWidth: 0
GlyphClass: 2
Flags: HW
LayerCount: 2
Back
Fore
SplineSet
694 0 m 0
 540 0 l 0
 492 45 l 0
 449 7 384 -12 298 -12 c 0
 176 -12 48 39 48 174 c 0
 48 259 92 323 181 366 c 0
 126 410 99 462 99 523 c 0
 99 621 208 655 286 655 c 0
 366 655 465 622 465 531 c 0
 465 441 396 391 333 346 c 0
 367 302 414 253 475 198 c 0
 489 235 496 277 496 322 c 0
 496 328 496 333 496 339 c 0
 618 339 l 0
 611 261 594 184 561 117 c 0
 590 82 634 43 694 0 c 0
355 513 m 0
 355 537 323 567 291 567 c 0
 247 567 216 542 216 510 c 0
 216 484 236 450 276 408 c 0
 314 434 355 474 355 513 c 0
415 114 m 0
 338 183 279 243 237 295 c 0
 195 253 174 217 174 186 c 0
 174 113 238 76 301 76 c 0
 352 76 390 89 415 114 c 0
EndSplineSet
Comment: "mark: 1+AAoA"
EndChar

StartChar: quotesingle
Encoding: 10 39 10
Width: 366
VWidth: 0
GlyphClass: 2
Flags: HW
LayerCount: 2
Back
Fore
SplineSet
249 643 m 0
 226 384 l 0
 139 384 l 0
 115 643 l 0
 249 643 l 0
EndSplineSet
Comment: "mark: 1+AAoA"
EndChar

StartChar: parenleft
Encoding: 11 40 11
Width: 463
VWidth: 0
GlyphClass: 2
Flags: HW
LayerCount: 2
Back
Fore
SplineSet
424 -471 m 0
 289 -471 l 0
 134 -276 73 -43 73 225 c 0
 73 492 149 720 294 924 c 0
 424 924 l 0
 267 704 187 457 187 225 c 0
 187 -24 262 -271 424 -471 c 0
EndSplineSet
Comment: "GDL_order: 0+AAoA-mark: 80+AAoA"
EndChar

StartChar: parenright
Encoding: 12 41 12
Width: 465
VWidth: 0
GlyphClass: 2
Flags: HW
LayerCount: 2
Back
Fore
SplineSet
391 225 m 0
 391 -42 330 -278 175 -471 c 0
 40 -471 l 0
 205 -272 277 -23 277 225 c 0
 277 457 199 704 40 924 c 0
 171 924 l 0
 314 720 391 492 391 225 c 0
EndSplineSet
Comment: "GDL_order: 0+AAoA-mark: 80+AAoA"
EndChar

StartChar: asterisk
Encoding: 13 42 13
Width: 570
VWidth: 0
GlyphClass: 2
Flags: HW
LayerCount: 2
Back
Fore
SplineSet
514 396 m 0
 457 298 l 0
 343 366 l 0
 343 232 l 0
 231 232 l 0
 231 366 l 0
 117 298 l 0
 55 394 l 0
 175 463 l 0
 55 531 l 0
 117 627 l 0
 229 562 l 0
 229 694 l 0
 343 694 l 0
 343 562 l 0
 457 627 l 0
 514 529 l 0
 399 463 l 0
 514 396 l 0
EndSplineSet
Comment: "GDL_order: 0+AAoA-mark: 80+AAoA"
EndChar

StartChar: plus
Encoding: 14 43 14
Width: 582
VWidth: 0
GlyphClass: 2
Flags: HW
LayerCount: 2
Back
Fore
SplineSet
489 283 m 0
 489 169 l 0
 348 169 l 0
 348 27 l 0
 234 27 l 0
 234 169 l 0
 93 169 l 0
 93 283 l 0
 234 283 l 0
 234 426 l 0
 348 426 l 0
 348 283 l 0
 489 283 l 0
EndSplineSet
Comment: "GDL_order: 0+AAoA-mark: 80+AAoA"
EndChar

StartChar: comma
Encoding: 15 44 15
Width: 258
VWidth: 0
GlyphClass: 2
Flags: HW
LayerCount: 2
Back
Fore
SplineSet
217 67 m 0
 217 -20 160 -107 99 -146 c 0
 87 -128 l 0
 114 -106 142 -56 142 -5 c 0
 142 2 142 6 141 13 c 0
 128 4 88 -8 72 -8 c 0
 58 -8 40 23 40 67 c 0
 40 115 79 160 127 160 c 0
 184 160 217 111 217 67 c 0
EndSplineSet
Comment: "GDL_order: 0+AAoA-mark: 80+AAoA"
EndChar

StartChar: hyphen
Encoding: 16 45 16
Width: 507
VWidth: 0
GlyphClass: 2
Flags: HW
LayerCount: 2
Back
Fore
SplineSet
451 277 m 0
 451 163 l 0
 55 163 l 0
 55 277 l 0
 451 277 l 0
EndSplineSet
Comment: "GDL_order: 0+AAoA-mark: 80+AAoA"
EndChar

StartChar: period
Encoding: 17 46 17
Width: 265
VWidth: 0
GlyphClass: 2
Flags: HW
LayerCount: 2
Back
Fore
SplineSet
225 67 m 0
 225 18 180 -23 133 -23 c 0
 84 -23 40 18 40 67 c 0
 40 117 84 157 133 157 c 0
 180 157 225 117 225 67 c 0
EndSplineSet
Comment: "GDL_order: 0+AAoA-mark: 80+AAoA"
EndChar

StartChar: slash
Encoding: 18 47 18
Width: 558
VWidth: 0
GlyphClass: 2
Flags: HW
LayerCount: 2
Back
Fore
SplineSet
502 747 m 0
 144 -275 l 0
 55 -186 l 0
 412 831 l 0
 502 747 l 0
EndSplineSet
Comment: "GDL_order: 0+AAoA-mark: 80+AAoA"
EndChar

StartChar: zero
Encoding: 19 48 19
Width: 511
VWidth: 0
GlyphClass: 2
Flags: HW
LayerCount: 2
Back
Fore
SplineSet
480 322 m 0
 480 99 405 -12 256 -12 c 0
 106 -12 31 99 31 322 c 0
 31 544 106 655 256 655 c 0
 405 655 480 544 480 322 c 0
351 322 m 0
 351 438 347 567 256 567 c 0
 163 567 159 435 159 322 c 0
 159 208 163 76 256 76 c 0
 347 76 351 208 351 322 c 0
EndSplineSet
Comment: "mark: 1+AAoA"
EndChar

StartChar: one
Encoding: 20 49 20
Width: 511
VWidth: 0
GlyphClass: 2
Flags: HW
LayerCount: 2
Back
Fore
SplineSet
361 0 m 0
 241 0 l 0
 241 517 l 0
 195 478 144 450 88 433 c 0
 88 543 l 0
 153 568 207 601 250 643 c 0
 361 643 l 0
 361 0 l 0
EndSplineSet
Comment: "mark: 1+AAoA"
EndChar

StartChar: two
Encoding: 21 50 21
Width: 511
VWidth: 0
GlyphClass: 2
Flags: HW
LayerCount: 2
Back
Fore
SplineSet
483 0 m 0
 28 0 l 0
 28 115 l 0
 304 321 357 422 357 469 c 0
 357 516 322 558 276 558 c 0
 222 558 181 518 181 466 c 0
 52 466 l 0
 52 587 164 655 273 655 c 0
 391 655 483 587 483 474 c 0
 483 382 423 276 166 102 c 0
 483 102 l 0
 483 0 l 0
EndSplineSet
Comment: "mark: 1+AAoA"
EndChar

StartChar: three
Encoding: 22 51 22
Width: 511
VWidth: 0
GlyphClass: 2
Flags: HW
LayerCount: 2
Back
Fore
SplineSet
469 181 m 0
 469 65 360 -12 256 -12 c 0
 113 -12 42 52 42 181 c 0
 168 181 l 0
 168 124 201 85 249 85 c 0
 305 85 343 122 343 190 c 0
 343 281 285 286 183 286 c 0
 183 384 l 0
 268 385 328 399 328 466 c 0
 328 524 300 558 252 558 c 0
 201 558 166 527 166 474 c 0
 42 474 l 0
 42 586 127 655 256 655 c 0
 375 655 453 580 453 471 c 0
 453 393 396 358 334 336 c 0
 405 317 469 277 469 181 c 0
EndSplineSet
Comment: "mark: 1+AAoA"
EndChar

StartChar: four
Encoding: 23 52 23
Width: 511
VWidth: 0
GlyphClass: 2
Flags: HW
LayerCount: 2
Back
Fore
SplineSet
492 141 m 0
 411 141 l 0
 411 0 l 0
 291 0 l 0
 291 141 l 0
 19 141 l 0
 19 256 l 0
 256 643 l 0
 411 643 l 0
 411 243 l 0
 492 243 l 0
 492 141 l 0
291 243 m 0
 291 525 l 0
 129 243 l 0
 291 243 l 0
EndSplineSet
Comment: "mark: 1+AAoA"
EndChar

StartChar: five
Encoding: 24 53 24
Width: 511
VWidth: 0
GlyphClass: 2
Flags: HW
LayerCount: 2
Back
Fore
SplineSet
477 226 m 0
 477 86 374 -12 241 -12 c 0
 125 -12 42 48 34 163 c 0
 154 163 l 0
 154 111 183 85 241 85 c 0
 318 85 351 153 351 219 c 0
 351 292 320 328 258 328 c 0
 207 328 182 308 157 259 c 0
 43 259 l 0
 61 643 l 0
 441 643 l 0
 441 541 l 0
 178 541 l 0
 169 373 l 0
 195 404 239 420 300 420 c 0
 409 420 477 325 477 226 c 0
EndSplineSet
Comment: "mark: 1+AAoA"
EndChar

StartChar: six
Encoding: 25 54 25
Width: 511
VWidth: 0
GlyphClass: 2
Flags: HW
LayerCount: 2
Back
Fore
SplineSet
481 217 m 0
 481 108 416 -12 255 -12 c 0
 81 -12 30 139 30 292 c 0
 30 457 74 655 270 655 c 0
 375 655 460 586 469 483 c 0
 345 483 l 0
 345 524 314 558 273 558 c 0
 178 558 154 398 154 334 c 0
 188 379 222 412 307 412 c 0
 419 412 481 314 481 217 c 0
351 204 m 0
 351 283 322 322 264 322 c 0
 205 322 175 283 175 204 c 0
 175 125 205 85 264 85 c 0
 322 85 351 125 351 204 c 0
EndSplineSet
Comment: "mark: 1+AAoA"
EndChar

StartChar: seven
Encoding: 26 55 26
Width: 511
VWidth: 0
GlyphClass: 2
Flags: HW
LayerCount: 2
Back
Fore
SplineSet
471 519 m 0
 253 0 l 0
 105 0 l 0
 351 541 l 0
 40 541 l 0
 40 643 l 0
 471 643 l 0
 471 519 l 0
EndSplineSet
Comment: "mark: 1+AAoA"
EndChar

StartChar: eight
Encoding: 27 56 27
Width: 511
VWidth: 0
GlyphClass: 2
Flags: HW
LayerCount: 2
Back
Fore
SplineSet
480 166 m 0
 480 34 367 -12 256 -12 c 0
 136 -12 31 38 31 166 c 0
 31 269 89 322 153 345 c 0
 93 366 42 406 42 490 c 0
 42 616 153 655 256 655 c 0
 359 655 469 622 469 486 c 0
 469 405 408 366 349 345 c 0
 414 325 480 273 480 166 c 0
336 475 m 0
 336 527 303 558 256 558 c 0
 208 558 175 527 175 475 c 0
 175 423 208 393 256 393 c 0
 303 393 336 423 336 475 c 0
351 189 m 0
 351 246 316 292 256 292 c 0
 196 292 163 243 163 189 c 0
 163 132 199 85 256 85 c 0
 316 85 351 135 351 189 c 0
EndSplineSet
Comment: "mark: 1+AAoA"
EndChar

StartChar: nine
Encoding: 28 57 28
Width: 511
VWidth: 0
GlyphClass: 2
Flags: HW
LayerCount: 2
Back
Fore
SplineSet
481 349 m 0
 481 186 430 -12 241 -12 c 0
 145 -12 42 61 42 160 c 0
 166 160 l 0
 166 116 197 85 238 85 c 0
 333 85 357 242 357 307 c 0
 330 260 269 231 204 231 c 0
 81 231 30 343 30 426 c 0
 30 541 101 655 256 655 c 0
 439 655 481 492 481 349 c 0
336 439 m 0
 336 518 306 558 247 558 c 0
 188 558 159 518 159 439 c 0
 159 360 188 321 247 321 c 0
 306 321 336 360 336 439 c 0
EndSplineSet
Comment: "mark: 1+AAoA"
EndChar

StartChar: colon
Encoding: 29 58 29
Width: 265
VWidth: 0
GlyphClass: 2
Flags: HW
LayerCount: 2
Back
Fore
SplineSet
225 376 m 0
 225 327 180 286 133 286 c 0
 84 286 40 327 40 376 c 0
 40 426 84 466 133 466 c 0
 180 466 225 426 225 376 c 0
225 67 m 0
 225 18 180 -23 133 -23 c 0
 84 -23 40 18 40 67 c 0
 40 117 84 157 133 157 c 0
 180 157 225 117 225 67 c 0
EndSplineSet
Comment: "GDL_order: 0+AAoA-mark: 80+AAoA"
EndChar

StartChar: semicolon
Encoding: 30 59 30
Width: 265
VWidth: 0
GlyphClass: 2
Flags: HW
LayerCount: 2
Back
Fore
SplineSet
225 376 m 0
 225 327 180 286 133 286 c 0
 84 286 40 327 40 376 c 0
 40 426 84 466 133 466 c 0
 180 466 225 426 225 376 c 0
217 67 m 0
 217 -21 160 -105 99 -146 c 0
 78 -128 l 0
 106 -105 142 -53 142 -2 c 0
 142 3 142 9 141 13 c 0
 121 5 82 -8 72 -8 c 0
 64 -8 40 11 40 67 c 0
 40 115 79 160 127 160 c 0
 184 160 217 111 217 67 c 0
EndSplineSet
Comment: "GDL_order: 0+AAoA-mark: 80+AAoA"
EndChar

StartChar: less
Encoding: 31 60 31
Width: 891
VWidth: 0
GlyphClass: 2
Flags: HW
LayerCount: 2
Back
Fore
SplineSet
712 120 m 0
 712 34 l 0
 178 238 l 0
 178 295 l 0
 712 499 l 0
 712 414 l 0
 319 267 l 0
 712 120 l 0
EndSplineSet
Comment: "mark: 1+AAoA"
EndChar

StartChar: equal
Encoding: 32 61 32
Width: 591
VWidth: 0
GlyphClass: 2
Flags: HW
LayerCount: 2
Back
Fore
SplineSet
565 175 m 0
 565 61 l 0
 25 61 l 0
 25 175 l 0
 565 175 l 0
565 385 m 0
 565 271 l 0
 25 271 l 0
 25 385 l 0
 565 385 l 0
EndSplineSet
Comment: "GDL_order: 0+AAoA-mark: 80+AAoA"
EndChar

StartChar: greater
Encoding: 33 62 33
Width: 891
VWidth: 0
GlyphClass: 2
Flags: HW
LayerCount: 2
Back
Fore
SplineSet
712 295 m 0
 712 238 l 0
 178 34 l 0
 178 120 l 0
 571 267 l 0
 178 414 l 0
 178 499 l 0
 712 295 l 0
EndSplineSet
Comment: "mark: 1+AAoA"
EndChar

StartChar: question
Encoding: 34 63 34
Width: 448
VWidth: 0
GlyphClass: 2
Flags: HW
LayerCount: 2
Back
Fore
SplineSet
269 58 m 0
 269 22 240 -11 201 -11 c 0
 161 -11 135 26 135 58 c 0
 135 90 161 121 201 121 c 0
 240 121 269 90 269 58 c 0
393 581 m 0
 393 425 259 443 259 346 c 0
 259 200 l 0
 145 200 l 0
 145 363 l 0
 145 481 280 477 280 581 c 0
 280 620 239 657 202 657 c 0
 162 657 126 624 126 567 c 0
 126 558 l 0
 12 558 l 0
 12 567 l 0
 12 665 87 773 202 773 c 0
 319 773 393 674 393 581 c 0
EndSplineSet
Comment: "GDL_order: 0+AAoA-mark: 80+AAoA"
EndChar

StartChar: at
Encoding: 35 64 35
Width: 927
VWidth: 0
GlyphClass: 2
Flags: HW
LayerCount: 2
Back
Fore
SplineSet
891 273 m 0
 891 154 833 3 699 3 c 0
 638 3 595 27 570 75 c 0
 533 30 490 7 441 7 c 0
 323 7 247 117 247 223 c 0
 247 338 312 450 433 450 c 0
 477 450 516 430 550 391 c 0
 550 436 l 0
 672 436 l 0
 672 142 l 0
 672 111 690 96 709 96 c 0
 744 96 769 158 769 238 c 0
 769 425 660 553 477 553 c 0
 284 553 159 392 159 213 c 0
 159 48 308 -84 456 -84 c 0
 555 -84 629 -75 678 -56 c 0
 678 -174 l 0
 594 -184 533 -189 496 -189 c 0
 239 -189 36 -30 36 226 c 0
 36 483 244 655 483 655 c 0
 712 655 891 498 891 273 c 0
550 235 m 0
 550 316 521 357 462 357 c 0
 397 357 372 277 372 226 c 0
 372 171 396 100 459 100 c 0
 529 100 550 181 550 235 c 0
EndSplineSet
Comment: "mark: 1+AAoA"
EndChar

StartChar: A
Encoding: 36 65 36
Width: 633
VWidth: 0
GlyphClass: 2
Flags: HW
LayerCount: 2
Back
Fore
SplineSet
624 0 m 0
 493 0 l 0
 441 138 l 0
 187 138 l 0
 138 0 l 0
 9 0 l 0
 250 643 l 0
 382 643 l 0
 624 0 l 0
403 238 m 0
 316 499 l 0
 225 238 l 0
 403 238 l 0
EndSplineSet
Comment: "mark: 1+AAoA"
EndChar

StartChar: B
Encoding: 37 66 37
Width: 600
VWidth: 0
GlyphClass: 2
Flags: HW
LayerCount: 2
Back
Fore
SplineSet
552 166 m 0
 552 58 426 0 336 0 c 0
 63 0 l 0
 63 643 l 0
 327 643 l 0
 428 643 520 591 520 486 c 0
 520 401 461 363 393 333 c 0
 486 305 552 266 552 166 c 0
388 460 m 0
 388 515 336 541 289 541 c 0
 195 541 l 0
 195 382 l 0
 280 382 l 0
 333 382 388 410 388 460 c 0
415 192 m 0
 415 260 349 282 289 282 c 0
 195 282 l 0
 195 102 l 0
 289 102 l 0
 358 102 415 126 415 192 c 0
EndSplineSet
Comment: "mark: 1+AAoA"
EndChar

StartChar: C
Encoding: 38 67 38
Width: 648
VWidth: 0
GlyphClass: 2
Flags: HW
LayerCount: 2
Back
Fore
SplineSet
600 216 m 0
 585 75 457 -12 330 -12 c 0
 130 -12 48 149 48 322 c 0
 48 504 143 655 330 655 c 0
 492 655 579 583 592 439 c 0
 463 439 l 0
 452 514 411 553 330 553 c 0
 220 553 183 462 183 322 c 0
 183 178 220 88 330 88 c 0
 410 88 443 148 456 216 c 0
 600 216 l 0
EndSplineSet
Comment: "mark: 1+AAoA"
EndChar

StartChar: D
Encoding: 39 68 39
Width: 649
VWidth: 0
GlyphClass: 2
Flags: HW
LayerCount: 2
Back
Fore
SplineSet
600 322 m 0
 600 109 453 0 258 0 c 0
 63 0 l 0
 63 643 l 0
 258 643 l 0
 463 643 600 524 600 322 c 0
468 322 m 0
 468 468 398 541 258 541 c 0
 195 541 l 0
 195 102 l 0
 258 102 l 0
 398 102 468 175 468 322 c 0
EndSplineSet
Comment: "mark: 1+AAoA"
EndChar

StartChar: E
Encoding: 40 69 40
Width: 558
VWidth: 0
GlyphClass: 2
Flags: HW
LayerCount: 2
Back
Fore
SplineSet
496 0 m 0
 63 0 l 0
 63 643 l 0
 487 643 l 0
 487 541 l 0
 190 541 l 0
 190 382 l 0
 469 382 l 0
 469 285 l 0
 190 285 l 0
 190 102 l 0
 496 102 l 0
 496 0 l 0
EndSplineSet
Comment: "mark: 1+AAoA"
EndChar

StartChar: F
Encoding: 41 70 41
Width: 520
VWidth: 0
GlyphClass: 2
Flags: HW
LayerCount: 2
Back
Fore
SplineSet
453 280 m 0
 195 280 l 0
 195 0 l 0
 63 0 l 0
 63 643 l 0
 471 643 l 0
 471 541 l 0
 195 541 l 0
 195 382 l 0
 453 382 l 0
 453 280 l 0
EndSplineSet
Comment: "mark: 1+AAoA"
EndChar

StartChar: G
Encoding: 42 71 42
Width: 691
VWidth: 0
GlyphClass: 2
Flags: HW
LayerCount: 2
Back
Fore
SplineSet
628 28 m 0
 530 1 453 -12 397 -12 c 0
 188 -12 48 111 48 315 c 0
 48 510 187 655 375 655 c 0
 539 655 636 581 636 441 c 0
 502 441 l 0
 499 520 440 553 370 553 c 0
 231 553 183 427 183 312 c 0
 183 178 264 90 394 90 c 0
 413 90 446 94 493 103 c 0
 493 235 l 0
 378 235 l 0
 378 342 l 0
 628 342 l 0
 628 28 l 0
EndSplineSet
Comment: "mark: 1+AAoA"
EndChar

StartChar: H
Encoding: 43 72 43
Width: 637
VWidth: 0
GlyphClass: 2
Flags: HW
LayerCount: 2
Back
Fore
SplineSet
574 0 m 0
 445 0 l 0
 445 285 l 0
 192 285 l 0
 192 0 l 0
 63 0 l 0
 63 643 l 0
 192 643 l 0
 192 387 l 0
 445 387 l 0
 445 643 l 0
 574 643 l 0
 574 0 l 0
EndSplineSet
Comment: "mark: 1+AAoA"
EndChar

StartChar: I
Encoding: 44 73 44
Width: 258
VWidth: 0
GlyphClass: 2
Flags: HW
LayerCount: 2
Back
Fore
SplineSet
195 0 m 0
 63 0 l 0
 63 643 l 0
 195 643 l 0
 195 0 l 0
EndSplineSet
Comment: "mark: 1+AAoA"
EndChar

StartChar: J
Encoding: 45 74 45
Width: 558
VWidth: 0
GlyphClass: 2
Flags: HW
LayerCount: 2
Back
Fore
SplineSet
496 190 m 0
 496 63 382 -12 268 -12 c 0
 106 -12 48 62 48 202 c 0
 183 202 l 0
 183 127 210 90 264 90 c 0
 336 90 363 122 363 198 c 0
 363 645 l 0
 496 645 l 0
 496 190 l 0
EndSplineSet
Comment: "mark: 1+AAoA"
EndChar

StartChar: K
Encoding: 46 75 46
Width: 619
VWidth: 0
GlyphClass: 2
Flags: HW
LayerCount: 2
Back
Fore
SplineSet
588 0 m 0
 427 0 l 0
 195 322 l 0
 195 0 l 0
 63 0 l 0
 63 643 l 0
 195 643 l 0
 195 367 l 0
 409 643 l 0
 561 643 l 0
 334 355 l 0
 588 0 l 0
EndSplineSet
Comment: "mark: 1+AAoA"
EndChar

StartChar: L
Encoding: 47 76 47
Width: 508
VWidth: 0
GlyphClass: 2
Flags: HW
LayerCount: 2
Back
Fore
SplineSet
486 0 m 0
 63 0 l 0
 63 643 l 0
 195 643 l 0
 195 102 l 0
 486 102 l 0
 486 0 l 0
EndSplineSet
Comment: "mark: 1+AAoA"
EndChar

StartChar: M
Encoding: 48 77 48
Width: 828
VWidth: 0
GlyphClass: 2
Flags: HW
LayerCount: 2
Back
Fore
SplineSet
766 0 m 0
 640 0 l 0
 640 534 l 0
 478 0 l 0
 349 0 l 0
 187 534 l 0
 187 0 l 0
 63 0 l 0
 63 643 l 0
 276 643 l 0
 414 178 l 0
 552 646 l 0
 766 646 l 0
 766 0 l 0
EndSplineSet
Comment: "mark: 1+AAoA"
EndChar

StartChar: N
Encoding: 49 78 49
Width: 684
VWidth: 0
GlyphClass: 2
Flags: HW
LayerCount: 2
Back
Fore
SplineSet
622 0 m 0
 435 0 l 0
 187 514 l 0
 187 0 l 0
 63 0 l 0
 63 643 l 0
 249 643 l 0
 496 129 l 0
 496 643 l 0
 622 643 l 0
 622 0 l 0
EndSplineSet
Comment: "mark: 1+AAoA"
EndChar

StartChar: O
Encoding: 50 79 50
Width: 708
VWidth: 0
GlyphClass: 2
Flags: HW
LayerCount: 2
Back
Fore
SplineSet
658 322 m 0
 658 128 549 -12 354 -12 c 0
 148 -12 48 138 48 322 c 0
 48 516 159 655 354 655 c 0
 558 655 658 504 658 322 c 0
523 322 m 0
 523 476 467 553 354 553 c 0
 241 553 184 476 184 322 c 0
 184 167 241 90 354 90 c 0
 467 90 523 167 523 322 c 0
EndSplineSet
Comment: "mark: 1+AAoA"
EndChar

StartChar: P
Encoding: 51 80 51
Width: 585
VWidth: 0
GlyphClass: 2
Flags: HW
LayerCount: 2
Back
Fore
SplineSet
535 442 m 0
 535 299 413 244 291 244 c 0
 195 244 l 0
 195 0 l 0
 63 0 l 0
 63 643 l 0
 291 643 l 0
 423 643 535 580 535 442 c 0
402 442 m 0
 402 516 346 541 258 541 c 0
 195 541 l 0
 195 346 l 0
 258 346 l 0
 340 346 402 368 402 442 c 0
EndSplineSet
Comment: "mark: 1+AAoA"
EndChar

StartChar: Q
Encoding: 52 81 52
Width: 744
VWidth: 0
GlyphClass: 2
Flags: HW
LayerCount: 2
Back
Fore
SplineSet
712 0 m 0
 481 0 l 0
 412 -8 370 -12 354 -12 c 0
 148 -12 48 138 48 322 c 0
 48 516 159 655 354 655 c 0
 558 655 658 504 658 322 c 0
 658 235 633 163 583 105 c 0
 712 105 l 0
 712 0 l 0
523 322 m 0
 523 476 467 553 354 553 c 0
 241 553 184 476 184 322 c 0
 184 167 241 90 354 90 c 0
 467 90 523 167 523 322 c 0
EndSplineSet
Comment: "mark: 1+AAoA"
EndChar

StartChar: R
Encoding: 53 82 53
Width: 607
VWidth: 0
GlyphClass: 2
Flags: HW
LayerCount: 2
Back
Fore
SplineSet
574 0 m 0
 438 0 l 0
 421 53 419 104 412 154 c 0
 403 220 375 262 312 262 c 0
 195 262 l 0
 195 0 l 0
 63 0 l 0
 63 643 l 0
 312 643 l 0
 477 643 559 586 559 471 c 0
 559 389 486 344 423 319 c 0
 466 309 504 296 520 257 c 0
 545 197 550 42 574 0 c 0
426 450 m 0
 426 510 363 541 312 541 c 0
 195 541 l 0
 195 364 l 0
 303 364 l 0
 353 364 426 396 426 450 c 0
EndSplineSet
Comment: "mark: 1+AAoA"
EndChar

StartChar: S
Encoding: 54 83 54
Width: 607
VWidth: 0
GlyphClass: 2
Flags: HW
LayerCount: 2
Back
Fore
SplineSet
559 187 m 0
 559 53 418 -12 306 -12 c 0
 170 -12 48 59 48 202 c 0
 183 202 l 0
 186 120 234 90 309 90 c 0
 363 90 430 117 430 175 c 0
 430 309 67 238 67 456 c 0
 67 585 199 655 309 655 c 0
 435 655 541 594 541 463 c 0
 406 463 l 0
 406 521 363 558 309 558 c 0
 259 558 195 526 195 471 c 0
 195 343 559 408 559 187 c 0
EndSplineSet
Comment: "mark: 1+AAoA"
EndChar

StartChar: T
Encoding: 55 84 55
Width: 567
VWidth: 0
GlyphClass: 2
Flags: HW
LayerCount: 2
Back
Fore
SplineSet
540 541 m 0
 349 541 l 0
 349 0 l 0
 216 0 l 0
 216 541 l 0
 27 541 l 0
 27 643 l 0
 540 643 l 0
 540 541 l 0
EndSplineSet
Comment: "mark: 1+AAoA"
EndChar

StartChar: U
Encoding: 56 85 56
Width: 673
VWidth: 0
GlyphClass: 2
Flags: HW
LayerCount: 2
Back
Fore
SplineSet
612 265 m 0
 612 92 493 -12 330 -12 c 0
 156 -12 63 103 63 265 c 0
 63 643 l 0
 195 643 l 0
 195 265 l 0
 195 148 241 90 334 90 c 0
 430 90 478 148 478 265 c 0
 478 643 l 0
 612 643 l 0
 612 265 l 0
EndSplineSet
Comment: "mark: 1+AAoA"
EndChar

StartChar: V
Encoding: 57 86 57
Width: 657
VWidth: 0
GlyphClass: 2
Flags: HW
LayerCount: 2
Back
Fore
SplineSet
648 643 m 0
 403 0 l 0
 246 0 l 0
 9 643 l 0
 151 643 l 0
 328 148 l 0
 507 643 l 0
 648 643 l 0
EndSplineSet
Comment: "mark: 1+AAoA"
EndChar

StartChar: W
Encoding: 58 87 58
Width: 891
VWidth: 0
GlyphClass: 2
Flags: HW
LayerCount: 2
Back
Fore
SplineSet
882 643 m 0
 721 0 l 0
 570 0 l 0
 445 481 l 0
 321 0 l 0
 169 0 l 0
 9 643 l 0
 151 643 l 0
 249 160 l 0
 375 643 l 0
 516 643 l 0
 640 160 l 0
 739 643 l 0
 882 643 l 0
EndSplineSet
Comment: "mark: 1+AAoA"
EndChar

StartChar: X
Encoding: 59 88 59
Width: 618
VWidth: 0
GlyphClass: 2
Flags: HW
LayerCount: 2
Back
Fore
SplineSet
607 0 m 0
 456 0 l 0
 297 244 l 0
 142 0 l 0
 9 0 l 0
 232 334 l 0
 28 643 l 0
 178 643 l 0
 316 426 l 0
 453 643 l 0
 591 643 l 0
 381 334 l 0
 607 0 l 0
EndSplineSet
Comment: "mark: 1+AAoA"
EndChar

StartChar: Y
Encoding: 60 89 60
Width: 583
VWidth: 0
GlyphClass: 2
Flags: HW
LayerCount: 2
Back
Fore
SplineSet
573 643 m 0
 358 243 l 0
 358 0 l 0
 225 0 l 0
 225 243 l 0
 9 643 l 0
 156 643 l 0
 291 373 l 0
 426 643 l 0
 573 643 l 0
EndSplineSet
Comment: "mark: 1+AAoA"
EndChar

StartChar: Z
Encoding: 61 90 61
Width: 564
VWidth: 0
GlyphClass: 2
Flags: HW
LayerCount: 2
Back
Fore
SplineSet
523 0 m 0
 40 0 l 0
 40 111 l 0
 363 541 l 0
 60 541 l 0
 60 643 l 0
 517 643 l 0
 517 531 l 0
 193 102 l 0
 523 102 l 0
 523 0 l 0
EndSplineSet
Comment: "mark: 1+AAoA"
EndChar

StartChar: bracketleft
Encoding: 62 91 62
Width: 348
VWidth: 0
GlyphClass: 2
Flags: HW
LayerCount: 2
Back
Fore
SplineSet
274 -177 m 0
 73 -177 l 0
 73 643 l 0
 274 643 l 0
 274 562 l 0
 181 562 l 0
 181 -96 l 0
 274 -96 l 0
 274 -177 l 0
EndSplineSet
Comment: "mark: 1+AAoA"
EndChar

StartChar: backslash
Encoding: 63 92 63
Width: 558
VWidth: 0
GlyphClass: 2
Flags: HW
LayerCount: 2
Back
Fore
SplineSet
502 -186 m 0
 414 -275 l 0
 55 747 l 0
 145 831 l 0
 502 -186 l 0
EndSplineSet
Comment: "GDL_order: 0+AAoA-mark: 80+AAoA"
EndChar

StartChar: bracketright
Encoding: 64 93 64
Width: 348
VWidth: 0
GlyphClass: 2
Flags: HW
LayerCount: 2
Back
Fore
SplineSet
274 -177 m 0
 73 -177 l 0
 73 -96 l 0
 168 -96 l 0
 168 562 l 0
 73 562 l 0
 73 643 l 0
 274 643 l 0
 274 -177 l 0
EndSplineSet
Comment: "mark: 1+AAoA"
EndChar

StartChar: asciicircum
Encoding: 65 94 65
Width: 577
VWidth: 0
GlyphClass: 4
Flags: HW
AnchorPoint: "U" 291 465 mark 0
AnchorPoint: "UM" 226 495 basemark 0
LayerCount: 2
Back
Fore
SplineSet
522 609 m 0
 460 547 l 0
 289 718 l 0
 117 547 l 0
 55 609 l 0
 289 843 l 0
 522 609 l 0
EndSplineSet
Comment: "GDL_order: 0+AAoA-mark: 80+AAoA"
EndChar

StartChar: underscore
Encoding: 66 95 66
Width: 577
VWidth: 0
GlyphClass: 4
Flags: HW
LayerCount: 2
Back
Fore
SplineSet
577 -200 m 0
 0 -200 l 0
 0 -86 l 0
 577 -86 l 0
 577 -200 l 0
EndSplineSet
Comment: "GDL_order: 0+AAoA-mark: 80+AAoA"
EndChar

StartChar: grave
Encoding: 67 96 67
Width: 225
VWidth: 0
GlyphClass: 4
Flags: HW
LayerCount: 2
Back
Fore
SplineSet
175 534 m 0
 112 534 l 0
 -23 694 l 0
 94 694 l 0
 175 534 l 0
EndSplineSet
Comment: "mark: 1+AAoA"
EndChar

StartChar: a
Encoding: 68 97 68
Width: 490
VWidth: 0
GlyphClass: 4
Flags: HW
LayerCount: 2
Back
Fore
SplineSet
450 0 m 0
 340 0 l 0
 337 11 330 39 328 52 c 0
 273 3 246 -12 193 -12 c 0
 107 -12 40 41 40 124 c 0
 40 250 151 291 252 291 c 0
 318 291 l 0
 317 350 309 387 246 387 c 0
 192 387 185 365 177 322 c 0
 58 322 l 0
 58 401 130 457 249 457 c 0
 317 457 404 436 426 367 c 0
 433 345 436 309 436 259 c 0
 436 160 l 0
 436 96 441 35 450 0 c 0
318 222 m 0
 306 223 292 223 276 223 c 0
 200 223 162 193 162 132 c 0
 162 97 192 67 231 67 c 0
 308 67 318 141 318 222 c 0
EndSplineSet
Comment: "mark: 1+AAoA"
EndChar

StartChar: b
Encoding: 69 98 69
Width: 546
VWidth: 0
GlyphClass: 4
Flags: HW
LayerCount: 2
Back
Fore
SplineSet
507 216 m 0
 507 81 426 -12 301 -12 c 0
 246 -12 201 12 178 51 c 0
 178 0 l 0
 58 0 l 0
 58 643 l 0
 178 643 l 0
 178 405 l 0
 206 435 246 457 309 457 c 0
 466 457 507 318 507 216 c 0
387 216 m 0
 387 282 361 382 276 382 c 0
 210 382 177 328 177 220 c 0
 177 160 202 67 280 67 c 0
 358 67 386 147 387 216 c 0
EndSplineSet
Comment: "mark: 1+AAoA"
EndChar

StartChar: c
Encoding: 70 99 70
Width: 460
VWidth: 0
GlyphClass: 4
Flags: HW
LayerCount: 2
Back
Fore
SplineSet
421 163 m 0
 421 46 360 -12 237 -12 c 0
 106 -12 40 64 40 217 c 0
 40 373 113 457 237 457 c 0
 360 457 421 401 421 289 c 0
 303 289 l 0
 298 351 278 382 243 382 c 0
 179 382 154 346 154 220 c 0
 154 105 171 63 232 63 c 0
 289 63 300 111 301 163 c 0
 421 163 l 0
EndSplineSet
Comment: "mark: 1+AAoA"
EndChar

StartChar: d
Encoding: 71 100 71
Width: 546
VWidth: 0
GlyphClass: 4
Flags: HW
LayerCount: 2
Back
Fore
SplineSet
487 0 m 0
 367 0 l 0
 367 61 l 0
 328 12 288 -12 246 -12 c 0
 109 -12 40 94 40 216 c 0
 40 368 117 457 237 457 c 0
 294 457 331 444 367 405 c 0
 367 643 l 0
 487 643 l 0
 487 0 l 0
369 220 m 0
 369 328 336 382 270 382 c 0
 184 382 159 282 159 216 c 0
 159 148 189 67 265 67 c 0
 342 67 369 160 369 220 c 0
EndSplineSet
Comment: "mark: 1+AAoA"
EndChar

StartChar: e
Encoding: 72 101 72
Width: 492
VWidth: 0
GlyphClass: 4
Flags: HW
LayerCount: 2
Back
Fore
SplineSet
444 138 m 0
 434 38 368 -12 246 -12 c 0
 93 -12 40 91 40 220 c 0
 40 358 111 457 253 457 c 0
 398 457 453 348 453 232 c 0
 453 220 452 209 451 198 c 0
 163 198 l 0
 164 115 176 63 249 63 c 0
 292 63 316 88 322 138 c 0
 444 138 l 0
327 274 m 0
 327 346 300 382 246 382 c 0
 191 382 163 346 163 274 c 0
 327 274 l 0
EndSplineSet
Comment: "mark: 1+AAoA"
EndChar

StartChar: f
Encoding: 73 102 73
Width: 316
VWidth: 0
GlyphClass: 4
Flags: HW
LayerCount: 2
Back
Fore
SplineSet
316 562 m 0
 300 571 283 576 265 576 c 0
 221 576 210 554 210 510 c 0
 210 445 l 0
 303 445 l 0
 303 369 l 0
 210 369 l 0
 210 0 l 0
 88 0 l 0
 88 369 l 0
 9 369 l 0
 9 445 l 0
 88 445 l 0
 88 513 l 0
 88 617 133 655 226 655 c 0
 254 655 284 650 316 639 c 0
 316 562 l 0
EndSplineSet
Comment: "mark: 1+AAoA"
EndChar

StartChar: g
Encoding: 74 103 74
Width: 546
VWidth: 0
GlyphClass: 4
Flags: HW
LayerCount: 2
Back
Fore
SplineSet
487 4 m 0
 487 -113 408 -177 267 -177 c 0
 105 -177 64 -111 64 -47 c 0
 184 -47 l 0
 184 -78 215 -101 268 -101 c 0
 350 -101 367 -62 367 75 c 0
 328 26 288 1 246 1 c 0
 112 1 40 92 40 216 c 0
 40 368 117 457 237 457 c 0
 294 457 330 439 367 405 c 0
 367 445 l 0
 487 445 l 0
 487 4 l 0
369 220 m 0
 369 328 336 382 270 382 c 0
 184 382 159 282 159 216 c 0
 159 146 190 82 265 82 c 0
 340 82 369 159 369 220 c 0
EndSplineSet
Comment: "mark: 1+AAoA"
EndChar

StartChar: h
Encoding: 75 104 75
Width: 531
VWidth: 0
GlyphClass: 4
Flags: HW
LayerCount: 2
Back
Fore
SplineSet
474 0 m 0
 352 0 l 0
 352 267 l 0
 352 346 326 385 273 385 c 0
 211 385 178 309 178 258 c 0
 178 0 l 0
 58 0 l 0
 58 643 l 0
 178 643 l 0
 178 399 l 0
 210 441 255 457 324 457 c 0
 426 457 474 391 474 303 c 0
 474 0 l 0
EndSplineSet
Comment: "mark: 1+AAoA"
EndChar

StartChar: i
Encoding: 76 105 76
Width: 235
VWidth: 0
GlyphClass: 4
Flags: HW
LayerCount: 2
Back
Fore
SplineSet
187 526 m 0
 48 526 l 0
 48 643 l 0
 187 643 l 0
 187 526 l 0
178 0 m 0
 58 0 l 0
 58 445 l 0
 178 445 l 0
 178 0 l 0
EndSplineSet
Comment: "mark: 1+AAoA"
EndChar

StartChar: j
Encoding: 77 106 77
Width: 313
VWidth: 0
GlyphClass: 4
Flags: HW
LayerCount: 2
Back
Fore
SplineSet
264 643 m 0
 264 526 l 0
 126 526 l 0
 126 643 l 0
 264 643 l 0
256 -72 m 0
 256 -143 196 -188 112 -188 c 0
 68 -188 17 -174 -18 -144 c 0
 36 -69 l 0
 52 -83 68 -90 85 -90 c 0
 113 -90 135 -73 135 -45 c 0
 135 445 l 0
 256 445 l 0
 256 -72 l 0
EndSplineSet
Comment: "mark: 1+AAoA"
EndChar

StartChar: k
Encoding: 78 107 78
Width: 490
VWidth: 0
GlyphClass: 4
Flags: HW
LayerCount: 2
Back
Fore
SplineSet
477 0 m 0
 330 0 l 0
 178 232 l 0
 178 0 l 0
 58 0 l 0
 58 643 l 0
 178 643 l 0
 178 268 l 0
 318 445 l 0
 462 445 l 0
 301 253 l 0
 477 0 l 0
EndSplineSet
Comment: "mark: 1+AAoA"
EndChar

StartChar: l
Encoding: 79 108 79
Width: 235
VWidth: 0
GlyphClass: 4
Flags: HW
LayerCount: 2
Back
Fore
SplineSet
178 0 m 0
 58 0 l 0
 58 643 l 0
 178 643 l 0
 178 0 l 0
EndSplineSet
Comment: "mark: 1+AAoA"
EndChar

StartChar: m
Encoding: 80 109 80
Width: 813
VWidth: 0
GlyphClass: 4
Flags: HW
LayerCount: 2
Back
Fore
SplineSet
754 0 m 0
 634 0 l 0
 634 285 l 0
 634 338 602 382 558 382 c 0
 506 382 466 322 466 264 c 0
 466 0 l 0
 346 0 l 0
 346 285 l 0
 346 338 318 382 271 382 c 0
 211 382 178 313 178 258 c 0
 178 0 l 0
 58 0 l 0
 58 445 l 0
 178 445 l 0
 178 383 l 0
 215 437 255 457 318 457 c 0
 384 457 423 439 454 375 c 0
 499 441 534 457 603 457 c 0
 705 457 754 387 754 292 c 0
 754 0 l 0
EndSplineSet
Comment: "mark: 1+AAoA"
EndChar

StartChar: n
Encoding: 81 110 81
Width: 531
VWidth: 0
GlyphClass: 4
Flags: HW
LayerCount: 2
Back
Fore
SplineSet
462 0 m 0
 340 0 l 0
 340 267 l 0
 340 346 314 385 261 385 c 0
 202 385 166 331 166 244 c 0
 166 0 l 0
 46 0 l 0
 46 445 l 0
 166 445 l 0
 166 390 l 0
 202 445 242 457 312 457 c 0
 407 457 462 399 462 303 c 0
 462 0 l 0
EndSplineSet
Comment: "mark: 1+AAoA"
EndChar

StartChar: o
Encoding: 82 111 82
Width: 540
VWidth: 0
GlyphClass: 4
Flags: HW
LayerCount: 2
Back
Fore
SplineSet
499 222 m 0
 499 84 403 -12 270 -12 c 0
 131 -12 40 91 40 222 c 0
 40 359 136 457 270 457 c 0
 410 457 499 353 499 222 c 0
378 222 m 0
 378 328 342 381 270 381 c 0
 199 381 160 323 160 222 c 0
 160 122 199 64 270 64 c 0
 342 64 378 117 378 222 c 0
EndSplineSet
Comment: "mark: 1+AAoA"
EndChar

StartChar: p
Encoding: 83 112 83
Width: 546
VWidth: 0
GlyphClass: 4
Flags: HW
LayerCount: 2
Back
Fore
SplineSet
507 229 m 0
 507 77 429 -12 309 -12 c 0
 249 -12 219 0 178 40 c 0
 178 -177 l 0
 58 -177 l 0
 58 445 l 0
 178 445 l 0
 178 384 l 0
 216 433 257 457 301 457 c 0
 433 457 507 358 507 229 c 0
387 229 m 0
 387 298 357 378 280 378 c 0
 202 378 177 285 177 225 c 0
 177 117 210 63 276 63 c 0
 361 63 387 163 387 229 c 0
EndSplineSet
Comment: "mark: 1+AAoA"
EndChar

StartChar: q
Encoding: 84 113 84
Width: 546
VWidth: 0
GlyphClass: 4
Flags: HW
LayerCount: 2
Back
Fore
SplineSet
487 -177 m 0
 367 -177 l 0
 367 40 l 0
 323 0 297 -12 237 -12 c 0
 117 -12 40 77 40 229 c 0
 40 361 114 457 246 457 c 0
 298 457 338 433 367 384 c 0
 367 445 l 0
 487 445 l 0
 487 -177 l 0
369 225 m 0
 369 290 340 378 265 378 c 0
 186 378 159 292 159 229 c 0
 159 157 187 63 270 63 c 0
 336 63 369 117 369 225 c 0
EndSplineSet
Comment: "mark: 1+AAoA"
EndChar

StartChar: r
Encoding: 85 114 85
Width: 346
VWidth: 0
GlyphClass: 4
Flags: HW
LayerCount: 2
Back
Fore
SplineSet
330 355 m 0
 229 355 178 313 178 228 c 0
 178 0 l 0
 58 0 l 0
 58 445 l 0
 178 445 l 0
 178 376 l 0
 209 436 243 457 330 457 c 0
 330 355 l 0
EndSplineSet
Comment: "mark: 1+AAoA"
EndChar

StartChar: s
Encoding: 86 115 86
Width: 463
VWidth: 0
GlyphClass: 4
Flags: HW
LayerCount: 2
Back
Fore
SplineSet
423 139 m 0
 423 31 323 -12 226 -12 c 0
 120 -12 40 30 40 138 c 0
 160 138 l 0
 162 82 184 63 237 63 c 0
 274 63 307 87 307 123 c 0
 307 217 51 160 51 324 c 0
 51 401 124 457 232 457 c 0
 352 457 412 410 412 315 c 0
 292 315 l 0
 291 363 277 382 226 382 c 0
 190 382 168 357 168 329 c 0
 168 257 423 304 423 139 c 0
EndSplineSet
Comment: "mark: 1+AAoA"
EndChar

StartChar: t
Encoding: 87 116 87
Width: 373
VWidth: 0
GlyphClass: 4
Flags: HW
LayerCount: 2
Back
Fore
SplineSet
351 4 m 0
 322 -6 291 -11 259 -11 c 0
 188 -11 115 33 115 108 c 0
 115 369 l 0
 27 369 l 0
 27 445 l 0
 115 445 l 0
 115 514 l 0
 235 577 l 0
 235 445 l 0
 342 445 l 0
 342 369 l 0
 235 369 l 0
 235 142 l 0
 235 95 259 72 306 72 c 0
 322 72 337 74 351 79 c 0
 351 4 l 0
EndSplineSet
Comment: "mark: 1+AAoA"
EndChar

StartChar: u
Encoding: 88 117 88
Width: 531
VWidth: 0
GlyphClass: 4
Flags: HW
LayerCount: 2
Back
Fore
SplineSet
474 0 m 0
 352 0 l 0
 352 60 l 0
 316 3 280 -12 208 -12 c 0
 113 -12 58 43 58 142 c 0
 58 445 l 0
 178 445 l 0
 178 178 l 0
 178 99 205 60 258 60 c 0
 321 60 352 105 352 196 c 0
 352 445 l 0
 474 445 l 0
 474 0 l 0
EndSplineSet
Comment: "mark: 1+AAoA"
EndChar

StartChar: v
Encoding: 89 118 89
Width: 484
VWidth: 0
GlyphClass: 4
Flags: HW
LayerCount: 2
Back
Fore
SplineSet
475 445 m 0
 309 0 l 0
 175 0 l 0
 9 445 l 0
 138 445 l 0
 243 135 l 0
 346 445 l 0
 475 445 l 0
EndSplineSet
Comment: "mark: 1+AAoA"
EndChar

StartChar: w
Encoding: 90 119 90
Width: 763
VWidth: 0
GlyphClass: 4
Flags: HW
LayerCount: 2
Back
Fore
SplineSet
753 445 m 0
 618 0 l 0
 475 0 l 0
 381 312 l 0
 288 0 l 0
 145 0 l 0
 9 445 l 0
 133 445 l 0
 219 151 l 0
 312 445 l 0
 450 445 l 0
 544 151 l 0
 630 445 l 0
 753 445 l 0
EndSplineSet
Comment: "mark: 1+AAoA"
EndChar

StartChar: x
Encoding: 91 120 91
Width: 487
VWidth: 0
GlyphClass: 4
Flags: HW
LayerCount: 2
Back
Fore
SplineSet
478 0 m 0
 336 0 l 0
 235 159 l 0
 142 0 l 0
 9 0 l 0
 168 238 l 0
 24 445 l 0
 166 445 l 0
 253 313 l 0
 330 445 l 0
 463 445 l 0
 322 238 l 0
 478 0 l 0
EndSplineSet
Comment: "mark: 1+AAoA"
EndChar

StartChar: y
Encoding: 92 121 92
Width: 483
VWidth: 0
GlyphClass: 4
Flags: HW
LayerCount: 2
Back
Fore
SplineSet
475 445 m 0
 277 -105 l 0
 260 -152 203 -182 138 -182 c 0
 83 -182 26 -155 0 -102 c 0
 75 -42 l 0
 86 -70 105 -84 132 -84 c 0
 149 -84 161 -73 169 -51 c 0
 187 0 l 0
 9 445 l 0
 145 445 l 0
 249 160 l 0
 346 445 l 0
 475 445 l 0
EndSplineSet
Comment: "mark: 1+AAoA"
EndChar

StartChar: z
Encoding: 93 122 93
Width: 453
VWidth: 0
GlyphClass: 4
Flags: HW
LayerCount: 2
Back
Fore
SplineSet
412 0 m 0
 40 0 l 0
 40 94 l 0
 276 369 l 0
 45 369 l 0
 45 445 l 0
 400 445 l 0
 400 351 l 0
 165 75 l 0
 412 75 l 0
 412 0 l 0
EndSplineSet
Comment: "mark: 1+AAoA"
EndChar

StartChar: braceleft
Encoding: 94 123 94
Width: 442
VWidth: 0
GlyphClass: 4
Flags: HW
LayerCount: 2
Back
Fore
SplineSet
387 -398 m 0
 181 -398 166 -191 166 69 c 0
 166 141 70 159 70 226 c 0
 70 292 166 312 166 384 c 0
 166 643 181 850 387 850 c 0
 387 738 l 0
 295 738 280 606 280 370 c 0
 280 267 205 236 205 226 c 0
 205 216 280 188 280 81 c 0
 280 -154 295 -287 387 -287 c 0
 387 -398 l 0
EndSplineSet
Comment: "GDL_order: 0+AAoA-mark: 80+AAoA"
EndChar

StartChar: bar
Encoding: 95 124 95
Width: 350
VWidth: 0
GlyphClass: 4
Flags: HW
LayerCount: 2
Back
Fore
SplineSet
229 -230 m 0
 121 -230 l 0
 121 709 l 0
 229 709 l 0
 229 -230 l 0
EndSplineSet
Comment: "mark: 1+AAoA"
EndChar

StartChar: braceright
Encoding: 96 125 96
Width: 441
VWidth: 0
GlyphClass: 4
Flags: HW
LayerCount: 2
Back
Fore
SplineSet
370 226 m 0
 370 160 276 140 276 69 c 0
 276 -191 261 -398 55 -398 c 0
 55 -285 l 0
 147 -285 162 -153 162 82 c 0
 162 186 238 216 238 226 c 0
 238 236 162 265 162 370 c 0
 162 606 147 739 55 739 c 0
 55 850 l 0
 261 850 276 645 276 385 c 0
 276 312 370 293 370 226 c 0
EndSplineSet
Comment: "GDL_order: 0+AAoA-mark: 80+AAoA"
EndChar

StartChar: asciitilde
Encoding: 97 126 97
Width: 576
VWidth: 0
GlyphClass: 4
Flags: HW
LayerCount: 2
Back
Fore
SplineSet
520 231 m 0
 472 186 416 163 369 163 c 0
 283 163 247 219 204 219 c 0
 178 219 138 207 91 157 c 0
 55 253 l 0
 103 306 163 322 204 322 c 0
 300 322 316 267 369 267 c 0
 393 267 430 287 454 310 c 0
 520 231 l 0
EndSplineSet
Comment: "GDL_order: 0+AAoA-mark: 80+AAoA"
EndChar

StartChar: multiply
Encoding: 98 215 98
Width: 547
VWidth: 0
GlyphClass: 4
Flags: HW
LayerCount: 2
Back
Fore
SplineSet
456 124 m 0
 375 43 l 0
 276 144 l 0
 175 43 l 0
 94 123 l 0
 195 225 l 0
 96 324 l 0
 175 405 l 0
 276 304 l 0
 376 406 l 0
 457 325 l 0
 357 225 l 0
 456 124 l 0
EndSplineSet
Comment: "GDL_order: 0+AAoA-mark: 80+AAoA"
EndChar

StartChar: u1000
Encoding: 99 4096 99
Width: 976
VWidth: 0
GlyphClass: 2
Flags: HW
AnchorPoint: "R" 0 0 mark 0
AnchorPoint: "BS" 678 -53 basechar 0
AnchorPoint: "L" 678 -53 basechar 0
AnchorPoint: "BD" 490 -53 basechar 0
AnchorPoint: "U" 678 495 basechar 0
LayerCount: 2
Back
Fore
SplineSet
921 222 m 0
 921 87 811 -23 678 -23 c 0
 670 -23 628 -23 607 -11 c 0
 652 94 l 0
 660 93 667 91 678 91 c 0
 750 91 808 151 808 222 c 0
 808 292 750 352 678 352 c 0
 606 352 544 265 544 207 c 0
 544 112 526 39 454 -23 c 0
 388 70 l 0
 420 112 430 133 430 207 c 0
 430 277 384 352 300 352 c 0
 216 352 169 277 169 207 c 0
 169 133 180 112 211 70 c 0
 145 -23 l 0
 73 39 55 112 55 207 c 0
 55 345 160 466 300 466 c 0
 379 466 447 426 490 367 c 0
 529 421 594 466 678 466 c 0
 811 466 921 355 921 222 c 0
EndSplineSet
Substitution2: "sub_single_cligmymr_2 subtable" u1000.kham
Ligature2: "LigatureSubstitutionlookup169 subtable" u1000 u103C
Ligature2: "LigatureSubstitutionlookup167 subtable" u1000 u103C u1031
Ligature2: "LigatureSubstitutionlookup167 subtable" u1000 u103C.wide u1031
Ligature2: "LigatureSubstitutionlookup167 subtable" u1000 u103C_u103D.narr u1031
Ligature2: "LigatureSubstitutionlookup167 subtable" u1000 u103C_u103D.wide u1031
Ligature2: "LigatureSubstitutionlookup165 subtable" u1000 u103C
Ligature2: "LigatureSubstitutionlookup165 subtable" u1000 u103C_u103D.narr
Ligature2: "LigatureSubstitutionlookup165 subtable" u1000 u103C_u102F.narr
Ligature2: "LigatureSubstitutionlookup163 subtable" u1000 u1031
Ligature2: "LigatureSubstitutionlookup163 subtable" u1000 u1084
Ligature2: "LigatureSubstitutionlookup162 subtable" u1000 u103D
Ligature2: "LigatureSubstitutionlookup162 subtable" u1000 u103E
Ligature2: "LigatureSubstitutionlookup162 subtable" u1000 u103D_u103E
Ligature2: "LigatureSubstitutionlookup162 subtable" u1000
Ligature2: "LigatureSubstitutionlookup162 subtable" u1000 u105F
Ligature2: "LigatureSubstitutionlookup162 subtable" u1000 u1060
Ligature2: "LigatureSubstitutionlookup162 subtable" u1000 u1082
Ligature2: "LigatureSubstitutionlookup158 subtable" u1000 u1039
Ligature2: "LigatureSubstitutionlookup130 subtable" u1004.kinzi u200D u1000
Ligature2: "LigatureSubstitutionlookup130 subtable" u101B.kinzi u200D u1000
Ligature2: "LigatureSubstitutionlookup127 subtable" u1004.kinzi u200D u1000
Ligature2: "LigatureSubstitutionlookup127 subtable" u101B.kinzi u200D u1000
Ligature2: "LigatureSubstitutionlookup124 subtable" u1004.kinzi u200D u1000
Ligature2: "LigatureSubstitutionlookup124 subtable" u101B.kinzi u200D u1000
MultipleSubs2: "MultipleSubstitutionlookup139 subtable" u200C u1031 u1000
MultipleSubs2: "MultipleSubstitutionlookup137 subtable" u200C u1084 u1000
MultipleSubs2: "MultipleSubstitutionlookup136 subtable" u200C u103C_u103D.wide u1000
MultipleSubs2: "MultipleSubstitutionlookup135 subtable" u200C u103C_u102F.wide u1000
MultipleSubs2: "MultipleSubstitutionlookup134 subtable" u200C u103C.wide u1000
MultipleSubs2: "MultipleSubstitutionlookup129 subtable" u1000 u101B.kinzi
MultipleSubs2: "MultipleSubstitutionlookup128 subtable" u1000 u1004.kinzi
Comment: "GDL_order: 1+AAoA-mark: 80+AAoA"
EndChar

StartChar: u1000.med
Encoding: 100 -1 100
Width: 0
VWidth: 0
GlyphClass: 4
Flags: HW
AnchorPoint: "LLM" -885 -53 basemark 0
AnchorPoint: "BD" -390 -53 mark 0
AnchorPoint: "LM" 107 -53 basemark 0
AnchorPoint: "BDM" -393 -53 basemark 0
AnchorPoint: "BSM" 886 -53 mark 0
AnchorPoint: "BSM" 88 -53 basemark 0
AnchorPoint: "BDM" -393 -53 mark 0
LayerCount: 2
Back
Fore
SplineSet
-55 -282 m 0
 -55 -386 -139 -471 -241 -471 c 0
 -264 -471 -284 -468 -297 -461 c 0
 -262 -381 l 0
 -258 -383 -251 -384 -241 -384 c 0
 -188 -384 -142 -335 -142 -282 c 0
 -142 -229 -188 -180 -241 -180 c 0
 -294 -180 -345 -246 -345 -296 c 0
 -345 -366 -359 -423 -415 -471 c 0
 -466 -398 l 0
 -441 -365 -433 -351 -433 -294 c 0
 -433 -239 -469 -180 -534 -180 c 0
 -598 -180 -634 -239 -634 -294 c 0
 -634 -350 -628 -366 -601 -398 c 0
 -652 -471 l 0
 -708 -423 -723 -366 -723 -294 c 0
 -723 -186 -641 -93 -534 -93 c 0
 -474 -93 -422 -123 -387 -170 c 0
 -356 -127 -308 -93 -241 -93 c 0
 -139 -93 -55 -180 -55 -282 c 0
EndSplineSet
Ligature2: "LigatureSubstitutionlookup179 subtable" u1000.med u102D
Ligature2: "LigatureSubstitutionlookup179 subtable" u1000.med u102E
Ligature2: "LigatureSubstitutionlookup179 subtable" u1000.med u1032
Ligature2: "LigatureSubstitutionlookup179 subtable" u1000.med u103A
Ligature2: "LigatureSubstitutionlookup171 subtable" u1000.med u103C u1031
Ligature2: "LigatureSubstitutionlookup159 subtable" u1000.med u1031
Ligature2: "LigatureSubstitutionlookup159 subtable" u1000.med u103C
Ligature2: "sub_ligature_cligmymr_0 subtable" u1039 u1000
MultipleSubs2: "MultipleSubstitutionlookup138 subtable" u1039 u1000.med
Comment: "GDL_order: 2+AAoA-mark: 80+AAoA"
EndChar

StartChar: u1000_u1001_u103B
Encoding: 101 -1 101
Width: 1158
VWidth: 0
GlyphClass: 2
Flags: HW
AnchorPoint: "R" 0 0 mark 0
AnchorPoint: "BS" 1264 -53 basechar 0
AnchorPoint: "LL" 342 -53 basechar 0
AnchorPoint: "L" 1264 -53 basechar 0
AnchorPoint: "U" 867 495 basechar 0
AnchorPoint: "BD" 1236 -53 basechar 0
LayerCount: 2
Back
Fore
SplineSet
1102 -471 m 0
 822 -401 l 0
 790 -434 745 -455 691 -455 c 0
 619 -455 504 -401 504 -302 c 0
 564 -248 621 -240 652 -240 c 0
 688 -240 747 -255 786 -296 c 0
 789 -287 790 -276 790 -267 c 0
 790 -248 774 -167 691 -167 c 0
 661 -167 628 -173 595 -219 c 0
 519 -179 l 0
 564 -90 658 -78 691 -78 c 0
 811 -78 877 -182 877 -267 c 0
 877 -276 876 -285 874 -296 c 0
 988 -324 l 0
 988 444 l 0
 1102 444 l 0
 1102 -471 l 0
922 222 m 0
 922 87 811 -23 678 -23 c 0
 670 -23 628 -23 607 -11 c 0
 652 94 l 0
 660 93 667 91 678 91 c 0
 750 91 808 151 808 222 c 0
 808 292 750 352 678 352 c 0
 606 352 544 265 544 207 c 0
 544 112 526 39 454 -23 c 0
 388 70 l 0
 420 112 430 133 430 207 c 0
 430 277 384 352 300 352 c 0
 216 352 171 277 171 207 c 0
 171 133 180 112 211 70 c 0
 145 -23 l 0
 73 39 55 112 55 207 c 0
 55 345 160 466 300 466 c 0
 378 466 447 427 490 367 c 0
 529 421 594 466 678 466 c 0
 811 466 922 355 922 222 c 0
652 -311 m 0
 637 -311 621 -312 600 -318 c 0
 631 -357 669 -366 691 -366 c 0
 711 -366 727 -362 741 -353 c 0
 721 -329 688 -311 652 -311 c 0
EndSplineSet
Ligature2: "sub_ligature_cligmymr_4 subtable" u1000 u1001.med u103B
Comment: "GDL_order: 1+AAoA-mark: 80+AAoA"
EndChar

StartChar: u1000_u103B_u1015_u103A
Encoding: 102 -1 102
Width: 1776
VWidth: 0
GlyphClass: 2
Flags: HW
AnchorPoint: "R" 0 0 mark 0
LayerCount: 2
Back
Fore
SplineSet
1132 -471 m 0
 741 -372 l 0
 741 -15 l 0
 720 -20 700 -23 678 -23 c 0
 660 -23 624 -21 607 -11 c 0
 652 94 l 0
 660 92 667 91 678 91 c 0
 750 91 808 151 808 222 c 0
 808 292 750 352 678 352 c 0
 606 352 544 265 544 207 c 0
 544 112 526 39 454 -23 c 0
 388 70 l 0
 420 112 430 133 430 207 c 0
 430 277 384 352 300 352 c 0
 216 352 171 277 171 207 c 0
 171 133 180 112 211 70 c 0
 145 -23 l 0
 73 39 54 112 54 207 c 0
 54 345 160 466 300 466 c 0
 379 466 447 426 490 367 c 0
 529 421 594 466 678 466 c 0
 811 466 922 355 922 222 c 0
 922 156 895 97 853 52 c 0
 853 -282 l 0
 1020 -324 l 0
 1020 444 l 0
 1132 444 l 0
 1132 -471 l 0
1720 237 m 0
 1720 99 1615 -23 1476 -23 c 0
 1336 -23 1231 99 1231 237 c 0
 1231 331 1249 403 1321 466 c 0
 1387 373 l 0
 1356 331 1345 310 1345 237 c 0
 1345 166 1392 91 1476 91 c 0
 1560 91 1606 166 1606 237 c 0
 1606 310 1596 331 1564 373 c 0
 1630 466 l 0
 1702 403 1720 331 1720 237 c 0
1702 844 m 0
 1641 793 l 0
 1630 808 1606 838 1569 838 c 0
 1525 838 1462 807 1462 736 c 0
 1462 664 1534 627 1566 627 c 0
 1566 541 l 0
 1473 541 1375 627 1375 736 c 0
 1375 853 1471 925 1569 925 c 0
 1606 925 1666 906 1702 844 c 0
EndSplineSet
Comment: "GDL_order: 1+AAoA-mark: 80+AAoA"
EndChar

StartChar: u1001
Encoding: 103 4097 103
Width: 600
VWidth: 0
GlyphClass: 2
Flags: HW
AnchorPoint: "R" 0 0 mark 0
AnchorPoint: "BS" 301 -53 basechar 0
AnchorPoint: "L" 301 -53 basechar 0
AnchorPoint: "U" 301 495 basechar 0
AnchorPoint: "BD" 283 -53 basechar 0
LayerCount: 2
Back
Fore
SplineSet
546 222 m 0
 546 94 449 -23 301 -23 c 0
 206 -23 57 52 57 186 c 0
 137 243 210 256 250 256 c 0
 298 256 374 236 426 183 c 0
 430 194 432 207 432 222 c 0
 432 245 409 352 301 352 c 0
 255 352 213 332 178 283 c 0
 79 336 l 0
 127 421 212 466 301 466 c 0
 460 466 546 329 546 222 c 0
367 108 m 0
 342 140 298 163 250 163 c 0
 230 163 208 160 183 153 c 0
 224 102 273 91 301 91 c 0
 326 91 348 97 367 108 c 0
EndSplineSet
Ligature2: "LigatureSubstitutionlookup169 subtable" u1001 u103C
Ligature2: "LigatureSubstitutionlookup167 subtable" u1001 u103C u1031
Ligature2: "LigatureSubstitutionlookup167 subtable" u1001 u103C.wide u1031
Ligature2: "LigatureSubstitutionlookup167 subtable" u1001 u103C_u103D.narr u1031
Ligature2: "LigatureSubstitutionlookup167 subtable" u1001 u103C_u103D.wide u1031
Ligature2: "LigatureSubstitutionlookup165 subtable" u1001 u103C
Ligature2: "LigatureSubstitutionlookup165 subtable" u1001 u103C_u103D.narr
Ligature2: "LigatureSubstitutionlookup165 subtable" u1001 u103C_u102F.narr
Ligature2: "LigatureSubstitutionlookup163 subtable" u1001 u1031
Ligature2: "LigatureSubstitutionlookup163 subtable" u1001 u1084
Ligature2: "LigatureSubstitutionlookup162 subtable" u1001 u103D
Ligature2: "LigatureSubstitutionlookup162 subtable" u1001 u103E
Ligature2: "LigatureSubstitutionlookup162 subtable" u1001 u103D_u103E
Ligature2: "LigatureSubstitutionlookup162 subtable" u1001
Ligature2: "LigatureSubstitutionlookup162 subtable" u1001 u105F
Ligature2: "LigatureSubstitutionlookup162 subtable" u1001 u1060
Ligature2: "LigatureSubstitutionlookup162 subtable" u1001 u1082
Ligature2: "LigatureSubstitutionlookup158 subtable" u1001 u1039
Ligature2: "LigatureSubstitutionlookup130 subtable" u1004.kinzi u200D u1001
Ligature2: "LigatureSubstitutionlookup130 subtable" u101B.kinzi u200D u1001
Ligature2: "LigatureSubstitutionlookup127 subtable" u1004.kinzi u200D u1001
Ligature2: "LigatureSubstitutionlookup127 subtable" u101B.kinzi u200D u1001
Ligature2: "LigatureSubstitutionlookup124 subtable" u1004.kinzi u200D u1001
Ligature2: "LigatureSubstitutionlookup124 subtable" u101B.kinzi u200D u1001
MultipleSubs2: "MultipleSubstitutionlookup139 subtable" u200C u1031 u1001
MultipleSubs2: "MultipleSubstitutionlookup137 subtable" u200C u1084 u1001
MultipleSubs2: "MultipleSubstitutionlookup136 subtable" u200C u103C_u103D.narr u1001
MultipleSubs2: "MultipleSubstitutionlookup135 subtable" u200C u103C_u102F.narr u1001
MultipleSubs2: "MultipleSubstitutionlookup134 subtable" u200C u103C u1001
MultipleSubs2: "MultipleSubstitutionlookup129 subtable" u1001 u101B.kinzi
MultipleSubs2: "MultipleSubstitutionlookup128 subtable" u1001 u1004.kinzi
PairPos2: "PairwisePositioningkerninglooku subtable" uAA60.med.kham dx=-90 dy=0 dh=0 dv=0 dx=0 dy=0 dh=90 dv=0
PairPos2: "PairwisePositioningkerninglooku subtable" uAA60.med dx=-90 dy=0 dh=0 dv=0 dx=0 dy=0 dh=90 dv=0
PairPos2: "PairwisePositioningkerninglooku subtable" u1021.med dx=-90 dy=0 dh=0 dv=0 dx=0 dy=0 dh=90 dv=0
PairPos2: "PairwisePositioningkerninglooku subtable" u101E.med dx=-90 dy=0 dh=0 dv=0 dx=0 dy=0 dh=90 dv=0
PairPos2: "PairwisePositioningkerninglooku subtable" u101C.med dx=-90 dy=0 dh=0 dv=0 dx=0 dy=0 dh=90 dv=0
PairPos2: "PairwisePositioningkerninglooku subtable" u101A.med dx=-90 dy=0 dh=0 dv=0 dx=0 dy=0 dh=90 dv=0
PairPos2: "PairwisePositioningkerninglooku subtable" u1018.med dx=-90 dy=0 dh=0 dv=0 dx=0 dy=0 dh=90 dv=0
PairPos2: "PairwisePositioningkerninglooku subtable" u1011.med dx=-90 dy=0 dh=0 dv=0 dx=0 dy=0 dh=90 dv=0
PairPos2: "PairwisePositioningkerninglooku subtable" u1010.med dx=-90 dy=0 dh=0 dv=0 dx=0 dy=0 dh=90 dv=0
PairPos2: "PairwisePositioningkerninglooku subtable" u100F.med dx=-90 dy=0 dh=0 dv=0 dx=0 dy=0 dh=90 dv=0
PairPos2: "PairwisePositioningkerninglooku subtable" u100C.med dx=-90 dy=0 dh=0 dv=0 dx=0 dy=0 dh=90 dv=0
PairPos2: "PairwisePositioningkerninglooku subtable" u100A.med dx=-90 dy=0 dh=0 dv=0 dx=0 dy=0 dh=90 dv=0
PairPos2: "PairwisePositioningkerninglooku subtable" u1006.med dx=-90 dy=0 dh=0 dv=0 dx=0 dy=0 dh=90 dv=0
PairPos2: "PairwisePositioningkerninglooku subtable" u1003.med dx=-90 dy=0 dh=0 dv=0 dx=0 dy=0 dh=90 dv=0
PairPos2: "PairwisePositioningkerninglooku subtable" u1000.med dx=-90 dy=0 dh=0 dv=0 dx=0 dy=0 dh=90 dv=0
Position2: "SinglePositioninglookup48 per glyph data 0" dx=100 dy=0 dh=50 dv=0
Position2: "SinglePositioninglookup30 subtable" dx=140 dy=0 dh=140 dv=0
Comment: "GDL_order: 1+AAoA-mark: 80+AAoA"
EndChar

StartChar: u1001.med
Encoding: 104 -1 104
Width: 0
VWidth: 0
GlyphClass: 4
Flags: HW
AnchorPoint: "BS" -242 -53 mark 0
AnchorPoint: "LLM" -596 -53 basemark 0
AnchorPoint: "BSM" -242 -53 mark 0
AnchorPoint: "LM" 106 -53 basemark 0
AnchorPoint: "BS" -237 -53 basemark 0
AnchorPoint: "BSM" -237 -53 basemark 0
LayerCount: 2
Back
Fore
SplineSet
-56 -282 m 0
 -56 -389 -138 -471 -243 -471 c 0
 -318 -471 -432 -410 -432 -305 c 0
 -371 -262 -315 -255 -284 -255 c 0
 -247 -255 -189 -271 -149 -311 c 0
 -145 -302 -144 -293 -144 -284 c 0
 -144 -235 -181 -180 -243 -180 c 0
 -280 -180 -315 -198 -339 -234 c 0
 -414 -194 l 0
 -379 -125 -310 -93 -243 -93 c 0
 -123 -93 -56 -197 -56 -282 c 0
-194 -369 m 0
 -213 -345 -248 -326 -284 -326 c 0
 -299 -326 -314 -327 -335 -335 c 0
 -303 -374 -264 -384 -243 -384 c 0
 -224 -384 -207 -378 -194 -369 c 0
EndSplineSet
Ligature2: "LigatureSubstitutionlookup179 subtable" u1001.med u102D
Ligature2: "LigatureSubstitutionlookup179 subtable" u1001.med u102E
Ligature2: "LigatureSubstitutionlookup179 subtable" u1001.med u1032
Ligature2: "LigatureSubstitutionlookup179 subtable" u1001.med u103A
Ligature2: "LigatureSubstitutionlookup171 subtable" u1001.med u103C u1031
Ligature2: "LigatureSubstitutionlookup159 subtable" u1001.med u1031
Ligature2: "LigatureSubstitutionlookup159 subtable" u1001.med u103C
Ligature2: "sub_ligature_cligmymr_0 subtable" u1039 u1001
MultipleSubs2: "MultipleSubstitutionlookup138 subtable" u1039 u1001.med
Comment: "GDL_order: 2+AAoA-mark: 80+AAoA"
EndChar

StartChar: u1002
Encoding: 105 4098 105
Width: 600
VWidth: 0
GlyphClass: 2
Flags: HW
AnchorPoint: "R" 0 0 mark 0
AnchorPoint: "BS" 300 -53 basechar 0
AnchorPoint: "L" 300 -53 basechar 0
AnchorPoint: "U" 300 495 basechar 0
AnchorPoint: "BD" 292 -53 basechar 0
LayerCount: 2
Back
Fore
SplineSet
546 207 m 0
 546 112 526 39 454 -23 c 0
 388 70 l 0
 420 112 430 133 430 207 c 0
 430 277 384 352 300 352 c 0
 216 352 169 277 169 207 c 0
 169 133 180 112 211 70 c 0
 145 -23 l 0
 73 39 55 112 55 207 c 0
 55 345 160 466 300 466 c 0
 419 466 546 364 546 207 c 0
EndSplineSet
Substitution2: "sub_single_cligmymr_2 subtable" u1002.kham
Ligature2: "LigatureSubstitutionlookup169 subtable" u1002 u103C
Ligature2: "LigatureSubstitutionlookup167 subtable" u1002 u103C u1031
Ligature2: "LigatureSubstitutionlookup167 subtable" u1002 u103C.wide u1031
Ligature2: "LigatureSubstitutionlookup167 subtable" u1002 u103C_u103D.narr u1031
Ligature2: "LigatureSubstitutionlookup167 subtable" u1002 u103C_u103D.wide u1031
Ligature2: "LigatureSubstitutionlookup165 subtable" u1002 u103C
Ligature2: "LigatureSubstitutionlookup165 subtable" u1002 u103C_u103D.narr
Ligature2: "LigatureSubstitutionlookup165 subtable" u1002 u103C_u102F.narr
Ligature2: "LigatureSubstitutionlookup163 subtable" u1002 u1031
Ligature2: "LigatureSubstitutionlookup163 subtable" u1002 u1084
Ligature2: "LigatureSubstitutionlookup162 subtable" u1002 u103D
Ligature2: "LigatureSubstitutionlookup162 subtable" u1002 u103E
Ligature2: "LigatureSubstitutionlookup162 subtable" u1002 u103D_u103E
Ligature2: "LigatureSubstitutionlookup162 subtable" u1002
Ligature2: "LigatureSubstitutionlookup162 subtable" u1002 u105F
Ligature2: "LigatureSubstitutionlookup162 subtable" u1002 u1060
Ligature2: "LigatureSubstitutionlookup162 subtable" u1002 u1082
Ligature2: "LigatureSubstitutionlookup158 subtable" u1002 u1039
Ligature2: "LigatureSubstitutionlookup130 subtable" u1004.kinzi u200D u1002
Ligature2: "LigatureSubstitutionlookup130 subtable" u101B.kinzi u200D u1002
Ligature2: "LigatureSubstitutionlookup127 subtable" u1004.kinzi u200D u1002
Ligature2: "LigatureSubstitutionlookup127 subtable" u101B.kinzi u200D u1002
Ligature2: "LigatureSubstitutionlookup124 subtable" u1004.kinzi u200D u1002
Ligature2: "LigatureSubstitutionlookup124 subtable" u101B.kinzi u200D u1002
MultipleSubs2: "MultipleSubstitutionlookup139 subtable" u200C u1031 u1002
MultipleSubs2: "MultipleSubstitutionlookup137 subtable" u200C u1084 u1002
MultipleSubs2: "MultipleSubstitutionlookup136 subtable" u200C u103C_u103D.narr u1002
MultipleSubs2: "MultipleSubstitutionlookup135 subtable" u200C u103C_u102F.narr u1002
MultipleSubs2: "MultipleSubstitutionlookup134 subtable" u200C u103C u1002
MultipleSubs2: "MultipleSubstitutionlookup129 subtable" u1002 u101B.kinzi
MultipleSubs2: "MultipleSubstitutionlookup128 subtable" u1002 u1004.kinzi
PairPos2: "PairwisePositioningkerninglooku subtable" uAA60.med.kham dx=-90 dy=0 dh=0 dv=0 dx=0 dy=0 dh=90 dv=0
PairPos2: "PairwisePositioningkerninglooku subtable" uAA60.med dx=-90 dy=0 dh=0 dv=0 dx=0 dy=0 dh=90 dv=0
PairPos2: "PairwisePositioningkerninglooku subtable" u1021.med dx=-90 dy=0 dh=0 dv=0 dx=0 dy=0 dh=90 dv=0
PairPos2: "PairwisePositioningkerninglooku subtable" u101E.med dx=-90 dy=0 dh=0 dv=0 dx=0 dy=0 dh=90 dv=0
PairPos2: "PairwisePositioningkerninglooku subtable" u101C.med dx=-90 dy=0 dh=0 dv=0 dx=0 dy=0 dh=90 dv=0
PairPos2: "PairwisePositioningkerninglooku subtable" u101A.med dx=-90 dy=0 dh=0 dv=0 dx=0 dy=0 dh=90 dv=0
PairPos2: "PairwisePositioningkerninglooku subtable" u1018.med dx=-90 dy=0 dh=0 dv=0 dx=0 dy=0 dh=90 dv=0
PairPos2: "PairwisePositioningkerninglooku subtable" u1011.med dx=-90 dy=0 dh=0 dv=0 dx=0 dy=0 dh=90 dv=0
PairPos2: "PairwisePositioningkerninglooku subtable" u1010.med dx=-90 dy=0 dh=0 dv=0 dx=0 dy=0 dh=90 dv=0
PairPos2: "PairwisePositioningkerninglooku subtable" u100F.med dx=-90 dy=0 dh=0 dv=0 dx=0 dy=0 dh=90 dv=0
PairPos2: "PairwisePositioningkerninglooku subtable" u100C.med dx=-90 dy=0 dh=0 dv=0 dx=0 dy=0 dh=90 dv=0
PairPos2: "PairwisePositioningkerninglooku subtable" u100A.med dx=-90 dy=0 dh=0 dv=0 dx=0 dy=0 dh=90 dv=0
PairPos2: "PairwisePositioningkerninglooku subtable" u1006.med dx=-90 dy=0 dh=0 dv=0 dx=0 dy=0 dh=90 dv=0
PairPos2: "PairwisePositioningkerninglooku subtable" u1003.med dx=-90 dy=0 dh=0 dv=0 dx=0 dy=0 dh=90 dv=0
PairPos2: "PairwisePositioningkerninglooku subtable" u1000.med dx=-90 dy=0 dh=0 dv=0 dx=0 dy=0 dh=90 dv=0
Position2: "SinglePositioninglookup48 per glyph data 0" dx=100 dy=0 dh=50 dv=0
Position2: "SinglePositioninglookup30 subtable" dx=140 dy=0 dh=140 dv=0
Comment: "GDL_order: 1+AAoA-mark: 80+AAoA"
EndChar

StartChar: u1002.med
Encoding: 106 -1 106
Width: 0
VWidth: 0
GlyphClass: 4
Flags: HW
AnchorPoint: "BS" -243 -53 mark 0
AnchorPoint: "LLM" -596 -53 basemark 0
AnchorPoint: "BSM" -243 -53 mark 0
AnchorPoint: "LM" 106 -53 basemark 0
AnchorPoint: "BS" 238 -53 basemark 0
AnchorPoint: "BSM" 565 -53 basemark 0
LayerCount: 2
Back
Fore
SplineSet
-56 -294 m 0
 -56 -366 -70 -423 -126 -471 c 0
 -177 -398 l 0
 -149 -365 -143 -336 -143 -294 c 0
 -143 -239 -181 -180 -245 -180 c 0
 -309 -180 -347 -239 -347 -294 c 0
 -347 -337 -341 -365 -312 -398 c 0
 -363 -471 l 0
 -419 -423 -434 -366 -434 -294 c 0
 -434 -186 -352 -93 -245 -93 c 0
 -138 -93 -56 -186 -56 -294 c 0
EndSplineSet
Ligature2: "LigatureSubstitutionlookup179 subtable" u1002.med u102D
Ligature2: "LigatureSubstitutionlookup179 subtable" u1002.med u102E
Ligature2: "LigatureSubstitutionlookup179 subtable" u1002.med u1032
Ligature2: "LigatureSubstitutionlookup179 subtable" u1002.med u103A
Ligature2: "LigatureSubstitutionlookup171 subtable" u1002.med u103C u1031
Ligature2: "LigatureSubstitutionlookup159 subtable" u1002.med u1031
Ligature2: "LigatureSubstitutionlookup159 subtable" u1002.med u103C
Ligature2: "sub_ligature_cligmymr_0 subtable" u1039 u1002
MultipleSubs2: "MultipleSubstitutionlookup138 subtable" u1039 u1002.med
Comment: "GDL_order: 2+AAoA-mark: 80+AAoA"
EndChar

StartChar: u1003
Encoding: 107 4099 107
Width: 969
VWidth: 0
GlyphClass: 2
Flags: HW
AnchorPoint: "R" 0 0 mark 0
AnchorPoint: "BS" 670 -53 basechar 0
AnchorPoint: "L" 670 -53 basechar 0
AnchorPoint: "BD" 484 -53 basechar 0
AnchorPoint: "U" 670 495 basechar 0
LayerCount: 2
Back
Fore
SplineSet
915 222 m 0
 915 89 803 -23 670 -23 c 0
 587 -23 523 22 484 75 c 0
 437 12 367 -23 292 -23 c 0
 147 -23 55 81 55 166 c 0
 55 319 193 286 193 342 c 0
 193 359 182 367 168 367 c 0
 153 367 143 356 139 342 c 0
 55 391 l 0
 65 438 118 466 168 466 c 0
 228 466 292 427 292 342 c 0
 292 230 169 237 169 166 c 0
 169 133 216 91 292 91 c 0
 362 91 421 147 421 240 c 0
 421 289 413 341 381 373 c 0
 447 466 l 0
 513 417 537 333 537 234 c 0
 537 175 600 91 670 91 c 0
 742 91 801 151 801 222 c 0
 801 291 742 352 670 352 c 0
 664 352 652 350 645 348 c 0
 600 453 l 0
 616 463 644 466 670 466 c 0
 803 466 915 358 915 222 c 0
EndSplineSet
Ligature2: "LigatureSubstitutionlookup169 subtable" u1003 u103C
Ligature2: "LigatureSubstitutionlookup167 subtable" u1003 u103C u1031
Ligature2: "LigatureSubstitutionlookup167 subtable" u1003 u103C.wide u1031
Ligature2: "LigatureSubstitutionlookup167 subtable" u1003 u103C_u103D.narr u1031
Ligature2: "LigatureSubstitutionlookup167 subtable" u1003 u103C_u103D.wide u1031
Ligature2: "LigatureSubstitutionlookup165 subtable" u1003 u103C
Ligature2: "LigatureSubstitutionlookup165 subtable" u1003 u103C_u103D.narr
Ligature2: "LigatureSubstitutionlookup165 subtable" u1003 u103C_u102F.narr
Ligature2: "LigatureSubstitutionlookup163 subtable" u1003 u1031
Ligature2: "LigatureSubstitutionlookup163 subtable" u1003 u1084
Ligature2: "LigatureSubstitutionlookup162 subtable" u1003 u103D
Ligature2: "LigatureSubstitutionlookup162 subtable" u1003 u103E
Ligature2: "LigatureSubstitutionlookup162 subtable" u1003 u103D_u103E
Ligature2: "LigatureSubstitutionlookup162 subtable" u1003
Ligature2: "LigatureSubstitutionlookup162 subtable" u1003 u105F
Ligature2: "LigatureSubstitutionlookup162 subtable" u1003 u1060
Ligature2: "LigatureSubstitutionlookup162 subtable" u1003 u1082
Ligature2: "LigatureSubstitutionlookup158 subtable" u1003 u1039
Ligature2: "LigatureSubstitutionlookup130 subtable" u1004.kinzi u200D u1003
Ligature2: "LigatureSubstitutionlookup130 subtable" u101B.kinzi u200D u1003
Ligature2: "LigatureSubstitutionlookup127 subtable" u1004.kinzi u200D u1003
Ligature2: "LigatureSubstitutionlookup127 subtable" u101B.kinzi u200D u1003
Ligature2: "LigatureSubstitutionlookup124 subtable" u1004.kinzi u200D u1003
Ligature2: "LigatureSubstitutionlookup124 subtable" u101B.kinzi u200D u1003
MultipleSubs2: "MultipleSubstitutionlookup139 subtable" u200C u1031 u1003
MultipleSubs2: "MultipleSubstitutionlookup137 subtable" u200C u1084 u1003
MultipleSubs2: "MultipleSubstitutionlookup136 subtable" u200C u103C_u103D.wide u1003
MultipleSubs2: "MultipleSubstitutionlookup135 subtable" u200C u103C_u102F.wide u1003
MultipleSubs2: "MultipleSubstitutionlookup134 subtable" u200C u103C.wide u1003
MultipleSubs2: "MultipleSubstitutionlookup129 subtable" u1003 u101B.kinzi
MultipleSubs2: "MultipleSubstitutionlookup128 subtable" u1003 u1004.kinzi
Comment: "GDL_order: 1+AAoA-mark: 80+AAoA"
EndChar

StartChar: u1003.med
Encoding: 108 -1 108
Width: 0
VWidth: 0
GlyphClass: 4
Flags: HW
AnchorPoint: "LLM" -878 -53 basemark 0
AnchorPoint: "BD" -386 -53 mark 0
AnchorPoint: "BSM" 112 -53 basemark 0
AnchorPoint: "LM" 106 -53 basemark 0
AnchorPoint: "BSM" 883 -53 mark 0
AnchorPoint: "BDM" -401 -53 mark 0
AnchorPoint: "BD" 394 -53 basemark 0
LayerCount: 2
Back
Fore
SplineSet
-56 -282 m 0
 -56 -384 -140 -471 -242 -471 c 0
 -309 -471 -357 -438 -386 -395 c 0
 -422 -443 -476 -471 -533 -471 c 0
 -645 -471 -716 -390 -716 -326 c 0
 -716 -219 -611 -226 -611 -189 c 0
 -611 -177 -618 -171 -630 -171 c 0
 -639 -171 -649 -180 -651 -189 c 0
 -716 -150 l 0
 -711 -115 -668 -93 -630 -93 c 0
 -584 -93 -533 -125 -533 -189 c 0
 -533 -274 -629 -270 -629 -326 c 0
 -629 -350 -590 -384 -533 -384 c 0
 -483 -384 -434 -339 -434 -269 c 0
 -434 -232 -440 -192 -467 -167 c 0
 -414 -93 l 0
 -371 -128 -345 -182 -345 -269 c 0
 -345 -322 -294 -384 -242 -384 c 0
 -186 -384 -143 -335 -143 -282 c 0
 -143 -229 -186 -180 -242 -180 c 0
 -247 -180 -256 -181 -263 -183 c 0
 -297 -104 l 0
 -283 -96 -263 -93 -242 -93 c 0
 -140 -93 -56 -179 -56 -282 c 0
EndSplineSet
Ligature2: "LigatureSubstitutionlookup179 subtable" u1003.med u102D
Ligature2: "LigatureSubstitutionlookup179 subtable" u1003.med u102E
Ligature2: "LigatureSubstitutionlookup179 subtable" u1003.med u1032
Ligature2: "LigatureSubstitutionlookup179 subtable" u1003.med u103A
Ligature2: "LigatureSubstitutionlookup171 subtable" u1003.med u103C u1031
Ligature2: "LigatureSubstitutionlookup159 subtable" u1003.med u1031
Ligature2: "LigatureSubstitutionlookup159 subtable" u1003.med u103C
Ligature2: "sub_ligature_cligmymr_0 subtable" u1039 u1003
MultipleSubs2: "MultipleSubstitutionlookup138 subtable" u1039 u1003.med
Comment: "GDL_order: 2+AAoA-mark: 80+AAoA"
EndChar

StartChar: u1004
Encoding: 109 4100 109
Width: 577
VWidth: 0
GlyphClass: 2
Flags: HW
AnchorPoint: "R" 0 0 mark 0
AnchorPoint: "BS" 298 -53 basechar 0
AnchorPoint: "L" 298 -53 basechar 0
AnchorPoint: "U" 298 495 basechar 0
AnchorPoint: "BD" 292 -53 basechar 0
LayerCount: 2
Back
Fore
SplineSet
522 108 m 0
 477 27 390 -23 298 -23 c 0
 166 -23 55 87 55 222 c 0
 55 355 166 466 298 466 c 0
 382 466 479 422 522 336 c 0
 420 283 l 0
 388 333 348 352 298 352 c 0
 229 352 169 291 169 222 c 0
 169 151 229 91 298 91 c 0
 352 91 394 115 420 160 c 0
 522 108 l 0
EndSplineSet
Substitution2: "sub_single_cligmymr_2 subtable" u1004.kham
Ligature2: "LigatureSubstitutionlookup169 subtable" u1004 u103C
Ligature2: "LigatureSubstitutionlookup167 subtable" u1004 u103C u1031
Ligature2: "LigatureSubstitutionlookup167 subtable" u1004 u103C.wide u1031
Ligature2: "LigatureSubstitutionlookup167 subtable" u1004 u103C_u103D.narr u1031
Ligature2: "LigatureSubstitutionlookup167 subtable" u1004 u103C_u103D.wide u1031
Ligature2: "LigatureSubstitutionlookup165 subtable" u1004 u103C
Ligature2: "LigatureSubstitutionlookup165 subtable" u1004 u103C_u103D.narr
Ligature2: "LigatureSubstitutionlookup165 subtable" u1004 u103C_u102F.narr
Ligature2: "LigatureSubstitutionlookup163 subtable" u1004 u1031
Ligature2: "LigatureSubstitutionlookup163 subtable" u1004 u1084
Ligature2: "LigatureSubstitutionlookup162 subtable" u1004 u103D
Ligature2: "LigatureSubstitutionlookup162 subtable" u1004 u103E
Ligature2: "LigatureSubstitutionlookup162 subtable" u1004 u103D_u103E
Ligature2: "LigatureSubstitutionlookup162 subtable" u1004
Ligature2: "LigatureSubstitutionlookup162 subtable" u1004 u105F
Ligature2: "LigatureSubstitutionlookup162 subtable" u1004 u1060
Ligature2: "LigatureSubstitutionlookup162 subtable" u1004 u1082
Ligature2: "LigatureSubstitutionlookup158 subtable" u1004 u1039
Ligature2: "LigatureSubstitutionlookup130 subtable" u1004.kinzi u200D u1004
Ligature2: "LigatureSubstitutionlookup130 subtable" u101B.kinzi u200D u1004
Ligature2: "LigatureSubstitutionlookup127 subtable" u1004.kinzi u200D u1004
Ligature2: "LigatureSubstitutionlookup127 subtable" u101B.kinzi u200D u1004
Ligature2: "LigatureSubstitutionlookup124 subtable" u1004.kinzi u200D u1004
Ligature2: "LigatureSubstitutionlookup124 subtable" u101B.kinzi u200D u1004
MultipleSubs2: "MultipleSubstitutionlookup139 subtable" u200C u1031 u1004
MultipleSubs2: "MultipleSubstitutionlookup137 subtable" u200C u1084 u1004
MultipleSubs2: "MultipleSubstitutionlookup136 subtable" u200C u103C_u103D.narr u1004
MultipleSubs2: "MultipleSubstitutionlookup135 subtable" u200C u103C_u102F.narr u1004
MultipleSubs2: "MultipleSubstitutionlookup134 subtable" u200C u103C u1004
MultipleSubs2: "MultipleSubstitutionlookup129 subtable" u1004 u101B.kinzi
MultipleSubs2: "MultipleSubstitutionlookup128 subtable" u1004 u1004.kinzi
PairPos2: "PairwisePositioningkerninglooku subtable" uAA60.med.kham dx=-90 dy=0 dh=0 dv=0 dx=0 dy=0 dh=90 dv=0
PairPos2: "PairwisePositioningkerninglooku subtable" uAA60.med dx=-90 dy=0 dh=0 dv=0 dx=0 dy=0 dh=90 dv=0
PairPos2: "PairwisePositioningkerninglooku subtable" u1021.med dx=-90 dy=0 dh=0 dv=0 dx=0 dy=0 dh=90 dv=0
PairPos2: "PairwisePositioningkerninglooku subtable" u101E.med dx=-90 dy=0 dh=0 dv=0 dx=0 dy=0 dh=90 dv=0
PairPos2: "PairwisePositioningkerninglooku subtable" u101C.med dx=-90 dy=0 dh=0 dv=0 dx=0 dy=0 dh=90 dv=0
PairPos2: "PairwisePositioningkerninglooku subtable" u101A.med dx=-90 dy=0 dh=0 dv=0 dx=0 dy=0 dh=90 dv=0
PairPos2: "PairwisePositioningkerninglooku subtable" u1018.med dx=-90 dy=0 dh=0 dv=0 dx=0 dy=0 dh=90 dv=0
PairPos2: "PairwisePositioningkerninglooku subtable" u1011.med dx=-90 dy=0 dh=0 dv=0 dx=0 dy=0 dh=90 dv=0
PairPos2: "PairwisePositioningkerninglooku subtable" u1010.med dx=-90 dy=0 dh=0 dv=0 dx=0 dy=0 dh=90 dv=0
PairPos2: "PairwisePositioningkerninglooku subtable" u100F.med dx=-90 dy=0 dh=0 dv=0 dx=0 dy=0 dh=90 dv=0
PairPos2: "PairwisePositioningkerninglooku subtable" u100C.med dx=-90 dy=0 dh=0 dv=0 dx=0 dy=0 dh=90 dv=0
PairPos2: "PairwisePositioningkerninglooku subtable" u100A.med dx=-90 dy=0 dh=0 dv=0 dx=0 dy=0 dh=90 dv=0
PairPos2: "PairwisePositioningkerninglooku subtable" u1006.med dx=-90 dy=0 dh=0 dv=0 dx=0 dy=0 dh=90 dv=0
PairPos2: "PairwisePositioningkerninglooku subtable" u1003.med dx=-90 dy=0 dh=0 dv=0 dx=0 dy=0 dh=90 dv=0
PairPos2: "PairwisePositioningkerninglooku subtable" u1000.med dx=-90 dy=0 dh=0 dv=0 dx=0 dy=0 dh=90 dv=0
Position2: "SinglePositioninglookup48 per glyph data 0" dx=100 dy=0 dh=50 dv=0
Position2: "SinglePositioninglookup30 subtable" dx=140 dy=0 dh=140 dv=0
Comment: "GDL_order: 1+AAoA-mark: 80+AAoA"
EndChar

StartChar: u1004.med
Encoding: 110 -1 110
Width: 0
VWidth: 0
GlyphClass: 4
Flags: HW
AnchorPoint: "BS" -232 -53 mark 0
AnchorPoint: "LLM" -582 -53 basemark 0
AnchorPoint: "BSM" -232 -53 mark 0
AnchorPoint: "LM" 114 -53 basemark 0
AnchorPoint: "BS" -174 -53 basemark 0
AnchorPoint: "BSM" 111 -53 basemark 0
LayerCount: 2
Back
Fore
SplineSet
-55 -378 m 0
 -100 -449 -154 -471 -231 -471 c 0
 -334 -471 -420 -386 -420 -282 c 0
 -420 -180 -334 -93 -231 -93 c 0
 -154 -93 -100 -115 -55 -186 c 0
 -127 -233 l 0
 -152 -195 -181 -180 -226 -180 c 0
 -286 -180 -333 -229 -333 -282 c 0
 -333 -335 -287 -384 -228 -384 c 0
 -188 -384 -155 -371 -127 -332 c 0
 -55 -378 l 0
EndSplineSet
Ligature2: "LigatureSubstitutionlookup179 subtable" u1004.med u102D
Ligature2: "LigatureSubstitutionlookup179 subtable" u1004.med u102E
Ligature2: "LigatureSubstitutionlookup179 subtable" u1004.med u1032
Ligature2: "LigatureSubstitutionlookup179 subtable" u1004.med u103A
Ligature2: "LigatureSubstitutionlookup171 subtable" u1004.med u103C u1031
Ligature2: "LigatureSubstitutionlookup159 subtable" u1004.med u1031
Ligature2: "LigatureSubstitutionlookup159 subtable" u1004.med u103C
Ligature2: "sub_ligature_cligmymr_0 subtable" u1039 u1004
MultipleSubs2: "MultipleSubstitutionlookup138 subtable" u1039 u1004.med
Comment: "GDL_order: 2+AAoA-mark: 80+AAoA"
EndChar

StartChar: u1004.kinzi
Encoding: 111 -1 111
Width: 55
VWidth: 0
GlyphClass: 4
Flags: HW
AnchorPoint: "Y" -37 495 mark 0
AnchorPoint: "U" -102 495 mark 0
AnchorPoint: "UM" -92 495 basemark 0
LayerCount: 2
Back
Fore
SplineSet
0 603 m 0
 -23 560 -67 543 -102 543 c 0
 -164 543 -213 594 -213 655 c 0
 -213 686 -202 713 -180 735 c 0
 -200 754 -213 780 -213 811 c 0
 -213 881 -158 921 -99 921 c 0
 -61 921 -33 901 -18 879 c 0
 -74 831 l 0
 -79 839 -91 848 -102 848 c 0
 -122 848 -140 833 -140 811 c 0
 -140 791 -125 771 -102 771 c 0
 -73 771 -24 751 0 708 c 0
 -60 676 l 0
 -71 693 -83 697 -98 697 c 0
 -117 697 -138 684 -138 656 c 0
 -138 635 -121 616 -98 616 c 0
 -84 616 -72 620 -60 639 c 0
 0 603 l 0
EndSplineSet
Substitution2: "SingleSubstitutionlookup177 subtable" u1004.kinzi_u1036
Substitution2: "SingleSubstitutionlookup176 subtable" u1004.kinzi_u103A
Substitution2: "SingleSubstitutionlookup175 subtable" u1004.kinzi_u1032
Substitution2: "Single Substitution lookup 151 subtable" u1004.kinzi_u102E
Substitution2: "SingleSubstitutionlookup173 subtable" u1004.kinzi_u102D
Ligature2: "LigatureSubstitutionlookup118 subtable" circledash u1004.kinzi
Ligature2: "cligContextualLigaturesinMyanma subtable" u1004 u103A u1039
Ligature2: "cligContextualLigaturesinMyanma subtable" u105A u103A u1039
MultipleSubs2: "MultipleSubstitutionlookup121 subtable" u1004.kinzi u200D
MultipleSubs2: "sub_mult_cligmymr_0 subtable" circledash u1004.kinzi
Comment: "GDL_order: 8+AAoA-mark: 80+AAoA"
EndChar

StartChar: u1004.kinzi_u102D
Encoding: 112 -1 112
Width: 55
VWidth: 0
GlyphClass: 4
Flags: HW
AnchorPoint: "Y" -43 495 mark 0
AnchorPoint: "U" -309 495 mark 0
AnchorPoint: "UM" -296 495 basemark 0
LayerCount: 2
Back
Fore
SplineSet
0 733 m 0
 0 630 -81 544 -182 544 c 0
 -285 544 -368 630 -368 733 c 0
 -368 835 -285 922 -185 922 c 0
 -81 922 0 835 0 733 c 0
-87 733 m 0
 -87 786 -129 835 -182 835 c 0
 -238 835 -281 786 -281 733 c 0
 -281 680 -237 631 -185 631 c 0
 -129 631 -87 680 -87 733 c 0
-407 603 m 0
 -430 560 -474 543 -509 543 c 0
 -571 543 -620 594 -620 655 c 0
 -620 686 -609 713 -587 735 c 0
 -607 754 -620 780 -620 811 c 0
 -620 882 -565 922 -506 922 c 0
 -468 922 -440 901 -425 879 c 0
 -481 831 l 0
 -486 839 -498 847 -509 847 c 0
 -529 847 -547 832 -547 810 c 0
 -547 790 -532 771 -509 771 c 0
 -480 771 -431 751 -407 708 c 0
 -467 676 l 0
 -478 693 -490 697 -505 697 c 0
 -524 697 -545 684 -545 656 c 0
 -545 635 -528 616 -505 616 c 0
 -491 616 -479 620 -467 639 c 0
 -407 603 l 0
EndSplineSet
Ligature2: "LigatureSubstitutionlookup182 subtable" u1004.kinzi_u102D u102F
Ligature2: "sub_ligature_cligmymr_8 subtable" u1004.kinzi u102D
Ligature2: "sub_ligature_cligmymr_6 subtable" u1004.kinzi_u102D u200C u102D
Position2: "Single Positioning lookup 43 subtable" dx=180 dy=0 dh=0 dv=0
Comment: "GDL_order: 8+AAoA-mark: 80+AAoA"
EndChar

StartChar: u1004.kinzi_u102E
Encoding: 113 -1 113
Width: 55
VWidth: 0
GlyphClass: 4
Flags: HW
AnchorPoint: "Y" -43 495 mark 0
AnchorPoint: "U" -309 495 mark 0
AnchorPoint: "UM" -296 495 basemark 0
LayerCount: 2
Back
Fore
SplineSet
0 735 m 0
 0 631 -81 546 -182 546 c 0
 -285 546 -368 631 -368 735 c 0
 -368 837 -285 924 -185 924 c 0
 -81 924 0 837 0 735 c 0
-86 742 m 0
 -86 743 -87 748 -87 748 c 0
 -93 793 -132 837 -182 837 c 0
 -232 837 -277 793 -281 745 c 0
 -281 743 -281 743 -281 741 c 0
 -246 764 -213 769 -182 769 c 0
 -155 769 -119 762 -86 742 c 0
-107 673 m 0
 -128 688 -153 699 -182 699 c 0
 -210 699 -237 687 -260 672 c 0
 -241 648 -216 633 -185 633 c 0
 -153 633 -126 649 -107 673 c 0
-407 604 m 0
 -430 561 -474 544 -509 544 c 0
 -571 544 -620 595 -620 656 c 0
 -620 687 -609 714 -587 736 c 0
 -607 755 -620 781 -620 812 c 0
 -620 882 -565 922 -506 922 c 0
 -468 922 -440 902 -425 880 c 0
 -481 832 l 0
 -486 840 -498 849 -509 849 c 0
 -529 849 -547 834 -547 812 c 0
 -547 792 -532 772 -509 772 c 0
 -480 772 -431 752 -407 709 c 0
 -467 677 l 0
 -478 694 -490 698 -505 698 c 0
 -524 698 -545 685 -545 657 c 0
 -545 636 -528 617 -505 617 c 0
 -491 617 -479 621 -467 640 c 0
 -407 604 l 0
EndSplineSet
Ligature2: "sub_ligature_cligmymr_8 subtable" u1004.kinzi u102E
Ligature2: "sub_ligature_cligmymr_6 subtable" u1004.kinzi_u102E u200C u102E
Position2: "Single Positioning lookup 43 subtable" dx=180 dy=0 dh=0 dv=0
Comment: "GDL_order: 8+AAoA-mark: 80+AAoA"
EndChar

StartChar: u1004.kinzi_u1032
Encoding: 114 -1 114
Width: 55
VWidth: 0
GlyphClass: 4
Flags: HW
AnchorPoint: "U" -309 466 mark 0
AnchorPoint: "UM" -296 495 basemark 0
LayerCount: 2
Back
Fore
SplineSet
0 617 m 0
 -54 548 l 0
 -360 791 l 0
 -309 861 l 0
 0 617 l 0
-407 604 m 0
 -430 561 -474 544 -509 544 c 0
 -571 544 -620 595 -620 656 c 0
 -620 687 -609 714 -587 736 c 0
 -607 755 -620 781 -620 812 c 0
 -620 882 -565 922 -506 922 c 0
 -468 922 -440 902 -425 880 c 0
 -481 832 l 0
 -486 840 -498 849 -509 849 c 0
 -529 849 -547 834 -547 812 c 0
 -547 792 -532 772 -509 772 c 0
 -480 772 -431 752 -407 709 c 0
 -467 677 l 0
 -478 694 -490 698 -505 698 c 0
 -524 698 -545 685 -545 657 c 0
 -545 636 -528 617 -505 617 c 0
 -491 617 -479 621 -467 640 c 0
 -407 604 l 0
EndSplineSet
Ligature2: "sub_ligature_cligmymr_8 subtable" u1004.kinzi u1032
Comment: "GDL_order: 8+AAoA-mark: 80+AAoA"
EndChar

StartChar: u1004.kinzi_u1033
Encoding: 115 -1 115
Width: 55
VWidth: 0
GlyphClass: 4
Flags: HW
AnchorPoint: "Y" -43 495 mark 0
AnchorPoint: "U" -309 495 mark 0
AnchorPoint: "UM" -296 495 basemark 0
LayerCount: 2
Back
Fore
SplineSet
0 735 m 0
 0 631 -81 546 -182 546 c 0
 -285 546 -368 631 -368 735 c 0
 -368 837 -285 924 -185 924 c 0
 -81 924 0 837 0 735 c 0
-87 735 m 0
 -87 788 -129 837 -182 837 c 0
 -238 837 -281 788 -281 735 c 0
 -281 682 -237 633 -185 633 c 0
 -129 633 -87 682 -87 735 c 0
-133 735 m 0
 -133 708 -154 683 -182 683 c 0
 -210 683 -232 708 -232 735 c 0
 -232 762 -210 788 -182 788 c 0
 -154 788 -133 762 -133 735 c 0
-181 735 m 0
 -182 734 l 0
 -183 735 l 0
 -182 736 l 0
 -181 735 l 0
-407 604 m 0
 -430 561 -474 544 -509 544 c 0
 -571 544 -620 595 -620 656 c 0
 -620 687 -609 714 -587 736 c 0
 -607 755 -620 781 -620 812 c 0
 -620 882 -565 922 -506 922 c 0
 -468 922 -440 902 -425 880 c 0
 -481 832 l 0
 -486 840 -498 849 -509 849 c 0
 -529 849 -547 834 -547 812 c 0
 -547 792 -532 772 -509 772 c 0
 -480 772 -431 752 -407 709 c 0
 -467 677 l 0
 -478 694 -490 698 -505 698 c 0
 -524 698 -545 685 -545 657 c 0
 -545 636 -528 617 -505 617 c 0
 -491 617 -479 621 -467 640 c 0
 -407 604 l 0
EndSplineSet
Ligature2: "sub_ligature_cligmymr_8 subtable" u1004.kinzi u1033
Position2: "Single Positioning lookup 43 subtable" dx=180 dy=0 dh=0 dv=0
Comment: "GDL_order: 8+AAoA-mark: 80+AAoA"
EndChar

StartChar: u1004.kinzi_u1036
Encoding: 116 -1 116
Width: 55
VWidth: 0
GlyphClass: 4
Flags: HW
AnchorPoint: "U" -221 495 mark 0
AnchorPoint: "UM" -258 495 basemark 0
LayerCount: 2
Back
Fore
SplineSet
0 683 m 0
 0 622 -51 573 -111 573 c 0
 -170 573 -222 622 -222 683 c 0
 -222 743 -170 792 -111 792 c 0
 -51 792 0 743 0 683 c 0
-66 683 m 0
 -66 704 -86 725 -111 725 c 0
 -138 725 -155 704 -155 683 c 0
 -155 662 -138 636 -111 636 c 0
 -86 636 -66 659 -66 683 c 0
-237 605 m 0
 -260 562 -304 545 -339 545 c 0
 -401 545 -450 596 -450 657 c 0
 -450 688 -439 715 -417 737 c 0
 -437 756 -450 782 -450 813 c 0
 -450 883 -395 923 -336 923 c 0
 -298 923 -270 903 -255 881 c 0
 -311 833 l 0
 -316 841 -328 850 -339 850 c 0
 -359 850 -377 835 -377 813 c 0
 -377 793 -362 773 -339 773 c 0
 -310 773 -261 753 -237 710 c 0
 -297 678 l 0
 -308 695 -320 699 -335 699 c 0
 -354 699 -375 686 -375 658 c 0
 -375 637 -358 618 -335 618 c 0
 -321 618 -309 622 -297 641 c 0
 -237 605 l 0
EndSplineSet
Ligature2: "sub_ligature_cligmymr_8 subtable" u1004.kinzi u1036
Ligature2: "sub_ligature_cligmymr_6 subtable" u1004.kinzi_u1036 u200C u1036
Position2: "Single Positioning lookup 43 subtable" dx=180 dy=0 dh=0 dv=0
Comment: "GDL_order: 10+AAoA-mark: 80+AAoA"
EndChar

StartChar: u1004.kinzi_u103A
Encoding: 117 -1 117
Width: 55
VWidth: 0
GlyphClass: 4
Flags: HW
AnchorPoint: "Y" -43 495 mark 0
AnchorPoint: "U" -309 495 mark 0
AnchorPoint: "UM" -296 495 basemark 0
LayerCount: 2
Back
Fore
SplineSet
0 844 m 0
 -62 793 l 0
 -72 808 -97 838 -134 838 c 0
 -177 838 -239 807 -239 736 c 0
 -239 664 -168 627 -137 627 c 0
 -137 540 l 0
 -230 540 -326 628 -326 736 c 0
 -326 853 -230 925 -134 925 c 0
 -95 925 -37 905 0 844 c 0
-407 604 m 0
 -430 561 -474 544 -509 544 c 0
 -571 544 -620 595 -620 656 c 0
 -620 687 -609 714 -587 736 c 0
 -607 755 -620 781 -620 812 c 0
 -620 882 -565 922 -506 922 c 0
 -468 922 -440 902 -425 880 c 0
 -481 832 l 0
 -486 840 -498 849 -509 849 c 0
 -529 849 -547 834 -547 812 c 0
 -547 792 -532 772 -509 772 c 0
 -480 772 -431 752 -407 709 c 0
 -467 677 l 0
 -478 694 -490 698 -505 698 c 0
 -524 698 -545 685 -545 657 c 0
 -545 636 -528 617 -505 617 c 0
 -491 617 -479 621 -467 640 c 0
 -407 604 l 0
EndSplineSet
Ligature2: "sub_ligature_cligmymr_8 subtable" u1004.kinzi u103A
Position2: "Single Positioning lookup 43 subtable" dx=180 dy=0 dh=0 dv=0
Comment: "GDL_order: 8+AAoA-mark: 80+AAoA"
EndChar

StartChar: u1004.kinzi_u102D_u1036
Encoding: 118 -1 118
Width: 55
VWidth: 0
GlyphClass: 4
Flags: HW
AnchorPoint: "Y" -33 495 mark 0
AnchorPoint: "U" -418 495 mark 0
AnchorPoint: "UM" -376 495 basemark 0
LayerCount: 2
Back
Fore
SplineSet
-236 733 m 0
 -236 630 -317 544 -418 544 c 0
 -521 544 -604 630 -604 733 c 0
 -604 835 -521 922 -421 922 c 0
 -317 922 -236 835 -236 733 c 0
-323 733 m 0
 -323 786 -365 835 -418 835 c 0
 -474 835 -517 786 -517 733 c 0
 -517 680 -473 631 -421 631 c 0
 -365 631 -323 680 -323 733 c 0
0 654 m 0
 0 593 -51 544 -111 544 c 0
 -170 544 -222 593 -222 654 c 0
 -222 714 -170 763 -111 763 c 0
 -51 763 0 714 0 654 c 0
-66 654 m 0
 -66 675 -86 696 -111 696 c 0
 -138 696 -155 675 -155 654 c 0
 -155 633 -138 607 -111 607 c 0
 -86 607 -66 630 -66 654 c 0
-643 604 m 0
 -666 561 -710 544 -745 544 c 0
 -807 544 -856 595 -856 656 c 0
 -856 687 -845 714 -823 736 c 0
 -843 755 -856 781 -856 812 c 0
 -856 882 -801 922 -742 922 c 0
 -704 922 -676 902 -661 880 c 0
 -717 832 l 0
 -722 840 -734 849 -745 849 c 0
 -765 849 -783 834 -783 812 c 0
 -783 792 -768 772 -745 772 c 0
 -716 772 -667 752 -643 709 c 0
 -703 677 l 0
 -714 694 -726 698 -741 698 c 0
 -760 698 -781 685 -781 657 c 0
 -781 636 -764 617 -741 617 c 0
 -727 617 -715 621 -703 640 c 0
 -643 604 l 0
EndSplineSet
Ligature2: "sub_ligature_cligmymr_8 subtable" u1004.kinzi u102D_u1036
Comment: "GDL_order: 8+AAoA-mark: 183+AAoA"
EndChar

StartChar: u1005
Encoding: 119 4101 119
Width: 591
VWidth: 0
GlyphClass: 2
Flags: HW
AnchorPoint: "R" 0 0 mark 0
AnchorPoint: "BS" 294 -53 basechar 0
AnchorPoint: "L" 294 -53 basechar 0
AnchorPoint: "U" 294 495 basechar 0
AnchorPoint: "BD" 288 -53 basechar 0
LayerCount: 2
Back
Fore
SplineSet
535 222 m 0
 535 87 429 -23 294 -23 c 0
 164 -23 55 87 55 222 c 0
 55 355 162 466 294 466 c 0
 429 466 535 355 535 222 c 0
421 222 m 0
 421 286 371 348 306 352 c 0
 305 352 305 352 304 352 c 0
 336 307 343 259 343 222 c 0
 343 183 332 135 304 91 c 0
 305 91 305 91 306 91 c 0
 369 100 421 155 421 222 c 0
250 222 m 0
 250 258 239 291 216 322 c 0
 188 298 169 262 169 222 c 0
 169 179 188 144 216 120 c 0
 237 149 250 183 250 222 c 0
EndSplineSet
Ligature2: "LigatureSubstitutionlookup169 subtable" u1005 u103C
Ligature2: "LigatureSubstitutionlookup167 subtable" u1005 u103C u1031
Ligature2: "LigatureSubstitutionlookup167 subtable" u1005 u103C.wide u1031
Ligature2: "LigatureSubstitutionlookup167 subtable" u1005 u103C_u103D.narr u1031
Ligature2: "LigatureSubstitutionlookup167 subtable" u1005 u103C_u103D.wide u1031
Ligature2: "LigatureSubstitutionlookup165 subtable" u1005 u103C
Ligature2: "LigatureSubstitutionlookup165 subtable" u1005 u103C_u103D.narr
Ligature2: "LigatureSubstitutionlookup165 subtable" u1005 u103C_u102F.narr
Ligature2: "LigatureSubstitutionlookup163 subtable" u1005 u1031
Ligature2: "LigatureSubstitutionlookup163 subtable" u1005 u1084
Ligature2: "LigatureSubstitutionlookup162 subtable" u1005 u103D
Ligature2: "LigatureSubstitutionlookup162 subtable" u1005 u103E
Ligature2: "LigatureSubstitutionlookup162 subtable" u1005 u103D_u103E
Ligature2: "LigatureSubstitutionlookup162 subtable" u1005
Ligature2: "LigatureSubstitutionlookup162 subtable" u1005 u105F
Ligature2: "LigatureSubstitutionlookup162 subtable" u1005 u1060
Ligature2: "LigatureSubstitutionlookup162 subtable" u1005 u1082
Ligature2: "LigatureSubstitutionlookup158 subtable" u1005 u1039
Ligature2: "LigatureSubstitutionlookup130 subtable" u1004.kinzi u200D u1005
Ligature2: "LigatureSubstitutionlookup130 subtable" u101B.kinzi u200D u1005
Ligature2: "LigatureSubstitutionlookup127 subtable" u1004.kinzi u200D u1005
Ligature2: "LigatureSubstitutionlookup127 subtable" u101B.kinzi u200D u1005
Ligature2: "LigatureSubstitutionlookup124 subtable" u1004.kinzi u200D u1005
Ligature2: "LigatureSubstitutionlookup124 subtable" u101B.kinzi u200D u1005
MultipleSubs2: "MultipleSubstitutionlookup139 subtable" u200C u1031 u1005
MultipleSubs2: "MultipleSubstitutionlookup137 subtable" u200C u1084 u1005
MultipleSubs2: "MultipleSubstitutionlookup136 subtable" u200C u103C_u103D.narr u1005
MultipleSubs2: "MultipleSubstitutionlookup135 subtable" u200C u103C_u102F.narr u1005
MultipleSubs2: "MultipleSubstitutionlookup134 subtable" u200C u103C u1005
MultipleSubs2: "MultipleSubstitutionlookup129 subtable" u1005 u101B.kinzi
MultipleSubs2: "MultipleSubstitutionlookup128 subtable" u1005 u1004.kinzi
PairPos2: "PairwisePositioningkerninglooku subtable" uAA60.med.kham dx=-90 dy=0 dh=0 dv=0 dx=0 dy=0 dh=90 dv=0
PairPos2: "PairwisePositioningkerninglooku subtable" uAA60.med dx=-90 dy=0 dh=0 dv=0 dx=0 dy=0 dh=90 dv=0
PairPos2: "PairwisePositioningkerninglooku subtable" u1021.med dx=-90 dy=0 dh=0 dv=0 dx=0 dy=0 dh=90 dv=0
PairPos2: "PairwisePositioningkerninglooku subtable" u101E.med dx=-90 dy=0 dh=0 dv=0 dx=0 dy=0 dh=90 dv=0
PairPos2: "PairwisePositioningkerninglooku subtable" u101C.med dx=-90 dy=0 dh=0 dv=0 dx=0 dy=0 dh=90 dv=0
PairPos2: "PairwisePositioningkerninglooku subtable" u101A.med dx=-90 dy=0 dh=0 dv=0 dx=0 dy=0 dh=90 dv=0
PairPos2: "PairwisePositioningkerninglooku subtable" u1018.med dx=-90 dy=0 dh=0 dv=0 dx=0 dy=0 dh=90 dv=0
PairPos2: "PairwisePositioningkerninglooku subtable" u1011.med dx=-90 dy=0 dh=0 dv=0 dx=0 dy=0 dh=90 dv=0
PairPos2: "PairwisePositioningkerninglooku subtable" u1010.med dx=-90 dy=0 dh=0 dv=0 dx=0 dy=0 dh=90 dv=0
PairPos2: "PairwisePositioningkerninglooku subtable" u100F.med dx=-90 dy=0 dh=0 dv=0 dx=0 dy=0 dh=90 dv=0
PairPos2: "PairwisePositioningkerninglooku subtable" u100C.med dx=-90 dy=0 dh=0 dv=0 dx=0 dy=0 dh=90 dv=0
PairPos2: "PairwisePositioningkerninglooku subtable" u100A.med dx=-90 dy=0 dh=0 dv=0 dx=0 dy=0 dh=90 dv=0
PairPos2: "PairwisePositioningkerninglooku subtable" u1006.med dx=-90 dy=0 dh=0 dv=0 dx=0 dy=0 dh=90 dv=0
PairPos2: "PairwisePositioningkerninglooku subtable" u1003.med dx=-90 dy=0 dh=0 dv=0 dx=0 dy=0 dh=90 dv=0
PairPos2: "PairwisePositioningkerninglooku subtable" u1000.med dx=-90 dy=0 dh=0 dv=0 dx=0 dy=0 dh=90 dv=0
Position2: "SinglePositioninglookup48 per glyph data 0" dx=100 dy=0 dh=50 dv=0
Position2: "SinglePositioninglookup30 subtable" dx=140 dy=0 dh=140 dv=0
Comment: "GDL_order: 1+AAoA-mark: 80+AAoA"
EndChar

StartChar: u1005.med
Encoding: 120 -1 120
Width: 0
VWidth: 0
GlyphClass: 4
Flags: HW
AnchorPoint: "BS" -238 -53 mark 0
AnchorPoint: "LLM" -585 -53 basemark 0
AnchorPoint: "BSM" -238 -53 mark 0
AnchorPoint: "LM" 107 -53 basemark 0
AnchorPoint: "BS" 234 -53 basemark 0
AnchorPoint: "BSM" 556 -53 basemark 0
LayerCount: 2
Back
Fore
SplineSet
-54 -282 m 0
 -54 -386 -136 -471 -237 -471 c 0
 -340 -471 -423 -386 -423 -282 c 0
 -423 -180 -340 -93 -240 -93 c 0
 -136 -93 -54 -180 -54 -282 c 0
-141 -282 m 0
 -141 -232 -179 -184 -229 -180 c 0
 -230 -180 -230 -180 -231 -180 c 0
 -207 -215 -201 -251 -201 -282 c 0
 -201 -309 -211 -351 -232 -384 c 0
 -231 -384 -231 -384 -230 -384 c 0
 -179 -380 -141 -332 -141 -282 c 0
-271 -282 m 0
 -271 -254 -283 -227 -298 -203 c 0
 -323 -223 -336 -249 -336 -282 c 0
 -336 -313 -322 -341 -298 -360 c 0
 -283 -337 -271 -309 -271 -282 c 0
EndSplineSet
Ligature2: "LigatureSubstitutionlookup179 subtable" u1005.med u102D
Ligature2: "LigatureSubstitutionlookup179 subtable" u1005.med u102E
Ligature2: "LigatureSubstitutionlookup179 subtable" u1005.med u1032
Ligature2: "LigatureSubstitutionlookup179 subtable" u1005.med u103A
Ligature2: "LigatureSubstitutionlookup171 subtable" u1005.med u103C u1031
Ligature2: "LigatureSubstitutionlookup159 subtable" u1005.med u1031
Ligature2: "LigatureSubstitutionlookup159 subtable" u1005.med u103C
Ligature2: "sub_ligature_cligmymr_0 subtable" u1039 u1005
MultipleSubs2: "MultipleSubstitutionlookup138 subtable" u1039 u1005.med
Comment: "GDL_order: 2+AAoA-mark: 80+AAoA"
EndChar

StartChar: u1006
Encoding: 121 4102 121
Width: 966
VWidth: 0
GlyphClass: 2
Flags: HW
AnchorPoint: "R" 0 0 mark 0
AnchorPoint: "BS" 672 -53 basechar 0
AnchorPoint: "L" 672 -53 basechar 0
AnchorPoint: "BD" 487 -53 basechar 0
AnchorPoint: "U" 672 495 basechar 0
LayerCount: 2
Back
Fore
SplineSet
912 222 m 0
 912 87 803 -23 672 -23 c 0
 596 -23 531 11 487 64 c 0
 446 12 381 -23 300 -23 c 0
 207 -23 57 50 57 192 c 0
 137 244 210 256 250 256 c 0
 297 256 374 237 424 184 c 0
 428 196 430 207 430 222 c 0
 430 245 408 352 300 352 c 0
 261 352 222 343 177 283 c 0
 78 336 l 0
 120 422 214 466 300 466 c 0
 384 466 446 428 486 376 c 0
 531 432 596 466 672 466 c 0
 806 466 912 355 912 222 c 0
798 222 m 0
 798 292 741 352 672 352 c 0
 600 352 544 292 544 222 c 0
 544 151 604 91 672 91 c 0
 743 91 798 151 798 222 c 0
367 108 m 0
 339 140 297 163 250 163 c 0
 229 163 209 162 181 153 c 0
 224 102 272 91 300 91 c 0
 325 91 347 97 367 108 c 0
EndSplineSet
Ligature2: "LigatureSubstitutionlookup169 subtable" u1006 u103C
Ligature2: "LigatureSubstitutionlookup167 subtable" u1006 u103C u1031
Ligature2: "LigatureSubstitutionlookup167 subtable" u1006 u103C.wide u1031
Ligature2: "LigatureSubstitutionlookup167 subtable" u1006 u103C_u103D.narr u1031
Ligature2: "LigatureSubstitutionlookup167 subtable" u1006 u103C_u103D.wide u1031
Ligature2: "LigatureSubstitutionlookup165 subtable" u1006 u103C
Ligature2: "LigatureSubstitutionlookup165 subtable" u1006 u103C_u103D.narr
Ligature2: "LigatureSubstitutionlookup165 subtable" u1006 u103C_u102F.narr
Ligature2: "LigatureSubstitutionlookup163 subtable" u1006 u1031
Ligature2: "LigatureSubstitutionlookup163 subtable" u1006 u1084
Ligature2: "LigatureSubstitutionlookup162 subtable" u1006 u103D
Ligature2: "LigatureSubstitutionlookup162 subtable" u1006 u103E
Ligature2: "LigatureSubstitutionlookup162 subtable" u1006 u103D_u103E
Ligature2: "LigatureSubstitutionlookup162 subtable" u1006
Ligature2: "LigatureSubstitutionlookup162 subtable" u1006 u105F
Ligature2: "LigatureSubstitutionlookup162 subtable" u1006 u1060
Ligature2: "LigatureSubstitutionlookup162 subtable" u1006 u1082
Ligature2: "LigatureSubstitutionlookup158 subtable" u1006 u1039
Ligature2: "LigatureSubstitutionlookup130 subtable" u1004.kinzi u200D u1006
Ligature2: "LigatureSubstitutionlookup130 subtable" u101B.kinzi u200D u1006
Ligature2: "LigatureSubstitutionlookup127 subtable" u1004.kinzi u200D u1006
Ligature2: "LigatureSubstitutionlookup127 subtable" u101B.kinzi u200D u1006
Ligature2: "LigatureSubstitutionlookup124 subtable" u1004.kinzi u200D u1006
Ligature2: "LigatureSubstitutionlookup124 subtable" u101B.kinzi u200D u1006
MultipleSubs2: "MultipleSubstitutionlookup139 subtable" u200C u1031 u1006
MultipleSubs2: "MultipleSubstitutionlookup137 subtable" u200C u1084 u1006
MultipleSubs2: "MultipleSubstitutionlookup136 subtable" u200C u103C_u103D.wide u1006
MultipleSubs2: "MultipleSubstitutionlookup135 subtable" u200C u103C_u102F.wide u1006
MultipleSubs2: "MultipleSubstitutionlookup134 subtable" u200C u103C.wide u1006
MultipleSubs2: "MultipleSubstitutionlookup129 subtable" u1006 u101B.kinzi
MultipleSubs2: "MultipleSubstitutionlookup128 subtable" u1006 u1004.kinzi
Comment: "GDL_order: 1+AAoA-mark: 80+AAoA"
EndChar

StartChar: u1006.med
Encoding: 122 -1 122
Width: 0
VWidth: 0
GlyphClass: 4
Flags: HW
AnchorPoint: "LLM" -876 -53 basemark 0
AnchorPoint: "BD" -384 -53 mark 0
AnchorPoint: "BSM" 104 -53 basemark 0
AnchorPoint: "LM" 107 -53 basemark 0
AnchorPoint: "BSM" 877 -53 mark 0
AnchorPoint: "BDM" -395 -53 mark 0
AnchorPoint: "BD" 394 -53 basemark 0
LayerCount: 2
Back
Fore
SplineSet
-55 -282 m 0
 -55 -386 -136 -471 -237 -471 c 0
 -296 -471 -346 -444 -381 -404 c 0
 -414 -444 -462 -471 -525 -471 c 0
 -621 -471 -712 -395 -712 -305 c 0
 -648 -262 -595 -255 -564 -255 c 0
 -527 -255 -469 -271 -429 -311 c 0
 -426 -301 -424 -291 -424 -282 c 0
 -424 -263 -439 -180 -525 -180 c 0
 -547 -180 -581 -185 -619 -234 c 0
 -696 -194 l 0
 -648 -106 -559 -93 -525 -93 c 0
 -461 -93 -412 -122 -381 -162 c 0
 -348 -119 -296 -93 -237 -93 c 0
 -133 -93 -55 -180 -55 -282 c 0
-142 -282 m 0
 -142 -229 -184 -180 -237 -180 c 0
 -293 -180 -336 -229 -336 -282 c 0
 -336 -335 -289 -384 -237 -384 c 0
 -184 -384 -142 -335 -142 -282 c 0
-474 -369 m 0
 -493 -344 -528 -326 -564 -326 c 0
 -578 -326 -595 -329 -616 -335 c 0
 -585 -374 -546 -384 -525 -384 c 0
 -505 -384 -489 -377 -474 -369 c 0
EndSplineSet
Ligature2: "LigatureSubstitutionlookup179 subtable" u1006.med u102D
Ligature2: "LigatureSubstitutionlookup179 subtable" u1006.med u102E
Ligature2: "LigatureSubstitutionlookup179 subtable" u1006.med u1032
Ligature2: "LigatureSubstitutionlookup179 subtable" u1006.med u103A
Ligature2: "LigatureSubstitutionlookup171 subtable" u1006.med u103C u1031
Ligature2: "LigatureSubstitutionlookup159 subtable" u1006.med u1031
Ligature2: "LigatureSubstitutionlookup159 subtable" u1006.med u103C
Ligature2: "sub_ligature_cligmymr_0 subtable" u1039 u1006
MultipleSubs2: "MultipleSubstitutionlookup138 subtable" u1039 u1006.med
LCarets2: 2 0 0
Comment: "GDL_order: 2+AAoA-mark: 80+AAoA"
EndChar

StartChar: u1007
Encoding: 123 4103 123
Width: 648
VWidth: 0
GlyphClass: 2
Flags: HW
AnchorPoint: "R" 0 0 mark 0
AnchorPoint: "BS" 297 -53 basechar 0
AnchorPoint: "L" 297 -53 basechar 0
AnchorPoint: "U" 298 495 basechar 0
AnchorPoint: "BD" 286 -53 basechar 0
LayerCount: 2
Back
Fore
SplineSet
607 150 m 0
 526 91 l 0
 516 113 493 154 483 171 c 0
 456 147 420 138 385 138 c 0
 325 138 267 180 267 244 c 0
 267 284 290 335 353 348 c 0
 336 354 318 357 297 357 c 0
 237 357 169 291 169 222 c 0
 169 151 226 91 297 91 c 0
 346 91 381 102 400 115 c 0
 481 36 l 0
 445 -3 397 -23 297 -23 c 0
 169 -23 55 87 55 222 c 0
 55 355 171 466 297 466 c 0
 390 466 504 421 520 301 c 0
 547 268 581 207 607 150 c 0
430 247 m 0
 414 268 406 270 379 270 c 0
 363 270 351 261 351 244 c 0
 351 226 375 222 385 222 c 0
 411 222 426 230 430 247 c 0
EndSplineSet
Ligature2: "LigatureSubstitutionlookup169 subtable" u1007 u103C
Ligature2: "LigatureSubstitutionlookup167 subtable" u1007 u103C u1031
Ligature2: "LigatureSubstitutionlookup167 subtable" u1007 u103C.wide u1031
Ligature2: "LigatureSubstitutionlookup167 subtable" u1007 u103C_u103D.narr u1031
Ligature2: "LigatureSubstitutionlookup167 subtable" u1007 u103C_u103D.wide u1031
Ligature2: "LigatureSubstitutionlookup165 subtable" u1007 u103C
Ligature2: "LigatureSubstitutionlookup165 subtable" u1007 u103C_u103D.narr
Ligature2: "LigatureSubstitutionlookup165 subtable" u1007 u103C_u102F.narr
Ligature2: "LigatureSubstitutionlookup163 subtable" u1007 u1031
Ligature2: "LigatureSubstitutionlookup163 subtable" u1007 u1084
Ligature2: "LigatureSubstitutionlookup162 subtable" u1007 u103D
Ligature2: "LigatureSubstitutionlookup162 subtable" u1007 u103E
Ligature2: "LigatureSubstitutionlookup162 subtable" u1007 u103D_u103E
Ligature2: "LigatureSubstitutionlookup162 subtable" u1007
Ligature2: "LigatureSubstitutionlookup162 subtable" u1007 u105F
Ligature2: "LigatureSubstitutionlookup162 subtable" u1007 u1060
Ligature2: "LigatureSubstitutionlookup162 subtable" u1007 u1082
Ligature2: "LigatureSubstitutionlookup158 subtable" u1007 u1039
Ligature2: "LigatureSubstitutionlookup130 subtable" u1004.kinzi u200D u1007
Ligature2: "LigatureSubstitutionlookup130 subtable" u101B.kinzi u200D u1007
Ligature2: "LigatureSubstitutionlookup127 subtable" u1004.kinzi u200D u1007
Ligature2: "LigatureSubstitutionlookup127 subtable" u101B.kinzi u200D u1007
Ligature2: "LigatureSubstitutionlookup124 subtable" u1004.kinzi u200D u1007
Ligature2: "LigatureSubstitutionlookup124 subtable" u101B.kinzi u200D u1007
MultipleSubs2: "MultipleSubstitutionlookup139 subtable" u200C u1031 u1007
MultipleSubs2: "MultipleSubstitutionlookup137 subtable" u200C u1084 u1007
MultipleSubs2: "MultipleSubstitutionlookup136 subtable" u200C u103C_u103D.narr u1007
MultipleSubs2: "MultipleSubstitutionlookup135 subtable" u200C u103C_u102F.narr u1007
MultipleSubs2: "MultipleSubstitutionlookup134 subtable" u200C u103C u1007
MultipleSubs2: "MultipleSubstitutionlookup129 subtable" u1007 u101B.kinzi
MultipleSubs2: "MultipleSubstitutionlookup128 subtable" u1007 u1004.kinzi
PairPos2: "PairwisePositioningkerninglooku subtable" uAA60.med.kham dx=-90 dy=0 dh=0 dv=0 dx=0 dy=0 dh=90 dv=0
PairPos2: "PairwisePositioningkerninglooku subtable" uAA60.med dx=-90 dy=0 dh=0 dv=0 dx=0 dy=0 dh=90 dv=0
PairPos2: "PairwisePositioningkerninglooku subtable" u1021.med dx=-90 dy=0 dh=0 dv=0 dx=0 dy=0 dh=90 dv=0
PairPos2: "PairwisePositioningkerninglooku subtable" u101E.med dx=-90 dy=0 dh=0 dv=0 dx=0 dy=0 dh=90 dv=0
PairPos2: "PairwisePositioningkerninglooku subtable" u101C.med dx=-90 dy=0 dh=0 dv=0 dx=0 dy=0 dh=90 dv=0
PairPos2: "PairwisePositioningkerninglooku subtable" u101A.med dx=-90 dy=0 dh=0 dv=0 dx=0 dy=0 dh=90 dv=0
PairPos2: "PairwisePositioningkerninglooku subtable" u1018.med dx=-90 dy=0 dh=0 dv=0 dx=0 dy=0 dh=90 dv=0
PairPos2: "PairwisePositioningkerninglooku subtable" u1011.med dx=-90 dy=0 dh=0 dv=0 dx=0 dy=0 dh=90 dv=0
PairPos2: "PairwisePositioningkerninglooku subtable" u1010.med dx=-90 dy=0 dh=0 dv=0 dx=0 dy=0 dh=90 dv=0
PairPos2: "PairwisePositioningkerninglooku subtable" u100F.med dx=-90 dy=0 dh=0 dv=0 dx=0 dy=0 dh=90 dv=0
PairPos2: "PairwisePositioningkerninglooku subtable" u100C.med dx=-90 dy=0 dh=0 dv=0 dx=0 dy=0 dh=90 dv=0
PairPos2: "PairwisePositioningkerninglooku subtable" u100A.med dx=-90 dy=0 dh=0 dv=0 dx=0 dy=0 dh=90 dv=0
PairPos2: "PairwisePositioningkerninglooku subtable" u1006.med dx=-90 dy=0 dh=0 dv=0 dx=0 dy=0 dh=90 dv=0
PairPos2: "PairwisePositioningkerninglooku subtable" u1003.med dx=-90 dy=0 dh=0 dv=0 dx=0 dy=0 dh=90 dv=0
PairPos2: "PairwisePositioningkerninglooku subtable" u1000.med dx=-90 dy=0 dh=0 dv=0 dx=0 dy=0 dh=90 dv=0
Position2: "SinglePositioninglookup48 per glyph data 0" dx=100 dy=0 dh=50 dv=0
Position2: "SinglePositioninglookup30 subtable" dx=140 dy=0 dh=140 dv=0
Comment: "GDL_order: 1+AAoA-mark: 80+AAoA"
EndChar

StartChar: u1007.med
Encoding: 124 -1 124
Width: 0
VWidth: 0
GlyphClass: 4
Flags: HW
AnchorPoint: "BS" -294 -53 mark 0
AnchorPoint: "LLM" -644 -53 basemark 0
AnchorPoint: "BSM" -294 -53 mark 0
AnchorPoint: "LM" 52 -53 basemark 0
AnchorPoint: "BS" 224 -53 basemark 0
AnchorPoint: "BSM" 532 -53 basemark 0
LayerCount: 2
Back
Fore
SplineSet
-56 -338 m 0
 -119 -383 l 0
 -126 -370 -147 -330 -152 -321 c 0
 -173 -338 -201 -347 -228 -347 c 0
 -275 -347 -320 -314 -320 -263 c 0
 -320 -234 -300 -194 -253 -185 c 0
 -265 -181 -280 -179 -295 -179 c 0
 -345 -179 -395 -229 -395 -282 c 0
 -395 -335 -349 -384 -293 -384 c 0
 -259 -384 -237 -380 -215 -363 c 0
 -153 -425 l 0
 -182 -456 -223 -471 -296 -471 c 0
 -396 -471 -482 -386 -482 -282 c 0
 -482 -181 -393 -92 -296 -92 c 0
 -226 -92 -136 -129 -123 -221 c 0
 -104 -245 -83 -281 -56 -338 c 0
-192 -261 m 0
 -207 -246 -210 -245 -233 -245 c 0
 -245 -245 -254 -252 -254 -263 c 0
 -254 -275 -242 -282 -228 -282 c 0
 -205 -282 -197 -276 -192 -261 c 0
EndSplineSet
Ligature2: "LigatureSubstitutionlookup179 subtable" u1007.med u102D
Ligature2: "LigatureSubstitutionlookup179 subtable" u1007.med u102E
Ligature2: "LigatureSubstitutionlookup179 subtable" u1007.med u1032
Ligature2: "LigatureSubstitutionlookup179 subtable" u1007.med u103A
Ligature2: "LigatureSubstitutionlookup171 subtable" u1007.med u103C u1031
Ligature2: "LigatureSubstitutionlookup159 subtable" u1007.med u1031
Ligature2: "LigatureSubstitutionlookup159 subtable" u1007.med u103C
Ligature2: "sub_ligature_cligmymr_0 subtable" u1039 u1007
MultipleSubs2: "MultipleSubstitutionlookup138 subtable" u1039 u1007.med
Comment: "GDL_order: 2+AAoA-mark: 80+AAoA"
EndChar

StartChar: u1008
Encoding: 125 4104 125
Width: 838
VWidth: 0
GlyphClass: 2
Flags: HW
AnchorPoint: "R" 0 0 mark 0
AnchorPoint: "BS" 904 -53 basechar 0
AnchorPoint: "LL" 171 -53 basechar 0
AnchorPoint: "L" 904 -53 basechar 0
AnchorPoint: "U" 526 495 basechar 0
AnchorPoint: "BD" 810 -53 basechar 0
LayerCount: 2
Back
Fore
SplineSet
744 -471 m 0
 333 -374 l 0
 333 -18 l 0
 318 -21 309 -21 297 -21 c 0
 162 -21 55 87 55 223 c 0
 55 356 162 468 294 468 c 0
 430 468 535 356 535 223 c 0
 535 144 502 76 447 31 c 0
 447 -284 l 0
 630 -324 l 0
 630 466 l 0
 744 466 l 0
 744 -471 l 0
421 223 m 0
 421 291 369 349 305 354 c 0
 304 354 l 0
 336 310 343 260 343 223 c 0
 343 186 333 135 304 91 c 0
 305 91 l 0
 369 99 421 156 421 223 c 0
250 223 m 0
 250 260 239 293 216 324 c 0
 187 300 169 264 169 223 c 0
 169 180 187 145 216 121 c 0
 237 152 250 186 250 223 c 0
EndSplineSet
Ligature2: "LigatureSubstitutionlookup169 subtable" u1008 u103C
Ligature2: "LigatureSubstitutionlookup167 subtable" u1008 u103C u1031
Ligature2: "LigatureSubstitutionlookup167 subtable" u1008 u103C.wide u1031
Ligature2: "LigatureSubstitutionlookup167 subtable" u1008 u103C_u103D.narr u1031
Ligature2: "LigatureSubstitutionlookup167 subtable" u1008 u103C_u103D.wide u1031
Ligature2: "LigatureSubstitutionlookup165 subtable" u1008 u103C
Ligature2: "LigatureSubstitutionlookup165 subtable" u1008 u103C_u103D.narr
Ligature2: "LigatureSubstitutionlookup165 subtable" u1008 u103C_u102F.narr
Ligature2: "LigatureSubstitutionlookup163 subtable" u1008 u1031
Ligature2: "LigatureSubstitutionlookup163 subtable" u1008 u1084
Ligature2: "LigatureSubstitutionlookup162 subtable" u1008 u103D
Ligature2: "LigatureSubstitutionlookup162 subtable" u1008 u103E
Ligature2: "LigatureSubstitutionlookup162 subtable" u1008 u103D_u103E
Ligature2: "LigatureSubstitutionlookup162 subtable" u1008
Ligature2: "LigatureSubstitutionlookup162 subtable" u1008 u105F
Ligature2: "LigatureSubstitutionlookup162 subtable" u1008 u1060
Ligature2: "LigatureSubstitutionlookup162 subtable" u1008 u1082
Ligature2: "LigatureSubstitutionlookup158 subtable" u1008 u1039
Ligature2: "LigatureSubstitutionlookup130 subtable" u1004.kinzi u200D u1008
Ligature2: "LigatureSubstitutionlookup130 subtable" u101B.kinzi u200D u1008
Ligature2: "LigatureSubstitutionlookup127 subtable" u1004.kinzi u200D u1008
Ligature2: "LigatureSubstitutionlookup127 subtable" u101B.kinzi u200D u1008
Ligature2: "LigatureSubstitutionlookup124 subtable" u1004.kinzi u200D u1008
Ligature2: "LigatureSubstitutionlookup124 subtable" u101B.kinzi u200D u1008
MultipleSubs2: "MultipleSubstitutionlookup139 subtable" u200C u1031 u1008
MultipleSubs2: "MultipleSubstitutionlookup137 subtable" u200C u1084 u1008
MultipleSubs2: "MultipleSubstitutionlookup129 subtable" u1008 u101B.kinzi
MultipleSubs2: "MultipleSubstitutionlookup128 subtable" u1008 u1004.kinzi
Comment: "GDL_order: 1+AAoA-mark: 80+AAoA"
EndChar

StartChar: u1008.med
Encoding: 126 -1 126
Width: 225
VWidth: 0
GlyphClass: 2
Flags: HW
AnchorPoint: "BS" 331 -53 basechar 0
AnchorPoint: "L" 331 -53 basechar 0
AnchorPoint: "dot" -227 -53 basechar 0
AnchorPoint: "U" 0 495 basechar 0
LayerCount: 2
Back
Fore
SplineSet
169 -471 m 0
 -99 -402 l 0
 -131 -435 -173 -455 -224 -455 c 0
 -327 -455 -410 -372 -410 -267 c 0
 -410 -166 -337 -80 -237 -80 c 0
 -133 -80 -41 -166 -41 -267 c 0
 -41 -276 -43 -291 -45 -299 c 0
 55 -324 l 0
 55 444 l 0
 169 444 l 0
 169 -471 l 0
-128 -267 m 0
 -128 -215 -167 -170 -217 -167 c 0
 -218 -167 l 0
 -191 -200 -188 -236 -188 -267 c 0
 -188 -294 -197 -336 -218 -368 c 0
 -217 -368 l 0
 -168 -363 -128 -318 -128 -267 c 0
-258 -267 m 0
 -258 -239 -269 -211 -284 -188 c 0
 -308 -207 -323 -234 -323 -267 c 0
 -323 -298 -308 -326 -285 -345 c 0
 -269 -322 -258 -294 -258 -267 c 0
EndSplineSet
Ligature2: "LigatureSubstitutionlookup179 subtable" u1008.med u102D
Ligature2: "LigatureSubstitutionlookup179 subtable" u1008.med u102E
Ligature2: "LigatureSubstitutionlookup179 subtable" u1008.med u1032
Ligature2: "LigatureSubstitutionlookup179 subtable" u1008.med u103A
Ligature2: "LigatureSubstitutionlookup171 subtable" u1008.med u103C u1031
Ligature2: "LigatureSubstitutionlookup159 subtable" u1008.med u1031
Ligature2: "LigatureSubstitutionlookup159 subtable" u1008.med u103C
Ligature2: "sub_ligature_cligmymr_0 subtable" u1039 u1008
MultipleSubs2: "MultipleSubstitutionlookup138 subtable" u1039 u1008.med
Comment: "GDL_order: 2+AAoA-mark: 80+AAoA"
EndChar

StartChar: u1009
Encoding: 127 4105 127
Width: 579
VWidth: 0
GlyphClass: 2
Flags: HW
AnchorPoint: "R" 0 0 mark 0
AnchorPoint: "BS" 450 -53 basechar 0
AnchorPoint: "LL" 724 -53 basechar 0
AnchorPoint: "L" 304 -53 basechar 0
AnchorPoint: "U" 279 495 basechar 0
AnchorPoint: "BD" 450 -53 basechar 0
LayerCount: 2
Back
Fore
SplineSet
892 -272 m 0
 892 -344 l 0
 892 -391 884 -418 868 -437 c 0
 849 -460 822 -471 765 -471 c 0
 244 -471 l 0
 187 -471 143 -447 109 -413 c 0
 73 -377 55 -332 55 -282 c 0
 55 108 l 0
 157 160 l 0
 199 92 258 91 278 91 c 0
 280 91 l 0
 352 91 409 151 409 222 c 0
 409 291 352 352 280 352 c 0
 262 352 200 351 157 283 c 0
 55 336 l 0
 106 432 205 466 280 466 c 0
 412 466 523 355 523 222 c 0
 523 87 412 -23 280 -23 c 0
 245 -23 208 -15 169 1 c 0
 169 -273 l 0
 169 -294 176 -319 190 -332 c 0
 206 -347 225 -357 256 -357 c 0
 748 -357 l 0
 771 -357 778 -346 778 -320 c 0
 778 -272 l 0
 892 -272 l 0
EndSplineSet
Substitution2: "SingleSubstitutionlookup146 subtable" u1025
Ligature2: "LigatureSubstitutionlookup169 subtable" u1009 u103C
Ligature2: "LigatureSubstitutionlookup167 subtable" u1009 u103C u1031
Ligature2: "LigatureSubstitutionlookup167 subtable" u1009 u103C.wide u1031
Ligature2: "LigatureSubstitutionlookup167 subtable" u1009 u103C_u103D.narr u1031
Ligature2: "LigatureSubstitutionlookup167 subtable" u1009 u103C_u103D.wide u1031
Ligature2: "LigatureSubstitutionlookup165 subtable" u1009 u103C
Ligature2: "LigatureSubstitutionlookup165 subtable" u1009 u103C_u103D.narr
Ligature2: "LigatureSubstitutionlookup165 subtable" u1009 u103C_u102F.narr
Ligature2: "LigatureSubstitutionlookup163 subtable" u1009 u1031
Ligature2: "LigatureSubstitutionlookup163 subtable" u1009 u1084
Ligature2: "LigatureSubstitutionlookup162 subtable" u1009 u103D
Ligature2: "LigatureSubstitutionlookup162 subtable" u1009 u103E
Ligature2: "LigatureSubstitutionlookup162 subtable" u1009 u103D_u103E
Ligature2: "LigatureSubstitutionlookup162 subtable" u1009
Ligature2: "LigatureSubstitutionlookup162 subtable" u1009 u105F
Ligature2: "LigatureSubstitutionlookup162 subtable" u1009 u1060
Ligature2: "LigatureSubstitutionlookup162 subtable" u1009 u1082
Ligature2: "LigatureSubstitutionlookup158 subtable" u1009 u1039
Ligature2: "LigatureSubstitutionlookup130 subtable" u1004.kinzi u200D u1009
Ligature2: "LigatureSubstitutionlookup130 subtable" u101B.kinzi u200D u1009
Ligature2: "LigatureSubstitutionlookup127 subtable" u1004.kinzi u200D u1009
Ligature2: "LigatureSubstitutionlookup127 subtable" u101B.kinzi u200D u1009
Ligature2: "LigatureSubstitutionlookup124 subtable" u1004.kinzi u200D u1009
Ligature2: "LigatureSubstitutionlookup124 subtable" u101B.kinzi u200D u1009
MultipleSubs2: "MultipleSubstitutionlookup139 subtable" u200C u1031 u1009
MultipleSubs2: "MultipleSubstitutionlookup137 subtable" u200C u1084 u1009
MultipleSubs2: "MultipleSubstitutionlookup129 subtable" u1009 u101B.kinzi
MultipleSubs2: "MultipleSubstitutionlookup128 subtable" u1009 u1004.kinzi
Comment: "GDL_order: 1+AAoA-mark: 80+AAoA"
EndChar

StartChar: u1009_u102C
Encoding: 128 -1 128
Width: 954
VWidth: 0
GlyphClass: 2
Flags: HW
AnchorPoint: "R" 0 0 mark 0
AnchorPoint: "BS" 1021 -53 basechar 0
AnchorPoint: "L" 604 -53 basechar 0
AnchorPoint: "U" 655 495 basechar 0
AnchorPoint: "BD" 1063 -53 basechar 0
LayerCount: 2
Back
Fore
SplineSet
900 222 m 0
 900 87 788 -23 655 -23 c 0
 630 -23 601 -20 585 -11 c 0
 630 94 l 0
 637 92 648 91 655 91 c 0
 726 91 786 151 786 222 c 0
 786 291 726 352 655 352 c 0
 590 352 533 281 522 225 c 0
 522 222 l 0
 522 87 411 -23 280 -23 c 0
 245 -23 205 -16 169 3 c 0
 169 -273 l 0
 169 -294 176 -319 190 -332 c 0
 206 -347 225 -357 256 -357 c 0
 738 -357 l 0
 761 -357 768 -346 768 -320 c 0
 768 -272 l 0
 882 -272 l 0
 882 -344 l 0
 882 -391 874 -418 858 -437 c 0
 839 -460 812 -471 755 -471 c 0
 242 -471 l 0
 185 -471 141 -447 107 -413 c 0
 71 -377 55 -335 55 -285 c 0
 55 108 l 0
 157 160 l 0
 185 115 225 91 280 91 c 0
 352 91 409 151 409 222 c 0
 409 291 352 352 280 352 c 0
 262 352 200 351 157 283 c 0
 55 336 l 0
 106 432 205 466 280 466 c 0
 356 466 426 429 469 372 c 0
 510 423 572 466 655 466 c 0
 788 466 900 355 900 222 c 0
EndSplineSet
Ligature2: "sub_ligature_cligmymr_4 subtable" u1009 u102C
Comment: "GDL_order: 1+AAoA-mark: 80+AAoA"
EndChar

StartChar: u100A
Encoding: 129 4106 129
Width: 954
VWidth: 0
GlyphClass: 2
Flags: HW
AnchorPoint: "R" 0 0 mark 0
AnchorPoint: "BS" 1041 -53 basechar 0
AnchorPoint: "L" 604 -53 basechar 0
AnchorPoint: "U" 655 495 basechar 0
AnchorPoint: "BD" 1063 -53 basechar 0
LayerCount: 2
Back
Fore
SplineSet
900 222 m 0
 900 89 788 -23 655 -23 c 0
 572 -23 510 21 469 72 c 0
 426 15 357 -23 280 -23 c 0
 245 -23 205 -16 169 3 c 0
 169 -273 l 0
 169 -294 176 -319 190 -332 c 0
 206 -347 225 -357 256 -357 c 0
 738 -357 l 0
 761 -357 768 -346 768 -320 c 0
 768 -272 l 0
 882 -272 l 0
 882 -344 l 0
 882 -391 874 -418 858 -437 c 0
 839 -460 812 -471 755 -471 c 0
 244 -471 l 0
 187 -471 143 -447 109 -413 c 0
 73 -377 55 -332 55 -282 c 0
 55 108 l 0
 157 160 l 0
 185 109 233 91 280 91 c 0
 352 91 409 151 409 222 c 0
 409 291 352 352 280 352 c 0
 231 352 188 332 157 283 c 0
 55 336 l 0
 106 432 205 466 280 466 c 0
 411 466 522 356 522 219 c 0
 533 162 590 91 655 91 c 0
 726 91 786 151 786 222 c 0
 786 291 726 352 655 352 c 0
 645 352 637 351 630 349 c 0
 585 453 l 0
 600 461 629 466 655 466 c 0
 789 466 900 360 900 222 c 0
EndSplineSet
Substitution2: "SingleSubstitutionlookup143 subtable" u100A.alt
Ligature2: "LigatureSubstitutionlookup169 subtable" u100A u103C
Ligature2: "LigatureSubstitutionlookup167 subtable" u100A u103C u1031
Ligature2: "LigatureSubstitutionlookup167 subtable" u100A u103C.wide u1031
Ligature2: "LigatureSubstitutionlookup167 subtable" u100A u103C_u103D.narr u1031
Ligature2: "LigatureSubstitutionlookup167 subtable" u100A u103C_u103D.wide u1031
Ligature2: "LigatureSubstitutionlookup165 subtable" u100A u103C
Ligature2: "LigatureSubstitutionlookup165 subtable" u100A u103C_u103D.narr
Ligature2: "LigatureSubstitutionlookup165 subtable" u100A u103C_u102F.narr
Ligature2: "LigatureSubstitutionlookup163 subtable" u100A u1031
Ligature2: "LigatureSubstitutionlookup163 subtable" u100A u1084
Ligature2: "LigatureSubstitutionlookup162 subtable" u100A u103D
Ligature2: "LigatureSubstitutionlookup162 subtable" u100A u103E
Ligature2: "LigatureSubstitutionlookup162 subtable" u100A u103D_u103E
Ligature2: "LigatureSubstitutionlookup162 subtable" u100A
Ligature2: "LigatureSubstitutionlookup162 subtable" u100A u105F
Ligature2: "LigatureSubstitutionlookup162 subtable" u100A u1060
Ligature2: "LigatureSubstitutionlookup162 subtable" u100A u1082
Ligature2: "LigatureSubstitutionlookup158 subtable" u100A u1039
Ligature2: "LigatureSubstitutionlookup130 subtable" u1004.kinzi u200D u100A
Ligature2: "LigatureSubstitutionlookup130 subtable" u101B.kinzi u200D u100A
Ligature2: "LigatureSubstitutionlookup127 subtable" u1004.kinzi u200D u100A
Ligature2: "LigatureSubstitutionlookup127 subtable" u101B.kinzi u200D u100A
Ligature2: "LigatureSubstitutionlookup124 subtable" u1004.kinzi u200D u100A
Ligature2: "LigatureSubstitutionlookup124 subtable" u101B.kinzi u200D u100A
MultipleSubs2: "MultipleSubstitutionlookup139 subtable" u200C u1031 u100A
MultipleSubs2: "MultipleSubstitutionlookup137 subtable" u200C u1084 u100A
MultipleSubs2: "MultipleSubstitutionlookup136 subtable" u200C u103C_u103D.wide u100A
MultipleSubs2: "MultipleSubstitutionlookup135 subtable" u200C u103C_u102F.wide u100A
MultipleSubs2: "MultipleSubstitutionlookup134 subtable" u200C u103C.wide u100A
MultipleSubs2: "MultipleSubstitutionlookup129 subtable" u100A u101B.kinzi
MultipleSubs2: "MultipleSubstitutionlookup128 subtable" u100A u1004.kinzi
Comment: "GDL_order: 1+AAoA-mark: 80+AAoA"
EndChar

StartChar: u100A.alt
Encoding: 130 -1 130
Width: 954
VWidth: 0
GlyphClass: 2
Flags: HW
AnchorPoint: "R" 0 0 mark 0
AnchorPoint: "BS" 655 -53 basechar 0
AnchorPoint: "L" 655 -53 basechar 0
AnchorPoint: "BD" 469 -53 basechar 0
AnchorPoint: "U" 655 495 basechar 0
LayerCount: 2
Back
Fore
SplineSet
900 222 m 0
 900 89 788 -23 655 -23 c 0
 572 -23 510 21 469 72 c 0
 426 15 357 -23 280 -23 c 0
 245 -23 205 -16 169 3 c 0
 169 -273 l 0
 169 -294 176 -319 190 -332 c 0
 206 -347 225 -357 256 -357 c 0
 322 -357 l 0
 322 -471 l 0
 244 -471 l 0
 187 -471 143 -447 109 -413 c 0
 73 -377 55 -332 55 -282 c 0
 55 108 l 0
 157 160 l 0
 185 109 233 91 280 91 c 0
 352 91 409 151 409 222 c 0
 409 291 352 352 280 352 c 0
 231 352 188 332 157 283 c 0
 55 336 l 0
 106 432 205 466 280 466 c 0
 411 466 522 356 522 219 c 0
 533 162 590 91 655 91 c 0
 726 91 786 151 786 222 c 0
 786 291 726 352 655 352 c 0
 645 352 637 351 630 349 c 0
 585 453 l 0
 600 461 629 466 655 466 c 0
 789 466 900 360 900 222 c 0
EndSplineSet
Ligature2: "LigatureSubstitutionlookup169 subtable" u100A.alt u103C
Ligature2: "LigatureSubstitutionlookup167 subtable" u100A.alt u103C u1031
Ligature2: "LigatureSubstitutionlookup167 subtable" u100A.alt u103C.wide u1031
Ligature2: "LigatureSubstitutionlookup167 subtable" u100A.alt u103C_u103D.narr u1031
Ligature2: "LigatureSubstitutionlookup167 subtable" u100A.alt u103C_u103D.wide u1031
Ligature2: "LigatureSubstitutionlookup165 subtable" u100A.alt u103C
Ligature2: "LigatureSubstitutionlookup165 subtable" u100A.alt u103C_u103D.narr
Ligature2: "LigatureSubstitutionlookup165 subtable" u100A.alt u103C_u102F.narr
Ligature2: "LigatureSubstitutionlookup163 subtable" u100A.alt u1031
Ligature2: "LigatureSubstitutionlookup163 subtable" u100A.alt u1084
Ligature2: "LigatureSubstitutionlookup162 subtable" u100A.alt u103D
Ligature2: "LigatureSubstitutionlookup162 subtable" u100A.alt u103E
Ligature2: "LigatureSubstitutionlookup162 subtable" u100A.alt u103D_u103E
Ligature2: "LigatureSubstitutionlookup162 subtable" u100A.alt
Ligature2: "LigatureSubstitutionlookup162 subtable" u100A.alt u105F
Ligature2: "LigatureSubstitutionlookup162 subtable" u100A.alt u1060
Ligature2: "LigatureSubstitutionlookup162 subtable" u100A.alt u1082
Ligature2: "LigatureSubstitutionlookup158 subtable" u100A.alt u1039
Ligature2: "LigatureSubstitutionlookup130 subtable" u1004.kinzi u200D u100A.alt
Ligature2: "LigatureSubstitutionlookup130 subtable" u101B.kinzi u200D u100A.alt
Ligature2: "LigatureSubstitutionlookup127 subtable" u1004.kinzi u200D u100A.alt
Ligature2: "LigatureSubstitutionlookup127 subtable" u101B.kinzi u200D u100A.alt
Ligature2: "LigatureSubstitutionlookup124 subtable" u1004.kinzi u200D u100A.alt
Ligature2: "LigatureSubstitutionlookup124 subtable" u101B.kinzi u200D u100A.alt
MultipleSubs2: "MultipleSubstitutionlookup139 subtable" u200C u1031 u100A.alt
MultipleSubs2: "MultipleSubstitutionlookup137 subtable" u200C u1084 u100A.alt
MultipleSubs2: "MultipleSubstitutionlookup136 subtable" u200C u103C_u103D.wide u100A.alt
MultipleSubs2: "MultipleSubstitutionlookup135 subtable" u200C u103C_u102F.wide u100A.alt
MultipleSubs2: "MultipleSubstitutionlookup134 subtable" u200C u103C.wide u100A.alt
MultipleSubs2: "MultipleSubstitutionlookup129 subtable" u100A.alt u101B.kinzi
MultipleSubs2: "MultipleSubstitutionlookup128 subtable" u100A.alt u1004.kinzi
Comment: "GDL_order: 1+AAoA-mark: 80+AAoA"
EndChar

StartChar: u100A.med
Encoding: 131 -1 131
Width: 0
VWidth: 0
GlyphClass: 4
Flags: HW
AnchorPoint: "LLM" -842 -53 basemark 0
AnchorPoint: "BD" -385 -53 mark 0
AnchorPoint: "BSM" 72 -53 basemark 0
AnchorPoint: "LM" 72 -53 basemark 0
AnchorPoint: "BSM" 839 -53 mark 0
AnchorPoint: "BDM" -368 -53 mark 0
AnchorPoint: "BD" 361 -53 basemark 0
LayerCount: 2
Back
Fore
SplineSet
-97 -210 m 0
 -97 -272 -143 -328 -246 -328 c 0
 -307 -328 -354 -321 -385 -287 c 0
 -407 -311 -438 -328 -499 -328 c 0
 -526 -328 -556 -322 -584 -308 c 0
 -584 -374 -565 -401 -518 -401 c 0
 -205 -401 l 0
 -189 -401 -183 -394 -183 -376 c 0
 -183 -349 l 0
 -113 -349 l 0
 -113 -373 l 0
 -113 -430 -136 -471 -204 -471 c 0
 -527 -471 l 0
 -610 -471 -653 -402 -653 -327 c 0
 -653 -312 -653 -264 -653 -250 c 0
 -583 -225 l 0
 -572 -255 -529 -258 -499 -258 c 0
 -464 -258 -420 -245 -420 -210 c 0
 -420 -184 -444 -163 -499 -163 c 0
 -521 -163 -561 -172 -584 -206 c 0
 -634 -153 l 0
 -601 -114 -547 -93 -499 -93 c 0
 -399 -93 -350 -143 -350 -210 c 0
 -350 -252 -286 -258 -246 -258 c 0
 -191 -258 -167 -235 -167 -210 c 0
 -167 -177 -201 -163 -246 -163 c 0
 -261 -163 -280 -167 -293 -176 c 0
 -326 -112 l 0
 -305 -100 -262 -93 -246 -93 c 0
 -143 -93 -97 -145 -97 -210 c 0
EndSplineSet
Ligature2: "LigatureSubstitutionlookup179 subtable" u100A.med u102D
Ligature2: "LigatureSubstitutionlookup179 subtable" u100A.med u102E
Ligature2: "LigatureSubstitutionlookup179 subtable" u100A.med u1032
Ligature2: "LigatureSubstitutionlookup179 subtable" u100A.med u103A
Ligature2: "LigatureSubstitutionlookup171 subtable" u100A.med u103C u1031
Ligature2: "LigatureSubstitutionlookup159 subtable" u100A.med u1031
Ligature2: "LigatureSubstitutionlookup159 subtable" u100A.med u103C
Ligature2: "sub_ligature_cligmymr_0 subtable" u1039 u100A
MultipleSubs2: "MultipleSubstitutionlookup138 subtable" u1039 u100A.med
Comment: "GDL_order: 2+AAoA-mark: 80+AAoA"
EndChar

StartChar: u100A_u100A
Encoding: 132 -1 132
Width: 1333
VWidth: 0
GlyphClass: 2
Flags: HW
AnchorPoint: "R" 0 0 mark 0
AnchorPoint: "BS" 1041 -53 basechar 0
AnchorPoint: "L" 604 -53 basechar 0
AnchorPoint: "U" 655 495 basechar 0
AnchorPoint: "BD" 1063 -53 basechar 0
LayerCount: 2
Back
Fore
SplineSet
1278 222 m 0
 1278 89 1166 -23 1033 -23 c 0
 950 -23 888 21 847 72 c 0
 802 14 732 -23 655 -23 c 0
 572 -23 510 21 469 72 c 0
 426 15 357 -23 280 -23 c 0
 245 -23 205 -16 169 3 c 0
 169 -273 l 0
 169 -294 176 -319 190 -332 c 0
 206 -347 225 -357 256 -357 c 0
 1113 -357 l 0
 1136 -357 1143 -346 1143 -320 c 0
 1143 -272 l 0
 1257 -272 l 0
 1257 -344 l 0
 1257 -391 1249 -418 1233 -437 c 0
 1214 -460 1187 -471 1130 -471 c 0
 244 -471 l 0
 187 -471 143 -447 109 -413 c 0
 73 -377 55 -332 55 -282 c 0
 55 108 l 0
 157 160 l 0
 185 109 233 91 280 91 c 0
 352 91 409 151 409 222 c 0
 409 291 352 352 280 352 c 0
 231 352 188 332 157 283 c 0
 55 336 l 0
 106 432 205 466 280 466 c 0
 411 466 522 356 522 219 c 0
 533 162 590 91 655 91 c 0
 726 91 786 151 786 222 c 0
 786 291 726 352 655 352 c 0
 645 352 637 351 630 349 c 0
 585 453 l 0
 600 461 629 466 655 466 c 0
 788 466 900 355 900 219 c 0
 911 162 968 91 1033 91 c 0
 1104 91 1164 151 1164 222 c 0
 1164 291 1104 352 1033 352 c 0
 1023 352 1015 351 1008 349 c 0
 963 453 l 0
 978 461 1007 466 1033 466 c 0
 1167 466 1278 360 1278 222 c 0
EndSplineSet
Ligature2: "LigatureSubstitutionlookup169 subtable" u100A_u100A u103C
Ligature2: "LigatureSubstitutionlookup167 subtable" u100A_u100A u103C u1031
Ligature2: "LigatureSubstitutionlookup167 subtable" u100A_u100A u103C.wide u1031
Ligature2: "LigatureSubstitutionlookup167 subtable" u100A_u100A u103C_u103D.narr u1031
Ligature2: "LigatureSubstitutionlookup167 subtable" u100A_u100A u103C_u103D.wide u1031
Ligature2: "LigatureSubstitutionlookup165 subtable" u100A_u100A u103C
Ligature2: "LigatureSubstitutionlookup165 subtable" u100A_u100A u103C_u103D.narr
Ligature2: "LigatureSubstitutionlookup165 subtable" u100A_u100A u103C_u102F.narr
Ligature2: "LigatureSubstitutionlookup163 subtable" u100A_u100A u1031
Ligature2: "LigatureSubstitutionlookup163 subtable" u100A_u100A u1084
Ligature2: "LigatureSubstitutionlookup162 subtable" u100A_u100A u103D
Ligature2: "LigatureSubstitutionlookup162 subtable" u100A_u100A u103E
Ligature2: "LigatureSubstitutionlookup162 subtable" u100A_u100A u103D_u103E
Ligature2: "LigatureSubstitutionlookup162 subtable" u100A_u100A
Ligature2: "LigatureSubstitutionlookup162 subtable" u100A_u100A u105F
Ligature2: "LigatureSubstitutionlookup162 subtable" u100A_u100A u1060
Ligature2: "LigatureSubstitutionlookup162 subtable" u100A_u100A u1082
Ligature2: "LigatureSubstitutionlookup158 subtable" u100A_u100A u1039
Ligature2: "LigatureSubstitutionlookup130 subtable" u1004.kinzi u200D u100A_u100A
Ligature2: "LigatureSubstitutionlookup130 subtable" u101B.kinzi u200D u100A_u100A
Ligature2: "LigatureSubstitutionlookup127 subtable" u1004.kinzi u200D u100A_u100A
Ligature2: "LigatureSubstitutionlookup127 subtable" u101B.kinzi u200D u100A_u100A
Ligature2: "LigatureSubstitutionlookup124 subtable" u1004.kinzi u200D u100A_u100A
Ligature2: "LigatureSubstitutionlookup124 subtable" u101B.kinzi u200D u100A_u100A
Ligature2: "sub_ligature_cligmymr_4 subtable" u100A u100A.med
MultipleSubs2: "MultipleSubstitutionlookup139 subtable" u200C u1031 u100A_u100A
MultipleSubs2: "MultipleSubstitutionlookup137 subtable" u200C u1084 u100A_u100A
MultipleSubs2: "MultipleSubstitutionlookup129 subtable" u100A_u100A u101B.kinzi
MultipleSubs2: "MultipleSubstitutionlookup128 subtable" u100A_u100A u1004.kinzi
Comment: "GDL_order: 1+AAoA-mark: 80+AAoA"
EndChar

StartChar: u100B
Encoding: 133 4107 133
Width: 649
VWidth: 0
GlyphClass: 2
Flags: HW
AnchorPoint: "R" 0 0 mark 0
AnchorPoint: "BS" 684 -53 basechar 0
AnchorPoint: "L" 684 -53 basechar 0
AnchorPoint: "U" 300 495 basechar 0
AnchorPoint: "BD" 657 -53 basechar 0
LayerCount: 2
Back
Fore
SplineSet
594 -431 m 0
 564 -450 506 -471 492 -471 c 0
 440 -471 408 -442 408 -387 c 0
 408 -318 l 0
 372 -326 335 -330 298 -330 c 0
 226 -330 154 -317 87 -288 c 0
 87 13 l 0
 143 -34 217 -71 298 -71 c 0
 342 -71 377 -62 408 -47 c 0
 408 1 l 0
 370 -15 333 -23 298 -23 c 0
 166 -23 55 87 55 222 c 0
 55 355 166 466 298 466 c 0
 372 466 471 432 522 336 c 0
 420 283 l 0
 393 329 347 352 298 352 c 0
 229 352 169 291 169 222 c 0
 169 151 229 91 298 91 c 0
 352 91 393 115 420 160 c 0
 522 108 l 0
 522 -98 l 0
 455 -149 377 -176 298 -176 c 0
 265 -176 232 -171 201 -164 c 0
 201 -215 l 0
 232 -222 265 -225 298 -225 c 0
 382 -225 450 -204 522 -159 c 0
 522 -318 l 0
 522 -329 525 -333 532 -333 c 0
 539 -333 548 -330 567 -323 c 0
 594 -431 l 0
EndSplineSet
Ligature2: "LigatureSubstitutionlookup169 subtable" u100B u103C
Ligature2: "LigatureSubstitutionlookup167 subtable" u100B u103C u1031
Ligature2: "LigatureSubstitutionlookup167 subtable" u100B u103C.wide u1031
Ligature2: "LigatureSubstitutionlookup167 subtable" u100B u103C_u103D.narr u1031
Ligature2: "LigatureSubstitutionlookup167 subtable" u100B u103C_u103D.wide u1031
Ligature2: "LigatureSubstitutionlookup165 subtable" u100B u103C
Ligature2: "LigatureSubstitutionlookup165 subtable" u100B u103C_u103D.narr
Ligature2: "LigatureSubstitutionlookup165 subtable" u100B u103C_u102F.narr
Ligature2: "LigatureSubstitutionlookup163 subtable" u100B u1031
Ligature2: "LigatureSubstitutionlookup163 subtable" u100B u1084
Ligature2: "LigatureSubstitutionlookup162 subtable" u100B u103D
Ligature2: "LigatureSubstitutionlookup162 subtable" u100B u103E
Ligature2: "LigatureSubstitutionlookup162 subtable" u100B u103D_u103E
Ligature2: "LigatureSubstitutionlookup162 subtable" u100B
Ligature2: "LigatureSubstitutionlookup162 subtable" u100B u105F
Ligature2: "LigatureSubstitutionlookup162 subtable" u100B u1060
Ligature2: "LigatureSubstitutionlookup162 subtable" u100B u1082
Ligature2: "LigatureSubstitutionlookup158 subtable" u100B u1039
Ligature2: "LigatureSubstitutionlookup130 subtable" u1004.kinzi u200D u100B
Ligature2: "LigatureSubstitutionlookup130 subtable" u101B.kinzi u200D u100B
Ligature2: "LigatureSubstitutionlookup127 subtable" u1004.kinzi u200D u100B
Ligature2: "LigatureSubstitutionlookup127 subtable" u101B.kinzi u200D u100B
Ligature2: "LigatureSubstitutionlookup124 subtable" u1004.kinzi u200D u100B
Ligature2: "LigatureSubstitutionlookup124 subtable" u101B.kinzi u200D u100B
MultipleSubs2: "MultipleSubstitutionlookup139 subtable" u200C u1031 u100B
MultipleSubs2: "MultipleSubstitutionlookup137 subtable" u200C u1084 u100B
MultipleSubs2: "MultipleSubstitutionlookup129 subtable" u100B u101B.kinzi
MultipleSubs2: "MultipleSubstitutionlookup128 subtable" u100B u1004.kinzi
Comment: "GDL_order: 1+AAoA-mark: 80+AAoA"
EndChar

StartChar: u100B.alt
Encoding: 134 -1 134
Width: 627
VWidth: 0
GlyphClass: 2
Flags: HW
AnchorPoint: "R" 0 0 mark 0
AnchorPoint: "BS" 151 -173 basechar 0
AnchorPoint: "LL" 298 -53 basechar 0
AnchorPoint: "L" 669 -53 basechar 0
AnchorPoint: "BD" 12 -173 basechar 0
AnchorPoint: "U" 298 495 basechar 0
LayerCount: 2
Back
Fore
SplineSet
522 108 m 0
 471 12 372 -23 298 -23 c 0
 166 -23 55 87 55 222 c 0
 55 355 166 466 298 466 c 0
 372 466 471 432 522 336 c 0
 420 283 l 0
 392 325 355 352 298 352 c 0
 229 352 169 291 169 222 c 0
 169 151 229 91 298 91 c 0
 354 91 387 112 420 160 c 0
 522 108 l 0
571 -471 m 0
 394 -471 l 0
 394 -164 l 0
 363 -171 333 -176 298 -176 c 0
 225 -176 151 -153 87 -114 c 0
 87 13 l 0
 143 -34 217 -71 298 -71 c 0
 405 -71 454 -36 508 4 c 0
 508 -357 l 0
 571 -357 l 0
 571 -471 l 0
EndSplineSet
Comment: "GDL_order: 1+AAoA-mark: 80+AAoA"
EndChar

StartChar: u100B.med
Encoding: 135 -1 135
Width: 0
VWidth: 0
GlyphClass: 4
Flags: HW
AnchorPoint: "BS" -188 -53 mark 0
AnchorPoint: "LLM" -497 -53 basemark 0
AnchorPoint: "BSM" -188 -53 mark 0
AnchorPoint: "LM" 46 -53 basemark 0
AnchorPoint: "BS" 166 -53 basemark 0
AnchorPoint: "BSM" 415 -53 basemark 0
LayerCount: 2
Back
Fore
SplineSet
-56 -471 m 0
 -179 -471 l 0
 -179 -420 l 0
 -182 -420 -188 -420 -191 -420 c 0
 -251 -420 -335 -395 -335 -305 c 0
 -335 -214 -249 -191 -191 -191 c 0
 -147 -191 -114 -198 -77 -221 c 0
 -116 -288 l 0
 -144 -279 -165 -278 -191 -278 c 0
 -216 -278 -248 -285 -248 -305 c 0
 -248 -326 -216 -333 -191 -333 c 0
 -165 -333 -142 -332 -116 -323 c 0
 -116 -386 l 0
 -56 -386 l 0
 -56 -471 l 0
EndSplineSet
Ligature2: "LigatureSubstitutionlookup179 subtable" u100B.med u102D
Ligature2: "LigatureSubstitutionlookup179 subtable" u100B.med u102E
Ligature2: "LigatureSubstitutionlookup179 subtable" u100B.med u1032
Ligature2: "LigatureSubstitutionlookup179 subtable" u100B.med u103A
Ligature2: "LigatureSubstitutionlookup171 subtable" u100B.med u103C u1031
Ligature2: "LigatureSubstitutionlookup159 subtable" u100B.med u1031
Ligature2: "LigatureSubstitutionlookup159 subtable" u100B.med u103C
Ligature2: "sub_ligature_cligmymr_0 subtable" u1039 u100B
MultipleSubs2: "MultipleSubstitutionlookup138 subtable" u1039 u100B.med
Comment: "GDL_order: 2+AAoA-mark: 80+AAoA"
EndChar

StartChar: u100B_u100B
Encoding: 136 -1 136
Width: 643
VWidth: 0
GlyphClass: 2
Flags: HW
AnchorPoint: "R" 0 0 mark 0
AnchorPoint: "BS" 684 -53 basechar 0
AnchorPoint: "L" 684 -53 basechar 0
AnchorPoint: "U" 298 495 basechar 0
AnchorPoint: "BD" 657 -53 basechar 0
LayerCount: 2
Back
Fore
SplineSet
522 108 m 0
 471 12 372 -23 298 -23 c 0
 166 -23 55 87 55 222 c 0
 55 355 166 466 298 466 c 0
 372 466 471 432 522 336 c 0
 420 283 l 0
 392 331 351 352 298 352 c 0
 229 352 169 291 169 222 c 0
 169 151 229 91 298 91 c 0
 348 91 388 109 420 160 c 0
 522 108 l 0
588 -471 m 0
 409 -471 l 0
 409 -159 l 0
 374 -171 337 -176 298 -176 c 0
 225 -176 151 -153 87 -114 c 0
 87 13 l 0
 143 -34 217 -71 298 -71 c 0
 417 -71 470 -35 523 21 c 0
 523 -357 l 0
 588 -357 l 0
 588 -471 l 0
370 -471 m 0
 249 -471 l 0
 249 -420 l 0
 247 -420 239 -420 237 -420 c 0
 177 -420 93 -395 93 -305 c 0
 93 -214 177 -191 237 -191 c 0
 265 -191 310 -195 351 -221 c 0
 309 -290 l 0
 283 -281 257 -278 237 -278 c 0
 210 -278 180 -285 180 -305 c 0
 180 -326 210 -333 237 -333 c 0
 263 -333 283 -333 310 -323 c 0
 310 -386 l 0
 370 -386 l 0
 370 -471 l 0
EndSplineSet
Ligature2: "LigatureSubstitutionlookup169 subtable" u100B_u100B u103C
Ligature2: "LigatureSubstitutionlookup167 subtable" u100B_u100B u103C u1031
Ligature2: "LigatureSubstitutionlookup167 subtable" u100B_u100B u103C.wide u1031
Ligature2: "LigatureSubstitutionlookup167 subtable" u100B_u100B u103C_u103D.narr u1031
Ligature2: "LigatureSubstitutionlookup167 subtable" u100B_u100B u103C_u103D.wide u1031
Ligature2: "LigatureSubstitutionlookup165 subtable" u100B_u100B u103C
Ligature2: "LigatureSubstitutionlookup165 subtable" u100B_u100B u103C_u103D.narr
Ligature2: "LigatureSubstitutionlookup165 subtable" u100B_u100B u103C_u102F.narr
Ligature2: "LigatureSubstitutionlookup163 subtable" u100B_u100B u1031
Ligature2: "LigatureSubstitutionlookup163 subtable" u100B_u100B u1084
Ligature2: "LigatureSubstitutionlookup162 subtable" u100B_u100B u103D
Ligature2: "LigatureSubstitutionlookup162 subtable" u100B_u100B u103E
Ligature2: "LigatureSubstitutionlookup162 subtable" u100B_u100B u103D_u103E
Ligature2: "LigatureSubstitutionlookup162 subtable" u100B_u100B
Ligature2: "LigatureSubstitutionlookup162 subtable" u100B_u100B u105F
Ligature2: "LigatureSubstitutionlookup162 subtable" u100B_u100B u1060
Ligature2: "LigatureSubstitutionlookup162 subtable" u100B_u100B u1082
Ligature2: "LigatureSubstitutionlookup158 subtable" u100B_u100B u1039
Ligature2: "LigatureSubstitutionlookup130 subtable" u1004.kinzi u200D u100B_u100B
Ligature2: "LigatureSubstitutionlookup130 subtable" u101B.kinzi u200D u100B_u100B
Ligature2: "LigatureSubstitutionlookup127 subtable" u1004.kinzi u200D u100B_u100B
Ligature2: "LigatureSubstitutionlookup127 subtable" u101B.kinzi u200D u100B_u100B
Ligature2: "LigatureSubstitutionlookup124 subtable" u1004.kinzi u200D u100B_u100B
Ligature2: "LigatureSubstitutionlookup124 subtable" u101B.kinzi u200D u100B_u100B
Ligature2: "sub_ligature_cligmymr_4 subtable" u100B u100B.med
MultipleSubs2: "MultipleSubstitutionlookup139 subtable" u200C u1031 u100B_u100B
MultipleSubs2: "MultipleSubstitutionlookup137 subtable" u200C u1084 u100B_u100B
MultipleSubs2: "MultipleSubstitutionlookup129 subtable" u100B_u100B u101B.kinzi
MultipleSubs2: "MultipleSubstitutionlookup128 subtable" u100B_u100B u1004.kinzi
Comment: "GDL_order: 1+AAoA-mark: 80+AAoA"
EndChar

StartChar: u100B_u100C
Encoding: 137 -1 137
Width: 579
VWidth: 0
GlyphClass: 2
Flags: HW
AnchorPoint: "R" 0 0 mark 0
AnchorPoint: "BS" 684 -53 basechar 0
AnchorPoint: "L" 684 -53 basechar 0
AnchorPoint: "U" 298 495 basechar 0
AnchorPoint: "BD" 642 -53 basechar 0
LayerCount: 2
Back
Fore
SplineSet
522 6 m 0
 522 -282 l 0
 522 -362 513 -392 499 -416 c 0
 478 -451 447 -471 394 -471 c 0
 211 -471 l 0
 112 -471 69 -405 69 -338 c 0
 69 -259 123 -210 207 -210 c 0
 262 -210 291 -228 312 -245 c 0
 262 -330 l 0
 249 -321 231 -303 207 -303 c 0
 180 -303 165 -318 165 -338 c 0
 165 -369 199 -372 232 -372 c 0
 351 -372 l 0
 369 -372 383 -367 393 -357 c 0
 402 -348 408 -334 408 -291 c 0
 408 -176 l 0
 373 -186 336 -191 298 -191 c 0
 225 -191 151 -168 87 -129 c 0
 87 -2 l 0
 143 -49 217 -86 298 -86 c 0
 402 -86 472 -41 522 6 c 0
522 108 m 0
 471 12 372 -23 298 -23 c 0
 166 -23 55 87 55 222 c 0
 55 355 166 466 298 466 c 0
 372 466 471 432 522 336 c 0
 420 283 l 0
 377 350 317 352 298 352 c 0
 229 352 169 291 169 222 c 0
 169 151 229 91 298 91 c 0
 342 91 383 105 420 160 c 0
 522 108 l 0
EndSplineSet
Ligature2: "LigatureSubstitutionlookup169 subtable" u100B_u100C u103C
Ligature2: "LigatureSubstitutionlookup167 subtable" u100B_u100C u103C u1031
Ligature2: "LigatureSubstitutionlookup167 subtable" u100B_u100C u103C.wide u1031
Ligature2: "LigatureSubstitutionlookup167 subtable" u100B_u100C u103C_u103D.narr u1031
Ligature2: "LigatureSubstitutionlookup167 subtable" u100B_u100C u103C_u103D.wide u1031
Ligature2: "LigatureSubstitutionlookup165 subtable" u100B_u100C u103C
Ligature2: "LigatureSubstitutionlookup165 subtable" u100B_u100C u103C_u103D.narr
Ligature2: "LigatureSubstitutionlookup165 subtable" u100B_u100C u103C_u102F.narr
Ligature2: "LigatureSubstitutionlookup163 subtable" u100B_u100C u1031
Ligature2: "LigatureSubstitutionlookup163 subtable" u100B_u100C u1084
Ligature2: "LigatureSubstitutionlookup162 subtable" u100B_u100C u103D
Ligature2: "LigatureSubstitutionlookup162 subtable" u100B_u100C u103E
Ligature2: "LigatureSubstitutionlookup162 subtable" u100B_u100C u103D_u103E
Ligature2: "LigatureSubstitutionlookup162 subtable" u100B_u100C
Ligature2: "LigatureSubstitutionlookup162 subtable" u100B_u100C u105F
Ligature2: "LigatureSubstitutionlookup162 subtable" u100B_u100C u1060
Ligature2: "LigatureSubstitutionlookup162 subtable" u100B_u100C u1082
Ligature2: "LigatureSubstitutionlookup158 subtable" u100B_u100C u1039
Ligature2: "LigatureSubstitutionlookup130 subtable" u1004.kinzi u200D u100B_u100C
Ligature2: "LigatureSubstitutionlookup130 subtable" u101B.kinzi u200D u100B_u100C
Ligature2: "LigatureSubstitutionlookup127 subtable" u1004.kinzi u200D u100B_u100C
Ligature2: "LigatureSubstitutionlookup127 subtable" u101B.kinzi u200D u100B_u100C
Ligature2: "LigatureSubstitutionlookup124 subtable" u1004.kinzi u200D u100B_u100C
Ligature2: "LigatureSubstitutionlookup124 subtable" u101B.kinzi u200D u100B_u100C
Ligature2: "sub_ligature_cligmymr_4 subtable" u100B u100C.med
MultipleSubs2: "MultipleSubstitutionlookup139 subtable" u200C u1031 u100B_u100C
MultipleSubs2: "MultipleSubstitutionlookup137 subtable" u200C u1084 u100B_u100C
MultipleSubs2: "MultipleSubstitutionlookup129 subtable" u100B_u100C u101B.kinzi
MultipleSubs2: "MultipleSubstitutionlookup128 subtable" u100B_u100C u1004.kinzi
Comment: "GDL_order: 1+AAoA-mark: 80+AAoA"
EndChar

StartChar: u100C
Encoding: 138 4108 138
Width: 577
VWidth: 0
GlyphClass: 2
Flags: HW
AnchorPoint: "R" 0 0 mark 0
AnchorPoint: "BS" 684 -53 basechar 0
AnchorPoint: "L" 684 -53 basechar 0
AnchorPoint: "U" 298 495 basechar 0
AnchorPoint: "BD" 657 -53 basechar 0
LayerCount: 2
Back
Fore
SplineSet
522 108 m 0
 522 -267 l 0
 522 -339 499 -378 466 -413 c 0
 435 -445 396 -471 333 -471 c 0
 211 -471 l 0
 107 -471 69 -374 69 -312 c 0
 69 -224 138 -158 223 -158 c 0
 278 -158 307 -170 330 -186 c 0
 279 -288 l 0
 262 -279 247 -272 223 -272 c 0
 210 -272 183 -281 183 -312 c 0
 183 -345 206 -357 238 -357 c 0
 310 -357 l 0
 353 -357 372 -347 387 -332 c 0
 401 -317 408 -292 408 -257 c 0
 408 1 l 0
 370 -15 333 -23 298 -23 c 0
 166 -23 55 87 55 222 c 0
 55 355 166 466 298 466 c 0
 372 466 471 432 522 336 c 0
 420 283 l 0
 387 333 346 352 298 352 c 0
 229 352 169 291 169 222 c 0
 169 151 229 91 298 91 c 0
 346 91 386 107 420 160 c 0
 522 108 l 0
EndSplineSet
Ligature2: "LigatureSubstitutionlookup169 subtable" u100C u103C
Ligature2: "LigatureSubstitutionlookup167 subtable" u100C u103C u1031
Ligature2: "LigatureSubstitutionlookup167 subtable" u100C u103C.wide u1031
Ligature2: "LigatureSubstitutionlookup167 subtable" u100C u103C_u103D.narr u1031
Ligature2: "LigatureSubstitutionlookup167 subtable" u100C u103C_u103D.wide u1031
Ligature2: "LigatureSubstitutionlookup165 subtable" u100C u103C
Ligature2: "LigatureSubstitutionlookup165 subtable" u100C u103C_u103D.narr
Ligature2: "LigatureSubstitutionlookup165 subtable" u100C u103C_u102F.narr
Ligature2: "LigatureSubstitutionlookup163 subtable" u100C u1031
Ligature2: "LigatureSubstitutionlookup163 subtable" u100C u1084
Ligature2: "LigatureSubstitutionlookup162 subtable" u100C u103D
Ligature2: "LigatureSubstitutionlookup162 subtable" u100C u103E
Ligature2: "LigatureSubstitutionlookup162 subtable" u100C u103D_u103E
Ligature2: "LigatureSubstitutionlookup162 subtable" u100C
Ligature2: "LigatureSubstitutionlookup162 subtable" u100C u105F
Ligature2: "LigatureSubstitutionlookup162 subtable" u100C u1060
Ligature2: "LigatureSubstitutionlookup162 subtable" u100C u1082
Ligature2: "LigatureSubstitutionlookup158 subtable" u100C u1039
Ligature2: "LigatureSubstitutionlookup130 subtable" u1004.kinzi u200D u100C
Ligature2: "LigatureSubstitutionlookup130 subtable" u101B.kinzi u200D u100C
Ligature2: "LigatureSubstitutionlookup127 subtable" u1004.kinzi u200D u100C
Ligature2: "LigatureSubstitutionlookup127 subtable" u101B.kinzi u200D u100C
Ligature2: "LigatureSubstitutionlookup124 subtable" u1004.kinzi u200D u100C
Ligature2: "LigatureSubstitutionlookup124 subtable" u101B.kinzi u200D u100C
MultipleSubs2: "MultipleSubstitutionlookup139 subtable" u200C u1031 u100C
MultipleSubs2: "MultipleSubstitutionlookup137 subtable" u200C u1084 u100C
MultipleSubs2: "MultipleSubstitutionlookup129 subtable" u100C u101B.kinzi
MultipleSubs2: "MultipleSubstitutionlookup128 subtable" u100C u1004.kinzi
Comment: "GDL_order: 1+AAoA-mark: 80+AAoA"
EndChar

StartChar: u100C.med
Encoding: 139 -1 139
Width: 0
VWidth: 0
GlyphClass: 4
Flags: HW
AnchorPoint: "LLM" -938 -53 basemark 0
AnchorPoint: "BD" -416 -53 mark 0
AnchorPoint: "BSM" 108 -53 basemark 0
AnchorPoint: "LM" 104 -53 basemark 0
AnchorPoint: "BSM" 900 -53 mark 0
AnchorPoint: "BDM" -405 -53 mark 0
AnchorPoint: "BD" 406 -53 basemark 0
LayerCount: 2
Back
Fore
SplineSet
-56 -299 m 0
 -56 -357 -80 -431 -155 -471 c 0
 -195 -392 l 0
 -154 -365 -143 -330 -143 -299 c 0
 -143 -243 -189 -198 -242 -198 c 0
 -298 -198 -344 -243 -344 -299 c 0
 -344 -330 -332 -365 -290 -392 c 0
 -330 -471 l 0
 -630 -471 l 0
 -677 -471 -715 -449 -734 -426 c 0
 -757 -399 -776 -361 -776 -312 c 0
 -776 -231 l 0
 -776 -152 -701 -122 -654 -122 c 0
 -580 -122 -536 -176 -536 -240 c 0
 -536 -275 -546 -304 -560 -322 c 0
 -635 -284 l 0
 -628 -272 -624 -259 -624 -240 c 0
 -624 -227 -636 -209 -654 -209 c 0
 -676 -209 -689 -221 -689 -248 c 0
 -689 -303 l 0
 -689 -335 -681 -351 -669 -366 c 0
 -658 -378 -641 -384 -624 -384 c 0
 -414 -384 l 0
 -426 -356 -431 -324 -431 -299 c 0
 -431 -196 -345 -111 -242 -111 c 0
 -140 -111 -56 -196 -56 -299 c 0
EndSplineSet
Ligature2: "LigatureSubstitutionlookup179 subtable" u100C.med u102D
Ligature2: "LigatureSubstitutionlookup179 subtable" u100C.med u102E
Ligature2: "LigatureSubstitutionlookup179 subtable" u100C.med u1032
Ligature2: "LigatureSubstitutionlookup179 subtable" u100C.med u103A
Ligature2: "LigatureSubstitutionlookup171 subtable" u100C.med u103C u1031
Ligature2: "LigatureSubstitutionlookup159 subtable" u100C.med u1031
Ligature2: "LigatureSubstitutionlookup159 subtable" u100C.med u103C
Ligature2: "sub_ligature_cligmymr_0 subtable" u1039 u100C
MultipleSubs2: "MultipleSubstitutionlookup138 subtable" u1039 u100C.med
Comment: "GDL_order: 2+AAoA-mark: 80+AAoA"
EndChar

StartChar: u100D
Encoding: 140 4109 140
Width: 600
VWidth: 0
GlyphClass: 2
Flags: HW
AnchorPoint: "BS" 126 -173 basechar 0
AnchorPoint: "LL" 280 -53 basechar 0
AnchorPoint: "L" 642 -53 basechar 0
AnchorPoint: "BD" -17 -173 basechar 0
AnchorPoint: "U" 280 495 basechar 0
AnchorPoint: "R" 0 0 mark 0
LayerCount: 2
Back
Fore
SplineSet
544 -471 m 0
 366 -471 l 0
 366 -180 l 0
 339 -188 311 -191 280 -191 c 0
 210 -191 109 -176 55 -125 c 0
 55 108 l 0
 157 160 l 0
 191 107 234 91 280 91 c 0
 352 91 409 151 409 222 c 0
 409 291 352 352 280 352 c 0
 234 352 191 334 157 283 c 0
 55 336 l 0
 106 432 205 466 280 466 c 0
 412 466 523 355 523 222 c 0
 523 87 412 -23 280 -23 c 0
 245 -23 207 -15 171 1 c 0
 171 -63 l 0
 202 -78 237 -86 280 -86 c 0
 362 -86 434 -53 480 -14 c 0
 480 -357 l 0
 544 -357 l 0
 544 -471 l 0
EndSplineSet
Ligature2: "LigatureSubstitutionlookup169 subtable" u100D u103C
Ligature2: "LigatureSubstitutionlookup167 subtable" u100D u103C u1031
Ligature2: "LigatureSubstitutionlookup167 subtable" u100D u103C.wide u1031
Ligature2: "LigatureSubstitutionlookup167 subtable" u100D u103C_u103D.narr u1031
Ligature2: "LigatureSubstitutionlookup167 subtable" u100D u103C_u103D.wide u1031
Ligature2: "LigatureSubstitutionlookup165 subtable" u100D u103C
Ligature2: "LigatureSubstitutionlookup165 subtable" u100D u103C_u103D.narr
Ligature2: "LigatureSubstitutionlookup165 subtable" u100D u103C_u102F.narr
Ligature2: "LigatureSubstitutionlookup163 subtable" u100D u1031
Ligature2: "LigatureSubstitutionlookup163 subtable" u100D u1084
Ligature2: "LigatureSubstitutionlookup162 subtable" u100D u103D
Ligature2: "LigatureSubstitutionlookup162 subtable" u100D u103E
Ligature2: "LigatureSubstitutionlookup162 subtable" u100D u103D_u103E
Ligature2: "LigatureSubstitutionlookup162 subtable" u100D
Ligature2: "LigatureSubstitutionlookup162 subtable" u100D u105F
Ligature2: "LigatureSubstitutionlookup162 subtable" u100D u1060
Ligature2: "LigatureSubstitutionlookup162 subtable" u100D u1082
Ligature2: "LigatureSubstitutionlookup158 subtable" u100D u1039
Ligature2: "LigatureSubstitutionlookup130 subtable" u1004.kinzi u200D u100D
Ligature2: "LigatureSubstitutionlookup130 subtable" u101B.kinzi u200D u100D
Ligature2: "LigatureSubstitutionlookup127 subtable" u1004.kinzi u200D u100D
Ligature2: "LigatureSubstitutionlookup127 subtable" u101B.kinzi u200D u100D
Ligature2: "LigatureSubstitutionlookup124 subtable" u1004.kinzi u200D u100D
Ligature2: "LigatureSubstitutionlookup124 subtable" u101B.kinzi u200D u100D
MultipleSubs2: "MultipleSubstitutionlookup139 subtable" u200C u1031 u100D
MultipleSubs2: "MultipleSubstitutionlookup137 subtable" u200C u1084 u100D
MultipleSubs2: "MultipleSubstitutionlookup129 subtable" u100D u101B.kinzi
MultipleSubs2: "MultipleSubstitutionlookup128 subtable" u100D u1004.kinzi
Comment: "GDL_order: 1+AAoA-mark: 80+AAoA"
EndChar

StartChar: u100D.med
Encoding: 141 -1 141
Width: 0
VWidth: 0
GlyphClass: 4
Flags: HW
AnchorPoint: "BS" -204 -53 mark 0
AnchorPoint: "LLM" -477 -53 basemark 0
AnchorPoint: "BSM" -204 -53 mark 0
AnchorPoint: "LM" 60 -53 basemark 0
AnchorPoint: "BS" 172 -53 basemark 0
AnchorPoint: "BSM" 426 -53 basemark 0
LayerCount: 2
Back
Fore
SplineSet
-55 -461 m 0
 -150 -461 l 0
 -150 -410 l 0
 -162 -413 -173 -415 -208 -415 c 0
 -233 -415 -290 -406 -315 -398 c 0
 -315 -280 l 0
 -280 -288 -245 -290 -208 -290 c 0
 -177 -290 -142 -285 -142 -266 c 0
 -142 -242 -188 -241 -208 -241 c 0
 -246 -241 -283 -244 -302 -252 c 0
 -317 -207 l 0
 -293 -198 -249 -193 -208 -193 c 0
 -178 -193 -94 -194 -94 -266 c 0
 -94 -331 -165 -338 -208 -338 c 0
 -224 -338 -253 -336 -267 -334 c 0
 -267 -361 l 0
 -253 -364 -232 -367 -208 -367 c 0
 -158 -367 -129 -359 -102 -344 c 0
 -102 -413 l 0
 -55 -413 l 0
 -55 -461 l 0
EndSplineSet
Ligature2: "LigatureSubstitutionlookup179 subtable" u100D.med u102D
Ligature2: "LigatureSubstitutionlookup179 subtable" u100D.med u102E
Ligature2: "LigatureSubstitutionlookup179 subtable" u100D.med u1032
Ligature2: "LigatureSubstitutionlookup179 subtable" u100D.med u103A
Ligature2: "LigatureSubstitutionlookup171 subtable" u100D.med u103C u1031
Ligature2: "LigatureSubstitutionlookup159 subtable" u100D.med u1031
Ligature2: "LigatureSubstitutionlookup159 subtable" u100D.med u103C
Ligature2: "sub_ligature_cligmymr_0 subtable" u1039 u100D
MultipleSubs2: "MultipleSubstitutionlookup138 subtable" u1039 u100D.med
Comment: "GDL_order: 2+AAoA-mark: 80+AAoA"
EndChar

StartChar: u100D_u100D
Encoding: 142 -1 142
Width: 600
VWidth: 0
GlyphClass: 2
Flags: HW
AnchorPoint: "R" 0 0 mark 0
AnchorPoint: "BS" 642 -53 basechar 0
AnchorPoint: "L" 642 -53 basechar 0
AnchorPoint: "U" 280 495 basechar 0
AnchorPoint: "BD" 627 -53 basechar 0
LayerCount: 2
Back
Fore
SplineSet
544 -471 m 0
 366 -471 l 0
 366 -180 l 0
 339 -188 311 -191 280 -191 c 0
 210 -191 109 -176 55 -125 c 0
 55 108 l 0
 157 160 l 0
 189 109 231 91 280 91 c 0
 352 91 409 151 409 222 c 0
 409 291 352 352 280 352 c 0
 231 352 183 329 157 283 c 0
 55 336 l 0
 106 432 205 466 280 466 c 0
 412 466 523 355 523 222 c 0
 523 87 412 -23 280 -23 c 0
 245 -23 207 -15 171 1 c 0
 171 -63 l 0
 202 -78 237 -86 280 -86 c 0
 362 -86 434 -53 480 -14 c 0
 480 -357 l 0
 544 -357 l 0
 544 -471 l 0
345 -471 m 0
 250 -471 l 0
 250 -420 l 0
 238 -423 227 -425 192 -425 c 0
 167 -425 110 -416 85 -408 c 0
 85 -290 l 0
 120 -298 155 -300 192 -300 c 0
 223 -300 258 -295 258 -276 c 0
 258 -252 212 -251 192 -251 c 0
 154 -251 119 -253 100 -261 c 0
 85 -216 l 0
 109 -207 151 -203 192 -203 c 0
 222 -203 306 -204 306 -276 c 0
 306 -341 235 -348 192 -348 c 0
 176 -348 147 -346 133 -344 c 0
 133 -371 l 0
 147 -374 168 -377 192 -377 c 0
 242 -377 271 -369 298 -354 c 0
 298 -423 l 0
 345 -423 l 0
 345 -471 l 0
EndSplineSet
Ligature2: "LigatureSubstitutionlookup169 subtable" u100D_u100D u103C
Ligature2: "LigatureSubstitutionlookup167 subtable" u100D_u100D u103C u1031
Ligature2: "LigatureSubstitutionlookup167 subtable" u100D_u100D u103C.wide u1031
Ligature2: "LigatureSubstitutionlookup167 subtable" u100D_u100D u103C_u103D.narr u1031
Ligature2: "LigatureSubstitutionlookup167 subtable" u100D_u100D u103C_u103D.wide u1031
Ligature2: "LigatureSubstitutionlookup165 subtable" u100D_u100D u103C
Ligature2: "LigatureSubstitutionlookup165 subtable" u100D_u100D u103C_u103D.narr
Ligature2: "LigatureSubstitutionlookup165 subtable" u100D_u100D u103C_u102F.narr
Ligature2: "LigatureSubstitutionlookup163 subtable" u100D_u100D u1031
Ligature2: "LigatureSubstitutionlookup163 subtable" u100D_u100D u1084
Ligature2: "LigatureSubstitutionlookup162 subtable" u100D_u100D u103D
Ligature2: "LigatureSubstitutionlookup162 subtable" u100D_u100D u103E
Ligature2: "LigatureSubstitutionlookup162 subtable" u100D_u100D u103D_u103E
Ligature2: "LigatureSubstitutionlookup162 subtable" u100D_u100D
Ligature2: "LigatureSubstitutionlookup162 subtable" u100D_u100D u105F
Ligature2: "LigatureSubstitutionlookup162 subtable" u100D_u100D u1060
Ligature2: "LigatureSubstitutionlookup162 subtable" u100D_u100D u1082
Ligature2: "LigatureSubstitutionlookup158 subtable" u100D_u100D u1039
Ligature2: "LigatureSubstitutionlookup130 subtable" u1004.kinzi u200D u100D_u100D
Ligature2: "LigatureSubstitutionlookup130 subtable" u101B.kinzi u200D u100D_u100D
Ligature2: "LigatureSubstitutionlookup127 subtable" u1004.kinzi u200D u100D_u100D
Ligature2: "LigatureSubstitutionlookup127 subtable" u101B.kinzi u200D u100D_u100D
Ligature2: "LigatureSubstitutionlookup124 subtable" u1004.kinzi u200D u100D_u100D
Ligature2: "LigatureSubstitutionlookup124 subtable" u101B.kinzi u200D u100D_u100D
Ligature2: "sub_ligature_cligmymr_4 subtable" u100D u100D.med
MultipleSubs2: "MultipleSubstitutionlookup139 subtable" u200C u1031 u100D_u100D
MultipleSubs2: "MultipleSubstitutionlookup137 subtable" u200C u1084 u100D_u100D
MultipleSubs2: "MultipleSubstitutionlookup129 subtable" u100D_u100D u101B.kinzi
MultipleSubs2: "MultipleSubstitutionlookup128 subtable" u100D_u100D u1004.kinzi
Comment: "GDL_order: 1+AAoA-mark: 80+AAoA"
EndChar

StartChar: u100D_u100E
Encoding: 143 -1 143
Width: 592
VWidth: 0
GlyphClass: 2
Flags: HW
AnchorPoint: "R" 0 0 mark 0
AnchorPoint: "BS" 588 -53 basechar 0
AnchorPoint: "LL" 84 -53 basechar 0
AnchorPoint: "L" 489 -53 basechar 0
AnchorPoint: "U" 292 495 basechar 0
AnchorPoint: "BD" 528 -53 basechar 0
LayerCount: 2
Back
Fore
SplineSet
538 240 m 0
 538 111 453 9 345 -17 c 0
 345 -356 l 0
 415 -356 l 0
 415 -471 l 0
 246 -471 l 0
 246 -18 l 0
 127 0 55 89 55 181 c 0
 55 318 178 301 178 358 c 0
 178 366 170 372 159 372 c 0
 142 372 133 366 124 351 c 0
 55 391 l 0
 60 424 106 466 159 466 c 0
 223 466 277 435 277 358 c 0
 277 262 154 252 154 181 c 0
 154 126 191 94 246 79 c 0
 246 102 241 111 231 118 c 0
 231 166 l 0
 244 163 268 160 283 160 c 0
 304 160 319 169 319 180 c 0
 319 191 304 201 280 201 c 0
 265 201 243 198 231 195 c 0
 231 253 l 0
 246 258 267 264 288 264 c 0
 337 264 391 243 391 180 c 0
 391 136 350 122 337 114 c 0
 342 106 345 100 345 85 c 0
 389 104 439 146 439 240 c 0
 439 303 427 348 390 385 c 0
 447 466 l 0
 506 423 538 344 538 240 c 0
EndSplineSet
Ligature2: "LigatureSubstitutionlookup169 subtable" u100D_u100E u103C
Ligature2: "LigatureSubstitutionlookup167 subtable" u100D_u100E u103C u1031
Ligature2: "LigatureSubstitutionlookup167 subtable" u100D_u100E u103C.wide u1031
Ligature2: "LigatureSubstitutionlookup167 subtable" u100D_u100E u103C_u103D.narr u1031
Ligature2: "LigatureSubstitutionlookup167 subtable" u100D_u100E u103C_u103D.wide u1031
Ligature2: "LigatureSubstitutionlookup165 subtable" u100D_u100E u103C
Ligature2: "LigatureSubstitutionlookup165 subtable" u100D_u100E u103C_u103D.narr
Ligature2: "LigatureSubstitutionlookup165 subtable" u100D_u100E u103C_u102F.narr
Ligature2: "LigatureSubstitutionlookup163 subtable" u100D_u100E u1031
Ligature2: "LigatureSubstitutionlookup163 subtable" u100D_u100E u1084
Ligature2: "LigatureSubstitutionlookup162 subtable" u100D_u100E u103D
Ligature2: "LigatureSubstitutionlookup162 subtable" u100D_u100E u103E
Ligature2: "LigatureSubstitutionlookup162 subtable" u100D_u100E u103D_u103E
Ligature2: "LigatureSubstitutionlookup162 subtable" u100D_u100E
Ligature2: "LigatureSubstitutionlookup162 subtable" u100D_u100E u105F
Ligature2: "LigatureSubstitutionlookup162 subtable" u100D_u100E u1060
Ligature2: "LigatureSubstitutionlookup162 subtable" u100D_u100E u1082
Ligature2: "LigatureSubstitutionlookup158 subtable" u100D_u100E u1039
Ligature2: "LigatureSubstitutionlookup130 subtable" u1004.kinzi u200D u100D_u100E
Ligature2: "LigatureSubstitutionlookup130 subtable" u101B.kinzi u200D u100D_u100E
Ligature2: "LigatureSubstitutionlookup127 subtable" u1004.kinzi u200D u100D_u100E
Ligature2: "LigatureSubstitutionlookup127 subtable" u101B.kinzi u200D u100D_u100E
Ligature2: "LigatureSubstitutionlookup124 subtable" u1004.kinzi u200D u100D_u100E
Ligature2: "LigatureSubstitutionlookup124 subtable" u101B.kinzi u200D u100D_u100E
Ligature2: "sub_ligature_cligmymr_4 subtable" u100D u100E.med
MultipleSubs2: "MultipleSubstitutionlookup139 subtable" u200C u1031 u100D_u100E
MultipleSubs2: "MultipleSubstitutionlookup137 subtable" u200C u1084 u100D_u100E
MultipleSubs2: "MultipleSubstitutionlookup129 subtable" u100D_u100E u101B.kinzi
MultipleSubs2: "MultipleSubstitutionlookup128 subtable" u100D_u100E u1004.kinzi
Comment: "GDL_order: 1+AAoA-mark: 80+AAoA"
EndChar

StartChar: u100E
Encoding: 144 4110 144
Width: 592
VWidth: 0
GlyphClass: 2
Flags: HW
AnchorPoint: "R" 0 0 mark 0
AnchorPoint: "BS" 292 -53 basechar 0
AnchorPoint: "L" 292 -53 basechar 0
AnchorPoint: "U" 292 495 basechar 0
AnchorPoint: "BD" 285 -53 basechar 0
LayerCount: 2
Back
Fore
SplineSet
537 240 m 0
 537 83 420 -23 292 -23 c 0
 147 -23 55 81 55 166 c 0
 55 319 193 286 193 342 c 0
 193 361 180 367 163 367 c 0
 155 367 144 364 139 357 c 0
 55 408 l 0
 67 436 111 466 159 466 c 0
 231 466 292 427 292 342 c 0
 292 230 169 237 169 166 c 0
 169 133 216 91 292 91 c 0
 331 91 423 120 423 240 c 0
 423 295 410 342 381 373 c 0
 447 466 l 0
 504 423 537 349 537 240 c 0
EndSplineSet
Ligature2: "LigatureSubstitutionlookup169 subtable" u100E u103C
Ligature2: "LigatureSubstitutionlookup167 subtable" u100E u103C u1031
Ligature2: "LigatureSubstitutionlookup167 subtable" u100E u103C.wide u1031
Ligature2: "LigatureSubstitutionlookup167 subtable" u100E u103C_u103D.narr u1031
Ligature2: "LigatureSubstitutionlookup167 subtable" u100E u103C_u103D.wide u1031
Ligature2: "LigatureSubstitutionlookup165 subtable" u100E u103C
Ligature2: "LigatureSubstitutionlookup165 subtable" u100E u103C_u103D.narr
Ligature2: "LigatureSubstitutionlookup165 subtable" u100E u103C_u102F.narr
Ligature2: "LigatureSubstitutionlookup163 subtable" u100E u1031
Ligature2: "LigatureSubstitutionlookup163 subtable" u100E u1084
Ligature2: "LigatureSubstitutionlookup162 subtable" u100E u103D
Ligature2: "LigatureSubstitutionlookup162 subtable" u100E u103E
Ligature2: "LigatureSubstitutionlookup162 subtable" u100E u103D_u103E
Ligature2: "LigatureSubstitutionlookup162 subtable" u100E
Ligature2: "LigatureSubstitutionlookup162 subtable" u100E u105F
Ligature2: "LigatureSubstitutionlookup162 subtable" u100E u1060
Ligature2: "LigatureSubstitutionlookup162 subtable" u100E u1082
Ligature2: "LigatureSubstitutionlookup158 subtable" u100E u1039
Ligature2: "LigatureSubstitutionlookup130 subtable" u1004.kinzi u200D u100E
Ligature2: "LigatureSubstitutionlookup130 subtable" u101B.kinzi u200D u100E
Ligature2: "LigatureSubstitutionlookup127 subtable" u1004.kinzi u200D u100E
Ligature2: "LigatureSubstitutionlookup127 subtable" u101B.kinzi u200D u100E
Ligature2: "LigatureSubstitutionlookup124 subtable" u1004.kinzi u200D u100E
Ligature2: "LigatureSubstitutionlookup124 subtable" u101B.kinzi u200D u100E
MultipleSubs2: "MultipleSubstitutionlookup139 subtable" u200C u1031 u100E
MultipleSubs2: "MultipleSubstitutionlookup137 subtable" u200C u1084 u100E
MultipleSubs2: "MultipleSubstitutionlookup136 subtable" u200C u103C_u103D.narr u100E
MultipleSubs2: "MultipleSubstitutionlookup135 subtable" u200C u103C_u102F.narr u100E
MultipleSubs2: "MultipleSubstitutionlookup134 subtable" u200C u103C u100E
MultipleSubs2: "MultipleSubstitutionlookup129 subtable" u100E u101B.kinzi
MultipleSubs2: "MultipleSubstitutionlookup128 subtable" u100E u1004.kinzi
PairPos2: "PairwisePositioningkerninglooku subtable" uAA60.med.kham dx=-90 dy=0 dh=0 dv=0 dx=0 dy=0 dh=90 dv=0
PairPos2: "PairwisePositioningkerninglooku subtable" uAA60.med dx=-90 dy=0 dh=0 dv=0 dx=0 dy=0 dh=90 dv=0
PairPos2: "PairwisePositioningkerninglooku subtable" u1021.med dx=-90 dy=0 dh=0 dv=0 dx=0 dy=0 dh=90 dv=0
PairPos2: "PairwisePositioningkerninglooku subtable" u101E.med dx=-90 dy=0 dh=0 dv=0 dx=0 dy=0 dh=90 dv=0
PairPos2: "PairwisePositioningkerninglooku subtable" u101C.med dx=-90 dy=0 dh=0 dv=0 dx=0 dy=0 dh=90 dv=0
PairPos2: "PairwisePositioningkerninglooku subtable" u101A.med dx=-90 dy=0 dh=0 dv=0 dx=0 dy=0 dh=90 dv=0
PairPos2: "PairwisePositioningkerninglooku subtable" u1018.med dx=-90 dy=0 dh=0 dv=0 dx=0 dy=0 dh=90 dv=0
PairPos2: "PairwisePositioningkerninglooku subtable" u1011.med dx=-90 dy=0 dh=0 dv=0 dx=0 dy=0 dh=90 dv=0
PairPos2: "PairwisePositioningkerninglooku subtable" u1010.med dx=-90 dy=0 dh=0 dv=0 dx=0 dy=0 dh=90 dv=0
PairPos2: "PairwisePositioningkerninglooku subtable" u100F.med dx=-90 dy=0 dh=0 dv=0 dx=0 dy=0 dh=90 dv=0
PairPos2: "PairwisePositioningkerninglooku subtable" u100C.med dx=-90 dy=0 dh=0 dv=0 dx=0 dy=0 dh=90 dv=0
PairPos2: "PairwisePositioningkerninglooku subtable" u100A.med dx=-90 dy=0 dh=0 dv=0 dx=0 dy=0 dh=90 dv=0
PairPos2: "PairwisePositioningkerninglooku subtable" u1006.med dx=-90 dy=0 dh=0 dv=0 dx=0 dy=0 dh=90 dv=0
PairPos2: "PairwisePositioningkerninglooku subtable" u1003.med dx=-90 dy=0 dh=0 dv=0 dx=0 dy=0 dh=90 dv=0
PairPos2: "PairwisePositioningkerninglooku subtable" u1000.med dx=-90 dy=0 dh=0 dv=0 dx=0 dy=0 dh=90 dv=0
Position2: "SinglePositioninglookup48 per glyph data 0" dx=100 dy=0 dh=50 dv=0
Position2: "SinglePositioninglookup30 subtable" dx=140 dy=0 dh=140 dv=0
Comment: "GDL_order: 1+AAoA-mark: 80+AAoA"
EndChar

StartChar: u100E.med
Encoding: 145 -1 145
Width: 0
VWidth: 0
GlyphClass: 4
Flags: HW
AnchorPoint: "BS" -232 -53 mark 0
AnchorPoint: "LLM" -559 -53 basemark 0
AnchorPoint: "BSM" 62 -53 basemark 0
AnchorPoint: "LM" 120 -53 basemark 0
AnchorPoint: "BS" 232 -53 basemark 0
AnchorPoint: "BSM" -238 -53 mark 0
LayerCount: 2
Back
Fore
SplineSet
-44 -269 m 0
 -44 -371 -120 -471 -232 -471 c 0
 -344 -471 -415 -390 -415 -326 c 0
 -415 -205 -310 -233 -310 -189 c 0
 -310 -170 -326 -171 -329 -171 c 0
 -341 -171 -349 -185 -350 -189 c 0
 -415 -150 l 0
 -410 -115 -368 -93 -329 -93 c 0
 -283 -93 -232 -125 -232 -189 c 0
 -232 -274 -328 -270 -328 -326 c 0
 -328 -350 -289 -384 -232 -384 c 0
 -203 -384 -133 -361 -133 -269 c 0
 -133 -224 -139 -196 -166 -167 c 0
 -113 -93 l 0
 -70 -128 -44 -181 -44 -269 c 0
EndSplineSet
Ligature2: "LigatureSubstitutionlookup179 subtable" u100E.med u102D
Ligature2: "LigatureSubstitutionlookup179 subtable" u100E.med u102E
Ligature2: "LigatureSubstitutionlookup179 subtable" u100E.med u1032
Ligature2: "LigatureSubstitutionlookup179 subtable" u100E.med u103A
Ligature2: "LigatureSubstitutionlookup171 subtable" u100E.med u103C u1031
Ligature2: "LigatureSubstitutionlookup159 subtable" u100E.med u1031
Ligature2: "LigatureSubstitutionlookup159 subtable" u100E.med u103C
Ligature2: "sub_ligature_cligmymr_0 subtable" u1039 u100E
MultipleSubs2: "MultipleSubstitutionlookup138 subtable" u1039 u100E.med
Comment: "GDL_order: 5+AAoA-mark: 80+AAoA"
EndChar

StartChar: u100F
Encoding: 146 4111 146
Width: 1054
VWidth: 0
GlyphClass: 2
Flags: HW
AnchorPoint: "R" 0 0 mark 0
AnchorPoint: "BS" 771 -53 basechar 0
AnchorPoint: "L" 771 -53 basechar 0
AnchorPoint: "BD" 531 -53 basechar 0
AnchorPoint: "U" 771 495 basechar 0
LayerCount: 2
Back
Fore
SplineSet
999 222 m 0
 999 87 904 -23 771 -23 c 0
 755 -23 732 -22 720 -17 c 0
 757 93 l 0
 761 92 766 91 771 91 c 0
 843 91 885 151 885 222 c 0
 885 291 843 352 771 352 c 0
 711 352 678 289 678 222 c 0
 678 174 694 152 694 109 c 0
 694 18 592 -23 531 -23 c 0
 468 -23 367 18 367 109 c 0
 367 160 384 175 384 222 c 0
 384 291 345 352 283 352 c 0
 211 352 169 291 169 222 c 0
 169 151 211 91 283 91 c 0
 288 91 294 92 297 93 c 0
 334 -17 l 0
 324 -22 298 -23 283 -23 c 0
 150 -23 55 87 55 222 c 0
 55 355 150 466 283 466 c 0
 319 466 366 451 406 423 c 0
 445 448 483 466 531 466 c 0
 576 466 618 448 654 424 c 0
 697 453 740 466 771 466 c 0
 904 466 999 355 999 222 c 0
585 333 m 0
 572 343 546 352 531 352 c 0
 515 352 489 344 474 334 c 0
 487 303 496 267 496 222 c 0
 496 198 483 160 483 144 c 0
 483 103 502 91 531 91 c 0
 558 91 577 103 577 144 c 0
 577 160 565 198 565 222 c 0
 565 265 572 302 585 333 c 0
EndSplineSet
Ligature2: "LigatureSubstitutionlookup169 subtable" u100F u103C
Ligature2: "LigatureSubstitutionlookup167 subtable" u100F u103C u1031
Ligature2: "LigatureSubstitutionlookup167 subtable" u100F u103C.wide u1031
Ligature2: "LigatureSubstitutionlookup167 subtable" u100F u103C_u103D.narr u1031
Ligature2: "LigatureSubstitutionlookup167 subtable" u100F u103C_u103D.wide u1031
Ligature2: "LigatureSubstitutionlookup165 subtable" u100F u103C
Ligature2: "LigatureSubstitutionlookup165 subtable" u100F u103C_u103D.narr
Ligature2: "LigatureSubstitutionlookup165 subtable" u100F u103C_u102F.narr
Ligature2: "LigatureSubstitutionlookup163 subtable" u100F u1031
Ligature2: "LigatureSubstitutionlookup163 subtable" u100F u1084
Ligature2: "LigatureSubstitutionlookup162 subtable" u100F u103D
Ligature2: "LigatureSubstitutionlookup162 subtable" u100F u103E
Ligature2: "LigatureSubstitutionlookup162 subtable" u100F u103D_u103E
Ligature2: "LigatureSubstitutionlookup162 subtable" u100F
Ligature2: "LigatureSubstitutionlookup162 subtable" u100F u105F
Ligature2: "LigatureSubstitutionlookup162 subtable" u100F u1060
Ligature2: "LigatureSubstitutionlookup162 subtable" u100F u1082
Ligature2: "LigatureSubstitutionlookup158 subtable" u100F u1039
Ligature2: "LigatureSubstitutionlookup130 subtable" u1004.kinzi u200D u100F
Ligature2: "LigatureSubstitutionlookup130 subtable" u101B.kinzi u200D u100F
Ligature2: "LigatureSubstitutionlookup127 subtable" u1004.kinzi u200D u100F
Ligature2: "LigatureSubstitutionlookup127 subtable" u101B.kinzi u200D u100F
Ligature2: "LigatureSubstitutionlookup124 subtable" u1004.kinzi u200D u100F
Ligature2: "LigatureSubstitutionlookup124 subtable" u101B.kinzi u200D u100F
MultipleSubs2: "MultipleSubstitutionlookup139 subtable" u200C u1031 u100F
MultipleSubs2: "MultipleSubstitutionlookup137 subtable" u200C u1084 u100F
MultipleSubs2: "MultipleSubstitutionlookup136 subtable" u200C u103C_u103D.wide u100F
MultipleSubs2: "MultipleSubstitutionlookup135 subtable" u200C u103C_u102F.wide u100F
MultipleSubs2: "MultipleSubstitutionlookup134 subtable" u200C u103C.wide u100F
MultipleSubs2: "MultipleSubstitutionlookup129 subtable" u100F u101B.kinzi
MultipleSubs2: "MultipleSubstitutionlookup128 subtable" u100F u1004.kinzi
Comment: "GDL_order: 1+AAoA-mark: 80+AAoA"
EndChar

StartChar: u100F.med
Encoding: 147 -1 147
Width: 0
VWidth: 0
GlyphClass: 4
Flags: HW
AnchorPoint: "LLM" -945 -53 basemark 0
AnchorPoint: "BD" -420 -53 mark 0
AnchorPoint: "BSM" 56 -53 basemark 0
AnchorPoint: "LM" 105 -53 basemark 0
AnchorPoint: "BSM" 907 -53 mark 0
AnchorPoint: "BDM" -410 -53 mark 0
AnchorPoint: "BD" 409 -53 basemark 0
LayerCount: 2
Back
Fore
SplineSet
-55 -282 m 0
 -55 -386 -129 -471 -231 -471 c 0
 -241 -471 -262 -469 -271 -465 c 0
 -241 -381 l 0
 -238 -382 -233 -383 -231 -383 c 0
 -176 -383 -142 -337 -142 -282 c 0
 -142 -229 -178 -180 -231 -180 c 0
 -276 -180 -303 -230 -303 -282 c 0
 -303 -319 -291 -335 -291 -369 c 0
 -291 -440 -370 -471 -417 -471 c 0
 -462 -471 -541 -440 -541 -369 c 0
 -541 -332 -531 -319 -531 -282 c 0
 -531 -229 -559 -180 -607 -180 c 0
 -660 -180 -696 -229 -696 -282 c 0
 -696 -337 -662 -383 -607 -383 c 0
 -604 -383 -600 -382 -597 -381 c 0
 -567 -465 l 0
 -576 -470 -595 -471 -607 -471 c 0
 -709 -471 -783 -386 -783 -282 c 0
 -783 -180 -709 -93 -607 -93 c 0
 -579 -93 -541 -101 -510 -128 c 0
 -483 -105 -452 -93 -417 -93 c 0
 -381 -93 -349 -104 -322 -125 c 0
 -289 -101 -254 -93 -231 -93 c 0
 -129 -93 -55 -180 -55 -282 c 0
-375 -195 m 0
 -387 -186 -400 -180 -417 -180 c 0
 -432 -180 -444 -186 -459 -194 c 0
 -448 -218 -442 -246 -442 -282 c 0
 -442 -301 -453 -330 -453 -342 c 0
 -453 -374 -438 -383 -417 -383 c 0
 -396 -383 -381 -374 -381 -342 c 0
 -381 -330 -390 -301 -390 -282 c 0
 -390 -247 -384 -219 -375 -195 c 0
EndSplineSet
Ligature2: "LigatureSubstitutionlookup179 subtable" u100F.med u102D
Ligature2: "LigatureSubstitutionlookup179 subtable" u100F.med u102E
Ligature2: "LigatureSubstitutionlookup179 subtable" u100F.med u1032
Ligature2: "LigatureSubstitutionlookup179 subtable" u100F.med u103A
Ligature2: "LigatureSubstitutionlookup171 subtable" u100F.med u103C u1031
Ligature2: "LigatureSubstitutionlookup159 subtable" u100F.med u1031
Ligature2: "LigatureSubstitutionlookup159 subtable" u100F.med u103C
Ligature2: "sub_ligature_cligmymr_0 subtable" u1039 u100F
MultipleSubs2: "MultipleSubstitutionlookup138 subtable" u1039 u100F.med
Comment: "GDL_order: 2+AAoA-mark: 80+AAoA"
EndChar

StartChar: u100F_u100B
Encoding: 148 -1 148
Width: 1054
VWidth: 0
GlyphClass: 2
Flags: HW
AnchorPoint: "R" 0 0 mark 0
AnchorPoint: "BS" 1076 -53 basechar 0
AnchorPoint: "LL" 369 -53 basechar 0
AnchorPoint: "L" 974 -53 basechar 0
AnchorPoint: "U" 771 495 basechar 0
AnchorPoint: "BD" 1027 -53 basechar 0
LayerCount: 2
Back
Fore
SplineSet
892 -471 m 0
 726 -471 l 0
 726 -363 l 0
 720 -364 707 -365 700 -365 c 0
 617 -365 531 -340 531 -231 c 0
 531 -114 631 -96 700 -96 c 0
 727 -96 774 -99 831 -123 c 0
 816 -206 l 0
 789 -197 751 -183 700 -183 c 0
 663 -183 618 -188 618 -231 c 0
 618 -273 663 -278 700 -278 c 0
 744 -278 771 -276 813 -257 c 0
 813 -384 l 0
 892 -384 l 0
 892 -471 l 0
999 222 m 0
 999 87 904 -23 771 -23 c 0
 755 -23 732 -22 720 -17 c 0
 757 93 l 0
 761 92 766 91 771 91 c 0
 843 91 885 151 885 222 c 0
 885 291 843 352 771 352 c 0
 711 352 678 289 678 222 c 0
 678 174 694 152 694 109 c 0
 694 18 592 -23 531 -23 c 0
 468 -23 367 18 367 109 c 0
 367 160 384 175 384 222 c 0
 384 291 345 352 283 352 c 0
 211 352 169 291 169 222 c 0
 169 151 211 91 283 91 c 0
 288 91 294 92 297 93 c 0
 334 -17 l 0
 324 -22 298 -23 283 -23 c 0
 150 -23 55 87 55 222 c 0
 55 355 150 466 283 466 c 0
 319 466 366 451 406 423 c 0
 445 448 483 466 531 466 c 0
 576 466 618 448 654 424 c 0
 697 453 740 466 771 466 c 0
 904 466 999 355 999 222 c 0
585 333 m 0
 572 343 546 352 531 352 c 0
 515 352 489 344 474 334 c 0
 487 303 496 267 496 222 c 0
 496 198 483 160 483 144 c 0
 483 103 502 91 531 91 c 0
 558 91 577 103 577 144 c 0
 577 160 565 198 565 222 c 0
 565 265 572 302 585 333 c 0
EndSplineSet
Ligature2: "LigatureSubstitutionlookup169 subtable" u100F_u100B u103C
Ligature2: "LigatureSubstitutionlookup167 subtable" u100F_u100B u103C u1031
Ligature2: "LigatureSubstitutionlookup167 subtable" u100F_u100B u103C.wide u1031
Ligature2: "LigatureSubstitutionlookup167 subtable" u100F_u100B u103C_u103D.narr u1031
Ligature2: "LigatureSubstitutionlookup167 subtable" u100F_u100B u103C_u103D.wide u1031
Ligature2: "LigatureSubstitutionlookup165 subtable" u100F_u100B u103C
Ligature2: "LigatureSubstitutionlookup165 subtable" u100F_u100B u103C_u103D.narr
Ligature2: "LigatureSubstitutionlookup165 subtable" u100F_u100B u103C_u102F.narr
Ligature2: "LigatureSubstitutionlookup163 subtable" u100F_u100B u1031
Ligature2: "LigatureSubstitutionlookup163 subtable" u100F_u100B u1084
Ligature2: "LigatureSubstitutionlookup162 subtable" u100F_u100B u103D
Ligature2: "LigatureSubstitutionlookup162 subtable" u100F_u100B u103E
Ligature2: "LigatureSubstitutionlookup162 subtable" u100F_u100B u103D_u103E
Ligature2: "LigatureSubstitutionlookup162 subtable" u100F_u100B
Ligature2: "LigatureSubstitutionlookup162 subtable" u100F_u100B u105F
Ligature2: "LigatureSubstitutionlookup162 subtable" u100F_u100B u1060
Ligature2: "LigatureSubstitutionlookup162 subtable" u100F_u100B u1082
Ligature2: "LigatureSubstitutionlookup158 subtable" u100F_u100B u1039
Ligature2: "LigatureSubstitutionlookup130 subtable" u1004.kinzi u200D u100F_u100B
Ligature2: "LigatureSubstitutionlookup130 subtable" u101B.kinzi u200D u100F_u100B
Ligature2: "LigatureSubstitutionlookup127 subtable" u1004.kinzi u200D u100F_u100B
Ligature2: "LigatureSubstitutionlookup127 subtable" u101B.kinzi u200D u100F_u100B
Ligature2: "LigatureSubstitutionlookup124 subtable" u1004.kinzi u200D u100F_u100B
Ligature2: "LigatureSubstitutionlookup124 subtable" u101B.kinzi u200D u100F_u100B
Ligature2: "sub_ligature_cligmymr_4 subtable" u100F u100B.med
MultipleSubs2: "MultipleSubstitutionlookup139 subtable" u200C u1031 u100F_u100B
MultipleSubs2: "MultipleSubstitutionlookup137 subtable" u200C u1084 u100F_u100B
MultipleSubs2: "MultipleSubstitutionlookup129 subtable" u100F_u100B u101B.kinzi
MultipleSubs2: "MultipleSubstitutionlookup128 subtable" u100F_u100B u1004.kinzi
Comment: "GDL_order: 1+AAoA-mark: 80+AAoA"
EndChar

StartChar: u100F_u100D
Encoding: 149 -1 149
Width: 1054
VWidth: 0
GlyphClass: 2
Flags: HW
AnchorPoint: "R" 0 0 mark 0
AnchorPoint: "BS" -39 -53 basechar 0
AnchorPoint: "LL" 84 -53 basechar 0
AnchorPoint: "L" 1033 -53 basechar 0
AnchorPoint: "U" 771 495 basechar 0
AnchorPoint: "BD" -30 -53 basechar 0
LayerCount: 2
Back
Fore
SplineSet
891 -231 m 0
 666 -231 l 0
 673 -251 675 -274 675 -297 c 0
 675 -365 661 -427 624 -471 c 0
 445 -471 l 0
 405 -392 l 0
 443 -366 459 -329 459 -297 c 0
 459 -243 413 -197 357 -197 c 0
 304 -197 258 -243 258 -297 c 0
 258 -329 267 -365 310 -392 c 0
 268 -471 l 0
 196 -431 171 -354 171 -297 c 0
 171 -196 255 -110 357 -110 c 0
 460 -110 546 -196 546 -297 c 0
 546 -324 541 -353 526 -384 c 0
 576 -384 l 0
 589 -359 595 -330 595 -297 c 0
 595 -231 572 -184 538 -144 c 0
 804 -144 l 0
 804 -93 l 0
 891 -93 l 0
 891 -231 l 0
999 222 m 0
 999 87 904 -23 771 -23 c 0
 755 -23 732 -22 720 -17 c 0
 757 93 l 0
 761 92 766 91 771 91 c 0
 843 91 885 151 885 222 c 0
 885 291 843 352 771 352 c 0
 711 352 678 289 678 222 c 0
 678 174 694 152 694 109 c 0
 694 18 592 -23 531 -23 c 0
 468 -23 367 18 367 109 c 0
 367 160 384 175 384 222 c 0
 384 291 345 352 283 352 c 0
 211 352 169 291 169 222 c 0
 169 151 211 91 283 91 c 0
 288 91 294 92 297 93 c 0
 334 -17 l 0
 324 -22 298 -23 283 -23 c 0
 150 -23 55 87 55 222 c 0
 55 355 150 466 283 466 c 0
 319 466 366 451 406 423 c 0
 445 448 483 466 531 466 c 0
 576 466 618 448 654 424 c 0
 697 453 740 466 771 466 c 0
 904 466 999 355 999 222 c 0
585 333 m 0
 572 343 546 352 531 352 c 0
 515 352 489 344 474 334 c 0
 487 303 496 267 496 222 c 0
 496 198 483 160 483 144 c 0
 483 103 502 91 531 91 c 0
 558 91 577 103 577 144 c 0
 577 160 565 198 565 222 c 0
 565 265 572 302 585 333 c 0
EndSplineSet
Ligature2: "LigatureSubstitutionlookup169 subtable" u100F_u100D u103C
Ligature2: "LigatureSubstitutionlookup167 subtable" u100F_u100D u103C u1031
Ligature2: "LigatureSubstitutionlookup167 subtable" u100F_u100D u103C.wide u1031
Ligature2: "LigatureSubstitutionlookup167 subtable" u100F_u100D u103C_u103D.narr u1031
Ligature2: "LigatureSubstitutionlookup167 subtable" u100F_u100D u103C_u103D.wide u1031
Ligature2: "LigatureSubstitutionlookup165 subtable" u100F_u100D u103C
Ligature2: "LigatureSubstitutionlookup165 subtable" u100F_u100D u103C_u103D.narr
Ligature2: "LigatureSubstitutionlookup165 subtable" u100F_u100D u103C_u102F.narr
Ligature2: "LigatureSubstitutionlookup163 subtable" u100F_u100D u1031
Ligature2: "LigatureSubstitutionlookup163 subtable" u100F_u100D u1084
Ligature2: "LigatureSubstitutionlookup162 subtable" u100F_u100D u103D
Ligature2: "LigatureSubstitutionlookup162 subtable" u100F_u100D u103E
Ligature2: "LigatureSubstitutionlookup162 subtable" u100F_u100D u103D_u103E
Ligature2: "LigatureSubstitutionlookup162 subtable" u100F_u100D
Ligature2: "LigatureSubstitutionlookup162 subtable" u100F_u100D u105F
Ligature2: "LigatureSubstitutionlookup162 subtable" u100F_u100D u1060
Ligature2: "LigatureSubstitutionlookup162 subtable" u100F_u100D u1082
Ligature2: "LigatureSubstitutionlookup158 subtable" u100F_u100D u1039
Ligature2: "LigatureSubstitutionlookup130 subtable" u1004.kinzi u200D u100F_u100D
Ligature2: "LigatureSubstitutionlookup130 subtable" u101B.kinzi u200D u100F_u100D
Ligature2: "LigatureSubstitutionlookup127 subtable" u1004.kinzi u200D u100F_u100D
Ligature2: "LigatureSubstitutionlookup127 subtable" u101B.kinzi u200D u100F_u100D
Ligature2: "LigatureSubstitutionlookup124 subtable" u1004.kinzi u200D u100F_u100D
Ligature2: "LigatureSubstitutionlookup124 subtable" u101B.kinzi u200D u100F_u100D
Ligature2: "sub_ligature_cligmymr_4 subtable" u100F u100D.med
MultipleSubs2: "MultipleSubstitutionlookup139 subtable" u200C u1031 u100F_u100D
MultipleSubs2: "MultipleSubstitutionlookup137 subtable" u200C u1084 u100F_u100D
MultipleSubs2: "MultipleSubstitutionlookup129 subtable" u100F_u100D u101B.kinzi
MultipleSubs2: "MultipleSubstitutionlookup128 subtable" u100F_u100D u1004.kinzi
Comment: "GDL_order: 1+AAoA-mark: 80+AAoA"
EndChar

StartChar: u1010
Encoding: 150 4112 150
Width: 966
VWidth: 0
GlyphClass: 2
Flags: HW
AnchorPoint: "R" 0 0 mark 0
AnchorPoint: "BS" 667 -53 basechar 0
AnchorPoint: "L" 667 -53 basechar 0
AnchorPoint: "BD" 483 -53 basechar 0
AnchorPoint: "U" 667 495 basechar 0
LayerCount: 2
Back
Fore
SplineSet
912 222 m 0
 912 87 800 -23 667 -23 c 0
 642 -23 614 -20 597 -11 c 0
 642 94 l 0
 649 92 659 91 667 91 c 0
 739 91 798 151 798 222 c 0
 798 291 739 352 667 352 c 0
 601 352 544 281 535 222 c 0
 535 87 429 -23 297 -23 c 0
 162 -23 55 87 55 222 c 0
 55 355 162 466 294 466 c 0
 370 466 439 429 483 372 c 0
 522 423 586 466 667 466 c 0
 800 466 912 355 912 222 c 0
421 222 m 0
 421 291 364 352 297 352 c 0
 226 352 169 291 169 222 c 0
 169 151 226 91 294 91 c 0
 363 91 421 151 421 222 c 0
EndSplineSet
Substitution2: "sub_single_cligmymr_2 subtable" u1010.kham
Ligature2: "LigatureSubstitutionlookup169 subtable" u1010 u103C
Ligature2: "LigatureSubstitutionlookup167 subtable" u1010 u103C u1031
Ligature2: "LigatureSubstitutionlookup167 subtable" u1010 u103C.wide u1031
Ligature2: "LigatureSubstitutionlookup167 subtable" u1010 u103C_u103D.narr u1031
Ligature2: "LigatureSubstitutionlookup167 subtable" u1010 u103C_u103D.wide u1031
Ligature2: "LigatureSubstitutionlookup165 subtable" u1010 u103C
Ligature2: "LigatureSubstitutionlookup165 subtable" u1010 u103C_u103D.narr
Ligature2: "LigatureSubstitutionlookup165 subtable" u1010 u103C_u102F.narr
Ligature2: "LigatureSubstitutionlookup163 subtable" u1010 u1031
Ligature2: "LigatureSubstitutionlookup163 subtable" u1010 u1084
Ligature2: "LigatureSubstitutionlookup162 subtable" u1010 u103D
Ligature2: "LigatureSubstitutionlookup162 subtable" u1010 u103E
Ligature2: "LigatureSubstitutionlookup162 subtable" u1010 u103D_u103E
Ligature2: "LigatureSubstitutionlookup162 subtable" u1010
Ligature2: "LigatureSubstitutionlookup162 subtable" u1010 u105F
Ligature2: "LigatureSubstitutionlookup162 subtable" u1010 u1060
Ligature2: "LigatureSubstitutionlookup162 subtable" u1010 u1082
Ligature2: "LigatureSubstitutionlookup158 subtable" u1010 u1039
Ligature2: "LigatureSubstitutionlookup130 subtable" u1004.kinzi u200D u1010
Ligature2: "LigatureSubstitutionlookup130 subtable" u101B.kinzi u200D u1010
Ligature2: "LigatureSubstitutionlookup127 subtable" u1004.kinzi u200D u1010
Ligature2: "LigatureSubstitutionlookup127 subtable" u101B.kinzi u200D u1010
Ligature2: "LigatureSubstitutionlookup124 subtable" u1004.kinzi u200D u1010
Ligature2: "LigatureSubstitutionlookup124 subtable" u101B.kinzi u200D u1010
MultipleSubs2: "MultipleSubstitutionlookup139 subtable" u200C u1031 u1010
MultipleSubs2: "MultipleSubstitutionlookup137 subtable" u200C u1084 u1010
MultipleSubs2: "MultipleSubstitutionlookup136 subtable" u200C u103C_u103D.wide u1010
MultipleSubs2: "MultipleSubstitutionlookup135 subtable" u200C u103C_u102F.wide u1010
MultipleSubs2: "MultipleSubstitutionlookup134 subtable" u200C u103C.wide u1010
MultipleSubs2: "MultipleSubstitutionlookup129 subtable" u1010 u101B.kinzi
MultipleSubs2: "MultipleSubstitutionlookup128 subtable" u1010 u1004.kinzi
Comment: "GDL_order: 1+AAoA-mark: 80+AAoA"
EndChar

StartChar: u1010.med
Encoding: 151 -1 151
Width: 0
VWidth: 0
GlyphClass: 4
Flags: HW
AnchorPoint: "LLM" -876 -53 basemark 0
AnchorPoint: "BD" -384 -53 mark 0
AnchorPoint: "BSM" 107 -53 basemark 0
AnchorPoint: "LM" 107 -53 basemark 0
AnchorPoint: "BSM" 867 -53 mark 0
AnchorPoint: "BDM" -379 -53 mark 0
AnchorPoint: "BD" 384 -53 basemark 0
LayerCount: 2
Back
Fore
SplineSet
-55 -282 m 0
 -55 -386 -138 -471 -243 -471 c 0
 -264 -471 -282 -468 -297 -461 c 0
 -262 -380 l 0
 -256 -382 -249 -383 -243 -383 c 0
 -187 -383 -142 -336 -142 -282 c 0
 -142 -229 -187 -180 -243 -180 c 0
 -292 -180 -338 -236 -343 -282 c 0
 -343 -386 -426 -471 -526 -471 c 0
 -631 -471 -714 -386 -714 -282 c 0
 -714 -180 -630 -93 -529 -93 c 0
 -470 -93 -419 -122 -384 -167 c 0
 -353 -126 -307 -93 -243 -93 c 0
 -138 -93 -55 -180 -55 -282 c 0
-430 -282 m 0
 -430 -229 -475 -180 -526 -180 c 0
 -582 -180 -627 -229 -627 -282 c 0
 -627 -336 -581 -383 -529 -383 c 0
 -476 -383 -430 -336 -430 -282 c 0
EndSplineSet
Ligature2: "LigatureSubstitutionlookup179 subtable" u1010.med u102D
Ligature2: "LigatureSubstitutionlookup179 subtable" u1010.med u102E
Ligature2: "LigatureSubstitutionlookup179 subtable" u1010.med u1032
Ligature2: "LigatureSubstitutionlookup179 subtable" u1010.med u103A
Ligature2: "LigatureSubstitutionlookup171 subtable" u1010.med u103C u1031
Ligature2: "LigatureSubstitutionlookup159 subtable" u1010.med u1031
Ligature2: "LigatureSubstitutionlookup159 subtable" u1010.med u103C
Ligature2: "sub_ligature_cligmymr_0 subtable" u1039 u1010
MultipleSubs2: "MultipleSubstitutionlookup138 subtable" u1039 u1010.med
Comment: "GDL_order: 2+AAoA-mark: 80+AAoA"
EndChar

StartChar: u1010_u103D.med
Encoding: 152 -1 152
Width: 0
VWidth: 0
GlyphClass: 4
Flags: HW
AnchorPoint: "BS" -228 -53 mark 0
AnchorPoint: "LLM" -567 -53 basemark 0
AnchorPoint: "BSM" -228 -53 mark 0
AnchorPoint: "LM" 107 -53 basemark 0
AnchorPoint: "BS" 235 -53 basemark 0
AnchorPoint: "BSM" 555 -53 basemark 0
LayerCount: 2
Back
Fore
SplineSet
-64 -381 m 0
 -64 -429 -105 -471 -154 -471 c 0
 -205 -471 -244 -432 -244 -381 c 0
 -244 -333 -205 -290 -154 -290 c 0
 -102 -290 -64 -332 -64 -381 c 0
-120 -381 m 0
 -120 -362 -133 -345 -154 -345 c 0
 -174 -345 -189 -362 -189 -381 c 0
 -189 -400 -175 -416 -154 -416 c 0
 -133 -416 -120 -400 -120 -381 c 0
-55 -164 m 0
 -55 -218 -94 -267 -154 -267 c 0
 -165 -267 -180 -265 -187 -260 c 0
 -163 -197 l 0
 -160 -198 -156 -198 -154 -198 c 0
 -135 -198 -121 -183 -121 -164 c 0
 -121 -144 -139 -128 -154 -128 c 0
 -190 -128 -205 -175 -210 -195 c 0
 -220 -234 -257 -266 -304 -266 c 0
 -364 -266 -405 -217 -405 -164 c 0
 -405 -114 -363 -62 -304 -62 c 0
 -271 -62 -247 -77 -228 -98 c 0
 -207 -71 -178 -63 -154 -63 c 0
 -98 -63 -55 -112 -55 -164 c 0
-270 -164 m 0
 -270 -145 -284 -128 -304 -128 c 0
 -323 -128 -339 -145 -339 -164 c 0
 -339 -182 -324 -198 -304 -198 c 0
 -284 -198 -270 -182 -270 -164 c 0
EndSplineSet
Substitution2: "sub_single_cligmymr_4 subtable" u1010_u103D.med.tri
Ligature2: "sub_ligature_cligmymr_4 subtable" u1010.med u103D
Ligature2: "sub_ligature_cligmymr_4 subtable" u1039 u1010 u103D
Comment: "GDL_order: 2+AAoA-mark: 80+AAoA"
EndChar

StartChar: u1011
Encoding: 153 4113 153
Width: 961
VWidth: 0
GlyphClass: 2
Flags: HW
AnchorPoint: "R" 0 0 mark 0
AnchorPoint: "BS" 667 -53 basechar 0
AnchorPoint: "L" 667 -53 basechar 0
AnchorPoint: "BD" 481 -53 basechar 0
AnchorPoint: "U" 667 495 basechar 0
LayerCount: 2
Back
Fore
SplineSet
906 222 m 0
 906 87 799 -23 667 -23 c 0
 591 -23 524 11 481 67 c 0
 436 12 370 -23 297 -23 c 0
 162 -23 55 87 55 222 c 0
 55 355 162 466 294 466 c 0
 370 466 436 431 481 375 c 0
 524 431 591 466 664 466 c 0
 799 466 906 355 906 222 c 0
793 222 m 0
 793 291 736 352 667 352 c 0
 597 352 540 291 540 222 c 0
 540 151 597 91 664 91 c 0
 736 91 793 151 793 222 c 0
421 222 m 0
 421 291 364 352 297 352 c 0
 226 352 169 291 169 222 c 0
 169 151 226 91 294 91 c 0
 363 91 421 151 421 222 c 0
EndSplineSet
Ligature2: "LigatureSubstitutionlookup169 subtable" u1011 u103C
Ligature2: "LigatureSubstitutionlookup167 subtable" u1011 u103C u1031
Ligature2: "LigatureSubstitutionlookup167 subtable" u1011 u103C.wide u1031
Ligature2: "LigatureSubstitutionlookup167 subtable" u1011 u103C_u103D.narr u1031
Ligature2: "LigatureSubstitutionlookup167 subtable" u1011 u103C_u103D.wide u1031
Ligature2: "LigatureSubstitutionlookup165 subtable" u1011 u103C
Ligature2: "LigatureSubstitutionlookup165 subtable" u1011 u103C_u103D.narr
Ligature2: "LigatureSubstitutionlookup165 subtable" u1011 u103C_u102F.narr
Ligature2: "LigatureSubstitutionlookup163 subtable" u1011 u1031
Ligature2: "LigatureSubstitutionlookup163 subtable" u1011 u1084
Ligature2: "LigatureSubstitutionlookup162 subtable" u1011 u103D
Ligature2: "LigatureSubstitutionlookup162 subtable" u1011 u103E
Ligature2: "LigatureSubstitutionlookup162 subtable" u1011 u103D_u103E
Ligature2: "LigatureSubstitutionlookup162 subtable" u1011
Ligature2: "LigatureSubstitutionlookup162 subtable" u1011 u105F
Ligature2: "LigatureSubstitutionlookup162 subtable" u1011 u1060
Ligature2: "LigatureSubstitutionlookup162 subtable" u1011 u1082
Ligature2: "LigatureSubstitutionlookup158 subtable" u1011 u1039
Ligature2: "LigatureSubstitutionlookup130 subtable" u1004.kinzi u200D u1011
Ligature2: "LigatureSubstitutionlookup130 subtable" u101B.kinzi u200D u1011
Ligature2: "LigatureSubstitutionlookup127 subtable" u1004.kinzi u200D u1011
Ligature2: "LigatureSubstitutionlookup127 subtable" u101B.kinzi u200D u1011
Ligature2: "LigatureSubstitutionlookup124 subtable" u1004.kinzi u200D u1011
Ligature2: "LigatureSubstitutionlookup124 subtable" u101B.kinzi u200D u1011
MultipleSubs2: "MultipleSubstitutionlookup139 subtable" u200C u1031 u1011
MultipleSubs2: "MultipleSubstitutionlookup137 subtable" u200C u1084 u1011
MultipleSubs2: "MultipleSubstitutionlookup136 subtable" u200C u103C_u103D.wide u1011
MultipleSubs2: "MultipleSubstitutionlookup135 subtable" u200C u103C_u102F.wide u1011
MultipleSubs2: "MultipleSubstitutionlookup134 subtable" u200C u103C.wide u1011
MultipleSubs2: "MultipleSubstitutionlookup129 subtable" u1011 u101B.kinzi
MultipleSubs2: "MultipleSubstitutionlookup128 subtable" u1011 u1004.kinzi
Comment: "GDL_order: 1+AAoA-mark: 80+AAoA"
EndChar

StartChar: u1011.med
Encoding: 154 -1 154
Width: 0
VWidth: 0
GlyphClass: 4
Flags: HW
AnchorPoint: "LLM" 107 -53 basemark 0
AnchorPoint: "BD" -382 -53 mark 0
AnchorPoint: "BSM" 107 -53 basemark 0
AnchorPoint: "LM" -862 -53 basemark 0
AnchorPoint: "BSM" 877 -53 mark 0
AnchorPoint: "BDM" -395 -53 mark 0
AnchorPoint: "BD" -395 -53 basemark 0
LayerCount: 2
Back
Fore
SplineSet
-55 -282 m 0
 -55 -386 -138 -471 -240 -471 c 0
 -299 -471 -349 -444 -382 -401 c 0
 -417 -444 -468 -471 -525 -471 c 0
 -628 -471 -711 -386 -711 -282 c 0
 -711 -180 -628 -93 -526 -93 c 0
 -469 -93 -417 -120 -382 -164 c 0
 -349 -120 -298 -93 -241 -93 c 0
 -138 -93 -55 -180 -55 -282 c 0
-142 -282 m 0
 -142 -229 -186 -180 -240 -180 c 0
 -294 -180 -337 -229 -337 -282 c 0
 -337 -335 -294 -384 -241 -384 c 0
 -185 -384 -142 -335 -142 -282 c 0
-427 -282 m 0
 -427 -229 -473 -180 -525 -180 c 0
 -578 -180 -624 -229 -624 -282 c 0
 -624 -335 -578 -384 -526 -384 c 0
 -473 -384 -427 -335 -427 -282 c 0
EndSplineSet
Ligature2: "LigatureSubstitutionlookup179 subtable" u1011.med u102D
Ligature2: "LigatureSubstitutionlookup179 subtable" u1011.med u102E
Ligature2: "LigatureSubstitutionlookup179 subtable" u1011.med u1032
Ligature2: "LigatureSubstitutionlookup179 subtable" u1011.med u103A
Ligature2: "LigatureSubstitutionlookup171 subtable" u1011.med u103C u1031
Ligature2: "LigatureSubstitutionlookup159 subtable" u1011.med u1031
Ligature2: "LigatureSubstitutionlookup159 subtable" u1011.med u103C
Ligature2: "sub_ligature_cligmymr_0 subtable" u1039 u1011
MultipleSubs2: "MultipleSubstitutionlookup138 subtable" u1039 u1011.med
Comment: "GDL_order: 2+AAoA-mark: 80+AAoA"
EndChar

StartChar: u1012
Encoding: 155 4114 155
Width: 552
VWidth: 0
GlyphClass: 2
Flags: HW
AnchorPoint: "R" 0 0 mark 0
AnchorPoint: "BS" 276 -53 basechar 0
AnchorPoint: "L" 276 -53 basechar 0
AnchorPoint: "U" 276 495 basechar 0
AnchorPoint: "BD" 267 -53 basechar 0
LayerCount: 2
Back
Fore
SplineSet
498 133 m 0
 498 49 429 -23 276 -23 c 0
 127 -23 55 39 55 121 c 0
 165 162 l 0
 165 147 191 91 276 91 c 0
 328 91 384 103 384 135 c 0
 384 158 347 177 267 177 c 0
 267 267 l 0
 347 267 384 285 384 310 c 0
 384 339 328 352 276 352 c 0
 191 352 165 296 165 282 c 0
 55 322 l 0
 55 403 133 466 276 466 c 0
 429 466 498 394 498 309 c 0
 498 274 483 243 460 220 c 0
 483 196 498 166 498 133 c 0
EndSplineSet
Ligature2: "LigatureSubstitutionlookup169 subtable" u1012 u103C
Ligature2: "LigatureSubstitutionlookup167 subtable" u1012 u103C u1031
Ligature2: "LigatureSubstitutionlookup167 subtable" u1012 u103C.wide u1031
Ligature2: "LigatureSubstitutionlookup167 subtable" u1012 u103C_u103D.narr u1031
Ligature2: "LigatureSubstitutionlookup167 subtable" u1012 u103C_u103D.wide u1031
Ligature2: "LigatureSubstitutionlookup165 subtable" u1012 u103C
Ligature2: "LigatureSubstitutionlookup165 subtable" u1012 u103C_u103D.narr
Ligature2: "LigatureSubstitutionlookup165 subtable" u1012 u103C_u102F.narr
Ligature2: "LigatureSubstitutionlookup163 subtable" u1012 u1031
Ligature2: "LigatureSubstitutionlookup163 subtable" u1012 u1084
Ligature2: "LigatureSubstitutionlookup162 subtable" u1012 u103D
Ligature2: "LigatureSubstitutionlookup162 subtable" u1012 u103E
Ligature2: "LigatureSubstitutionlookup162 subtable" u1012 u103D_u103E
Ligature2: "LigatureSubstitutionlookup162 subtable" u1012
Ligature2: "LigatureSubstitutionlookup162 subtable" u1012 u105F
Ligature2: "LigatureSubstitutionlookup162 subtable" u1012 u1060
Ligature2: "LigatureSubstitutionlookup162 subtable" u1012 u1082
Ligature2: "LigatureSubstitutionlookup158 subtable" u1012 u1039
Ligature2: "LigatureSubstitutionlookup130 subtable" u1004.kinzi u200D u1012
Ligature2: "LigatureSubstitutionlookup130 subtable" u101B.kinzi u200D u1012
Ligature2: "LigatureSubstitutionlookup127 subtable" u1004.kinzi u200D u1012
Ligature2: "LigatureSubstitutionlookup127 subtable" u101B.kinzi u200D u1012
Ligature2: "LigatureSubstitutionlookup124 subtable" u1004.kinzi u200D u1012
Ligature2: "LigatureSubstitutionlookup124 subtable" u101B.kinzi u200D u1012
MultipleSubs2: "MultipleSubstitutionlookup139 subtable" u200C u1031 u1012
MultipleSubs2: "MultipleSubstitutionlookup137 subtable" u200C u1084 u1012
MultipleSubs2: "MultipleSubstitutionlookup136 subtable" u200C u103C_u103D.narr u1012
MultipleSubs2: "MultipleSubstitutionlookup135 subtable" u200C u103C_u102F.narr u1012
MultipleSubs2: "MultipleSubstitutionlookup134 subtable" u200C u103C u1012
MultipleSubs2: "MultipleSubstitutionlookup129 subtable" u1012 u101B.kinzi
MultipleSubs2: "MultipleSubstitutionlookup128 subtable" u1012 u1004.kinzi
PairPos2: "PairwisePositioningkerninglooku subtable" uAA60.med.kham dx=-90 dy=0 dh=0 dv=0 dx=0 dy=0 dh=90 dv=0
PairPos2: "PairwisePositioningkerninglooku subtable" uAA60.med dx=-90 dy=0 dh=0 dv=0 dx=0 dy=0 dh=90 dv=0
PairPos2: "PairwisePositioningkerninglooku subtable" u1021.med dx=-90 dy=0 dh=0 dv=0 dx=0 dy=0 dh=90 dv=0
PairPos2: "PairwisePositioningkerninglooku subtable" u101E.med dx=-90 dy=0 dh=0 dv=0 dx=0 dy=0 dh=90 dv=0
PairPos2: "PairwisePositioningkerninglooku subtable" u101C.med dx=-90 dy=0 dh=0 dv=0 dx=0 dy=0 dh=90 dv=0
PairPos2: "PairwisePositioningkerninglooku subtable" u101A.med dx=-90 dy=0 dh=0 dv=0 dx=0 dy=0 dh=90 dv=0
PairPos2: "PairwisePositioningkerninglooku subtable" u1018.med dx=-90 dy=0 dh=0 dv=0 dx=0 dy=0 dh=90 dv=0
PairPos2: "PairwisePositioningkerninglooku subtable" u1011.med dx=-90 dy=0 dh=0 dv=0 dx=0 dy=0 dh=90 dv=0
PairPos2: "PairwisePositioningkerninglooku subtable" u1010.med dx=-90 dy=0 dh=0 dv=0 dx=0 dy=0 dh=90 dv=0
PairPos2: "PairwisePositioningkerninglooku subtable" u100F.med dx=-90 dy=0 dh=0 dv=0 dx=0 dy=0 dh=90 dv=0
PairPos2: "PairwisePositioningkerninglooku subtable" u100C.med dx=-90 dy=0 dh=0 dv=0 dx=0 dy=0 dh=90 dv=0
PairPos2: "PairwisePositioningkerninglooku subtable" u100A.med dx=-90 dy=0 dh=0 dv=0 dx=0 dy=0 dh=90 dv=0
PairPos2: "PairwisePositioningkerninglooku subtable" u1006.med dx=-90 dy=0 dh=0 dv=0 dx=0 dy=0 dh=90 dv=0
PairPos2: "PairwisePositioningkerninglooku subtable" u1003.med dx=-90 dy=0 dh=0 dv=0 dx=0 dy=0 dh=90 dv=0
PairPos2: "PairwisePositioningkerninglooku subtable" u1000.med dx=-90 dy=0 dh=0 dv=0 dx=0 dy=0 dh=90 dv=0
Position2: "SinglePositioninglookup48 per glyph data 0" dx=100 dy=0 dh=50 dv=0
Position2: "SinglePositioninglookup30 subtable" dx=140 dy=0 dh=140 dv=0
Comment: "GDL_order: 1+AAoA-mark: 80+AAoA"
EndChar

StartChar: u1012.med
Encoding: 156 -1 156
Width: 0
VWidth: 0
GlyphClass: 4
Flags: HW
AnchorPoint: "BS" -224 -53 mark 0
AnchorPoint: "LLM" -557 -53 basemark 0
AnchorPoint: "BSM" -224 -53 mark 0
AnchorPoint: "LM" 106 -53 basemark 0
AnchorPoint: "BS" 219 -53 basemark 0
AnchorPoint: "BSM" 526 -53 basemark 0
LayerCount: 2
Back
Fore
SplineSet
-56 -350 m 0
 -56 -414 -108 -471 -225 -471 c 0
 -342 -471 -395 -423 -395 -359 c 0
 -311 -329 l 0
 -311 -335 -296 -384 -225 -384 c 0
 -186 -384 -143 -374 -143 -348 c 0
 -143 -332 -170 -317 -233 -317 c 0
 -233 -248 l 0
 -173 -248 -143 -235 -143 -215 c 0
 -143 -191 -186 -180 -225 -180 c 0
 -296 -180 -311 -231 -311 -236 c 0
 -395 -204 l 0
 -395 -140 -337 -93 -225 -93 c 0
 -108 -93 -56 -149 -56 -216 c 0
 -56 -243 -65 -265 -84 -284 c 0
 -65 -300 -56 -326 -56 -350 c 0
EndSplineSet
Ligature2: "LigatureSubstitutionlookup179 subtable" u1012.med u102D
Ligature2: "LigatureSubstitutionlookup179 subtable" u1012.med u102E
Ligature2: "LigatureSubstitutionlookup179 subtable" u1012.med u1032
Ligature2: "LigatureSubstitutionlookup179 subtable" u1012.med u103A
Ligature2: "LigatureSubstitutionlookup171 subtable" u1012.med u103C u1031
Ligature2: "LigatureSubstitutionlookup159 subtable" u1012.med u1031
Ligature2: "LigatureSubstitutionlookup159 subtable" u1012.med u103C
Ligature2: "sub_ligature_cligmymr_0 subtable" u1039 u1012
MultipleSubs2: "MultipleSubstitutionlookup138 subtable" u1039 u1012.med
Comment: "GDL_order: 2+AAoA-mark: 80+AAoA"
EndChar

StartChar: u1013
Encoding: 157 4115 157
Width: 591
VWidth: 0
GlyphClass: 2
Flags: HW
AnchorPoint: "R" 0 0 mark 0
AnchorPoint: "BS" 297 -53 basechar 0
AnchorPoint: "L" 297 -53 basechar 0
AnchorPoint: "U" 297 495 basechar 0
AnchorPoint: "BD" 288 -53 basechar 0
LayerCount: 2
Back
Fore
SplineSet
535 222 m 0
 535 87 429 -23 297 -23 c 0
 161 -23 55 87 55 222 c 0
 55 355 162 466 294 466 c 0
 429 466 535 355 535 222 c 0
420 232 m 0
 414 296 360 352 297 352 c 0
 232 352 173 299 169 231 c 0
 169 230 l 0
 207 261 258 267 297 267 c 0
 332 267 383 258 420 231 c 0
 420 232 l 0
394 142 m 0
 366 162 334 174 297 174 c 0
 261 174 227 162 196 139 c 0
 220 111 254 91 294 91 c 0
 335 91 370 113 394 142 c 0
EndSplineSet
Ligature2: "LigatureSubstitutionlookup169 subtable" u1013 u103C
Ligature2: "LigatureSubstitutionlookup167 subtable" u1013 u103C u1031
Ligature2: "LigatureSubstitutionlookup167 subtable" u1013 u103C.wide u1031
Ligature2: "LigatureSubstitutionlookup167 subtable" u1013 u103C_u103D.narr u1031
Ligature2: "LigatureSubstitutionlookup167 subtable" u1013 u103C_u103D.wide u1031
Ligature2: "LigatureSubstitutionlookup165 subtable" u1013 u103C
Ligature2: "LigatureSubstitutionlookup165 subtable" u1013 u103C_u103D.narr
Ligature2: "LigatureSubstitutionlookup165 subtable" u1013 u103C_u102F.narr
Ligature2: "LigatureSubstitutionlookup163 subtable" u1013 u1031
Ligature2: "LigatureSubstitutionlookup163 subtable" u1013 u1084
Ligature2: "LigatureSubstitutionlookup162 subtable" u1013 u103D
Ligature2: "LigatureSubstitutionlookup162 subtable" u1013 u103E
Ligature2: "LigatureSubstitutionlookup162 subtable" u1013 u103D_u103E
Ligature2: "LigatureSubstitutionlookup162 subtable" u1013
Ligature2: "LigatureSubstitutionlookup162 subtable" u1013 u105F
Ligature2: "LigatureSubstitutionlookup162 subtable" u1013 u1060
Ligature2: "LigatureSubstitutionlookup162 subtable" u1013 u1082
Ligature2: "LigatureSubstitutionlookup158 subtable" u1013 u1039
Ligature2: "LigatureSubstitutionlookup130 subtable" u1004.kinzi u200D u1013
Ligature2: "LigatureSubstitutionlookup130 subtable" u101B.kinzi u200D u1013
Ligature2: "LigatureSubstitutionlookup127 subtable" u1004.kinzi u200D u1013
Ligature2: "LigatureSubstitutionlookup127 subtable" u101B.kinzi u200D u1013
Ligature2: "LigatureSubstitutionlookup124 subtable" u1004.kinzi u200D u1013
Ligature2: "LigatureSubstitutionlookup124 subtable" u101B.kinzi u200D u1013
MultipleSubs2: "MultipleSubstitutionlookup139 subtable" u200C u1031 u1013
MultipleSubs2: "MultipleSubstitutionlookup137 subtable" u200C u1084 u1013
MultipleSubs2: "MultipleSubstitutionlookup136 subtable" u200C u103C_u103D.narr u1013
MultipleSubs2: "MultipleSubstitutionlookup135 subtable" u200C u103C_u102F.narr u1013
MultipleSubs2: "MultipleSubstitutionlookup134 subtable" u200C u103C u1013
MultipleSubs2: "MultipleSubstitutionlookup129 subtable" u1013 u101B.kinzi
MultipleSubs2: "MultipleSubstitutionlookup128 subtable" u1013 u1004.kinzi
PairPos2: "PairwisePositioningkerninglooku subtable" uAA60.med.kham dx=-90 dy=0 dh=0 dv=0 dx=0 dy=0 dh=90 dv=0
PairPos2: "PairwisePositioningkerninglooku subtable" uAA60.med dx=-90 dy=0 dh=0 dv=0 dx=0 dy=0 dh=90 dv=0
PairPos2: "PairwisePositioningkerninglooku subtable" u1021.med dx=-90 dy=0 dh=0 dv=0 dx=0 dy=0 dh=90 dv=0
PairPos2: "PairwisePositioningkerninglooku subtable" u101E.med dx=-90 dy=0 dh=0 dv=0 dx=0 dy=0 dh=90 dv=0
PairPos2: "PairwisePositioningkerninglooku subtable" u101C.med dx=-90 dy=0 dh=0 dv=0 dx=0 dy=0 dh=90 dv=0
PairPos2: "PairwisePositioningkerninglooku subtable" u101A.med dx=-90 dy=0 dh=0 dv=0 dx=0 dy=0 dh=90 dv=0
PairPos2: "PairwisePositioningkerninglooku subtable" u1018.med dx=-90 dy=0 dh=0 dv=0 dx=0 dy=0 dh=90 dv=0
PairPos2: "PairwisePositioningkerninglooku subtable" u1011.med dx=-90 dy=0 dh=0 dv=0 dx=0 dy=0 dh=90 dv=0
PairPos2: "PairwisePositioningkerninglooku subtable" u1010.med dx=-90 dy=0 dh=0 dv=0 dx=0 dy=0 dh=90 dv=0
PairPos2: "PairwisePositioningkerninglooku subtable" u100F.med dx=-90 dy=0 dh=0 dv=0 dx=0 dy=0 dh=90 dv=0
PairPos2: "PairwisePositioningkerninglooku subtable" u100C.med dx=-90 dy=0 dh=0 dv=0 dx=0 dy=0 dh=90 dv=0
PairPos2: "PairwisePositioningkerninglooku subtable" u100A.med dx=-90 dy=0 dh=0 dv=0 dx=0 dy=0 dh=90 dv=0
PairPos2: "PairwisePositioningkerninglooku subtable" u1006.med dx=-90 dy=0 dh=0 dv=0 dx=0 dy=0 dh=90 dv=0
PairPos2: "PairwisePositioningkerninglooku subtable" u1003.med dx=-90 dy=0 dh=0 dv=0 dx=0 dy=0 dh=90 dv=0
PairPos2: "PairwisePositioningkerninglooku subtable" u1000.med dx=-90 dy=0 dh=0 dv=0 dx=0 dy=0 dh=90 dv=0
Position2: "SinglePositioninglookup48 per glyph data 0" dx=100 dy=0 dh=50 dv=0
Position2: "SinglePositioninglookup30 subtable" dx=140 dy=0 dh=140 dv=0
Comment: "GDL_order: 1+AAoA-mark: 80+AAoA"
EndChar

StartChar: u1013.med
Encoding: 158 -1 158
Width: 0
VWidth: 0
GlyphClass: 4
Flags: HW
AnchorPoint: "BS" -238 -53 mark 0
AnchorPoint: "LLM" -585 -53 basemark 0
AnchorPoint: "BSM" -238 -53 mark 0
AnchorPoint: "LM" 107 -53 basemark 0
AnchorPoint: "BS" 234 -53 basemark 0
AnchorPoint: "BSM" 556 -53 basemark 0
LayerCount: 2
Back
Fore
SplineSet
-55 -282 m 0
 -55 -386 -136 -471 -237 -471 c 0
 -340 -471 -423 -386 -423 -282 c 0
 -423 -180 -340 -93 -240 -93 c 0
 -136 -93 -55 -180 -55 -282 c 0
-141 -274 m 0
 -147 -223 -186 -180 -237 -180 c 0
 -290 -180 -333 -225 -336 -275 c 0
 -336 -276 l 0
 -300 -251 -268 -248 -237 -248 c 0
 -210 -248 -174 -254 -141 -275 c 0
 -141 -274 l 0
-237 -318 m 0
 -265 -318 -292 -329 -316 -344 c 0
 -297 -367 -271 -384 -240 -384 c 0
 -209 -384 -180 -367 -163 -344 c 0
 -184 -329 -210 -318 -237 -318 c 0
EndSplineSet
Ligature2: "LigatureSubstitutionlookup179 subtable" u1013.med u102D
Ligature2: "LigatureSubstitutionlookup179 subtable" u1013.med u102E
Ligature2: "LigatureSubstitutionlookup179 subtable" u1013.med u1032
Ligature2: "LigatureSubstitutionlookup179 subtable" u1013.med u103A
Ligature2: "LigatureSubstitutionlookup171 subtable" u1013.med u103C u1031
Ligature2: "LigatureSubstitutionlookup159 subtable" u1013.med u1031
Ligature2: "LigatureSubstitutionlookup159 subtable" u1013.med u103C
Ligature2: "sub_ligature_cligmymr_0 subtable" u1039 u1013
MultipleSubs2: "MultipleSubstitutionlookup138 subtable" u1039 u1013.med
Comment: "GDL_order: 2+AAoA-mark: 80+AAoA"
EndChar

StartChar: u1014
Encoding: 159 4116 159
Width: 567
VWidth: 0
GlyphClass: 2
Flags: HW
AnchorPoint: "R" 0 0 mark 0
AnchorPoint: "BS" 587 -53 basechar 0
AnchorPoint: "L" 548 -53 basechar 0
AnchorPoint: "U" 298 495 basechar 0
AnchorPoint: "BD" 531 -53 basechar 0
LayerCount: 2
Back
Fore
SplineSet
522 138 m 0
 522 58 478 9 378 -12 c 0
 378 -471 l 0
 264 -471 l 0
 264 -23 l 0
 246 -23 l 0
 243 -23 l 0
 173 -23 45 -22 45 97 c 0
 45 172 118 231 195 231 c 0
 231 231 266 218 299 193 c 0
 332 168 356 135 369 94 c 0
 395 105 408 120 408 138 c 0
 408 238 142 224 142 357 c 0
 142 418 193 466 298 466 c 0
 357 466 391 442 405 427 c 0
 360 349 l 0
 343 363 322 373 298 373 c 0
 270 373 256 368 256 357 c 0
 256 304 522 324 522 138 c 0
259 73 m 0
 248 112 227 132 195 132 c 0
 175 132 144 117 144 97 c 0
 144 76 184 73 219 73 c 0
 259 73 l 0
EndSplineSet
Substitution2: "SingleSubstitutionlookup143 subtable" u1014.alt
Ligature2: "LigatureSubstitutionlookup169 subtable" u1014 u103C
Ligature2: "LigatureSubstitutionlookup167 subtable" u1014 u103C u1031
Ligature2: "LigatureSubstitutionlookup167 subtable" u1014 u103C.wide u1031
Ligature2: "LigatureSubstitutionlookup167 subtable" u1014 u103C_u103D.narr u1031
Ligature2: "LigatureSubstitutionlookup167 subtable" u1014 u103C_u103D.wide u1031
Ligature2: "LigatureSubstitutionlookup165 subtable" u1014 u103C
Ligature2: "LigatureSubstitutionlookup165 subtable" u1014 u103C_u103D.narr
Ligature2: "LigatureSubstitutionlookup165 subtable" u1014 u103C_u102F.narr
Ligature2: "LigatureSubstitutionlookup163 subtable" u1014 u1031
Ligature2: "LigatureSubstitutionlookup163 subtable" u1014 u1084
Ligature2: "LigatureSubstitutionlookup162 subtable" u1014 u103D
Ligature2: "LigatureSubstitutionlookup162 subtable" u1014 u103E
Ligature2: "LigatureSubstitutionlookup162 subtable" u1014 u103D_u103E
Ligature2: "LigatureSubstitutionlookup162 subtable" u1014
Ligature2: "LigatureSubstitutionlookup162 subtable" u1014 u105F
Ligature2: "LigatureSubstitutionlookup162 subtable" u1014 u1060
Ligature2: "LigatureSubstitutionlookup162 subtable" u1014 u1082
Ligature2: "LigatureSubstitutionlookup158 subtable" u1014 u1039
Ligature2: "LigatureSubstitutionlookup130 subtable" u1004.kinzi u200D u1014
Ligature2: "LigatureSubstitutionlookup130 subtable" u101B.kinzi u200D u1014
Ligature2: "LigatureSubstitutionlookup127 subtable" u1004.kinzi u200D u1014
Ligature2: "LigatureSubstitutionlookup127 subtable" u101B.kinzi u200D u1014
Ligature2: "LigatureSubstitutionlookup124 subtable" u1004.kinzi u200D u1014
Ligature2: "LigatureSubstitutionlookup124 subtable" u101B.kinzi u200D u1014
MultipleSubs2: "MultipleSubstitutionlookup139 subtable" u200C u1031 u1014
MultipleSubs2: "MultipleSubstitutionlookup137 subtable" u200C u1084 u1014
MultipleSubs2: "MultipleSubstitutionlookup136 subtable" u200C u103C_u103D.narr u1014
MultipleSubs2: "MultipleSubstitutionlookup135 subtable" u200C u103C_u102F.narr u1014
MultipleSubs2: "MultipleSubstitutionlookup134 subtable" u200C u103C u1014
MultipleSubs2: "MultipleSubstitutionlookup129 subtable" u1014 u101B.kinzi
MultipleSubs2: "MultipleSubstitutionlookup128 subtable" u1014 u1004.kinzi
PairPos2: "PairwisePositioningkerninglooku subtable" uAA60.med.kham dx=-90 dy=0 dh=0 dv=0 dx=0 dy=0 dh=90 dv=0
PairPos2: "PairwisePositioningkerninglooku subtable" uAA60.med dx=-90 dy=0 dh=0 dv=0 dx=0 dy=0 dh=90 dv=0
PairPos2: "PairwisePositioningkerninglooku subtable" u1021.med dx=-90 dy=0 dh=0 dv=0 dx=0 dy=0 dh=90 dv=0
PairPos2: "PairwisePositioningkerninglooku subtable" u101E.med dx=-90 dy=0 dh=0 dv=0 dx=0 dy=0 dh=90 dv=0
PairPos2: "PairwisePositioningkerninglooku subtable" u101C.med dx=-90 dy=0 dh=0 dv=0 dx=0 dy=0 dh=90 dv=0
PairPos2: "PairwisePositioningkerninglooku subtable" u101A.med dx=-90 dy=0 dh=0 dv=0 dx=0 dy=0 dh=90 dv=0
PairPos2: "PairwisePositioningkerninglooku subtable" u1018.med dx=-90 dy=0 dh=0 dv=0 dx=0 dy=0 dh=90 dv=0
PairPos2: "PairwisePositioningkerninglooku subtable" u1011.med dx=-90 dy=0 dh=0 dv=0 dx=0 dy=0 dh=90 dv=0
PairPos2: "PairwisePositioningkerninglooku subtable" u1010.med dx=-90 dy=0 dh=0 dv=0 dx=0 dy=0 dh=90 dv=0
PairPos2: "PairwisePositioningkerninglooku subtable" u100F.med dx=-90 dy=0 dh=0 dv=0 dx=0 dy=0 dh=90 dv=0
PairPos2: "PairwisePositioningkerninglooku subtable" u100C.med dx=-90 dy=0 dh=0 dv=0 dx=0 dy=0 dh=90 dv=0
PairPos2: "PairwisePositioningkerninglooku subtable" u100A.med dx=-90 dy=0 dh=0 dv=0 dx=0 dy=0 dh=90 dv=0
PairPos2: "PairwisePositioningkerninglooku subtable" u1006.med dx=-90 dy=0 dh=0 dv=0 dx=0 dy=0 dh=90 dv=0
PairPos2: "PairwisePositioningkerninglooku subtable" u1003.med dx=-90 dy=0 dh=0 dv=0 dx=0 dy=0 dh=90 dv=0
PairPos2: "PairwisePositioningkerninglooku subtable" u1000.med dx=-90 dy=0 dh=0 dv=0 dx=0 dy=0 dh=90 dv=0
Position2: "SinglePositioninglookup48 per glyph data 0" dx=100 dy=0 dh=50 dv=0
Position2: "SinglePositioninglookup30 subtable" dx=140 dy=0 dh=140 dv=0
Comment: "GDL_order: 1+AAoA-mark: 80+AAoA"
EndChar

